<?xml version="1.0"?>
<svg version="1.1" xmlns="http://www.w3.org/2000/svg" width="260" height="60" style=""><path fill="#0095ff" d="M15.24,25.2l0-2.64l13.44-0.24l0,2.88l-4.368,0.912l7.536,23.328l8.016-23.28l-4.464-0.96l0-2.64l12.96-0.24l0,2.88l-3.744,0.96l-10.656,29.76l-4.8,0l-10.224-29.76z M70.3728,21.84c9.36,0,14.88,6.48,14.88,16.8c0,10.56-6.48,17.76-15.84,17.76s-14.64-6-14.64-17.04c0-10.56,6-17.52,15.6-17.52z M70.1328,25.92c-6.24,0-9.84,4.08-9.84,13.2c0,8.64,3.12,13.2,9.36,13.2s10.08-4.32,10.08-13.44c0-8.64-3.36-12.96-9.6-12.96z M112.0656,52.08l0.96-5.52l3.36,0l0,9.36l-23.28,0l0-2.88l4.08-0.96l0-25.92l-4.08-0.96l0-2.64l13.2-0.24l0,2.88l-4.08,0.96l0,25.92l9.84,0z M150.6384,43.248l0,10.272s-5.088,2.88-12.24,2.88c-9.6,0-15.36-5.76-15.36-16.56c0-11.04,6.24-18,16.08-18c5.28,0,10.8,2.4,10.8,2.4l-0.24,7.92l-3.12,0l-1.44-5.28s-2.88-0.96-6.48-0.96c-6.48,0-10.08,4.8-10.08,13.68c0,8.64,4.32,12.72,10.56,12.72c3.36,0,6.72-1.2,6.72-1.2l0-7.872l-4.08-0.96l0-2.64l12.48-0.24l0,2.88z M163.6272,52.128l10.944-29.568l4.8-0.24l10.656,29.808l3.984,0.912l0,2.88l-13.92,0l0-2.88l4.464-0.912l-1.824-5.328l-12.48,0l-1.872,5.328l4.512,0.912l0,2.88l-13.2,0l0-2.88z M181.4352,42.96l-4.848-14.448l-5.04,14.448l9.888,0z"/><path fill="#" d="M212.98540625,42.4453125l0.0234375,0l-0.0234375,0q0.09375,0.03515625,0.09375,0.1171875q0,0.140625-0.38671875,0.7265625q0.046875,0.140625,0.046875,0.328125l0,0.10546875q0.0234375,0.046875,0.0234375,0.234375l0,0.0703125q-0.1171875,0.24609375-0.4453125,0.24609375q-0.421875,0-0.5859375-0.0703125q-0.05859375,0.01171875-0.193359375,0.087890625t-0.228515625,0.076171875q-0.12890625,0-0.19921875-0.0703125q-0.09375,0.046875-0.2109375,0.046875q-0.0703125,0.0234375-0.33984375,0.0234375q-0.03515625-0.01171875-0.08203125-0.029296875t-0.08203125-0.017578125l-0.0703125,0q-0.0234375,0-0.12890625,0.0234375t-0.1171875,0.0234375q-0.10546875,0-0.31640625-0.0703125l-0.1640625,0q-0.1875,0-0.234375-0.046875q-0.0234375,0.0234375-0.12890625,0.0234375q-0.09375,0-0.1875-0.046875l-0.1171875,0q-0.17578125,0-0.26953125-0.0234375q-0.0703125,0.046875-0.2109375,0.046875l-0.19921875,0l-0.140625,0q-0.234375,0-0.28125-0.0703125q-0.140625,0.046875-0.17578125,0.046875l-0.1875,0l-0.09375,0q-0.09375,0.046875-0.19921875,0.046875q-0.09375,0-0.140625-0.0234375q-0.03515625,0.01171875-0.123046875,0.052734375t-0.146484375,0.041015625l-0.0234375,0q-0.01171875,0-0.052734375,0.01171875t-0.064453125,0.01171875q-0.05859375,0-0.193359375-0.0234375t-0.193359375-0.0234375q-0.43359375,0-0.64453125-0.0703125q-0.046875,0-0.193359375,0.046875t-0.193359375,0.046875q-0.01171875,0-0.046875,0.01171875t-0.046875,0.01171875q-0.22265625,0-0.36328125-0.140625q-0.2109375,0.0703125-0.234375,0.0703125l-0.2109375,0.0234375l0,0l-0.05859375,0.0234375q-0.0703125,0-0.1171875-0.09375q-0.1640625,0.0703125-0.1640625,0.09375l-0.0703125,0q-0.1640625,0-0.36328125-0.099609375t-0.2109375-0.216796875q-0.05859375-0.17578125-0.05859375-0.41015625q0-0.26953125,0.05859375-0.50390625l0-0.375q0-0.2109375-0.03515625-0.38671875q-0.09375,0.046875-0.140625,0.046875q0-0.12890625,0.1171875-0.1640625q-0.03515625-0.0703125-0.0703125-0.0703125q-0.01171875,0-0.03515625,0.01171875t-0.03515625,0.01171875q0.10546875-0.0703125,0.12890625-0.09375t0.03515625-0.12890625q0-0.17578125,0.22265625-0.28125q0.0234375-0.0234375,0.140625-0.0234375q0.19921875,0,0.29296875,0.046875q0.03515625,0,0.087890625,0.029296875t0.076171875,0.041015625q0.140625-0.0703125,0.26953125-0.0703125l0.046875,0l0.1640625,0l0.09375,0q0.05859375,0,0.146484375-0.0234375t0.146484375-0.0234375q0.046875,0,0.169921875-0.08203125t0.216796875-0.0703125q0.05859375,0,0.1171875,0.0234375t0.0703125,0.0234375q0.046875,0,0.0703125-0.0234375q0.09375-0.05859375,0.111328125-0.181640625t0.052734375-0.169921875q0-0.0234375-0.0234375-0.0703125t-0.0234375-0.05859375q0-0.0234375,0.046875-0.0703125q0.10546875-0.08203125,0.10546875-0.1875q-0.0234375-0.0703125-0.0234375-0.26953125l0-0.1171875q-0.1171875,0.1171875-0.26953125,0.1171875q-0.09375,0-0.09375-0.1171875t0.158203125-0.26953125t0.181640625-0.1875l0-0.09375q0-0.29296875,0.09375-0.52734375q0-0.0234375-0.01171875-0.10546875t-0.01171875-0.140625q0-0.046875,0.01171875-0.12890625t0.01171875-0.10546875q-0.0234375-0.0703125-0.0234375-0.31640625q0-0.2578125,0.0234375-0.3046875l0-0.17578125q0-0.26953125,0.046875-0.45703125q0-0.0234375,0.01171875-0.05859375t0.01171875-0.05859375q0-0.19921875-0.1171875-0.55078125l-0.0703125,0q-0.09375,0-0.169921875-0.046875t-0.076171875-0.09375q0-0.05859375,0.1171875-0.1171875q0.19921875-0.08203125,0.19921875-0.24609375l0-0.1640625l0-0.12890625l0-0.09375q0-0.05859375,0.01171875-0.1875t0.01171875-0.1875l0-0.15234375q0-0.26953125,0.046875-0.45703125q-0.1171875-0.3515625-0.1171875-0.83203125q0-0.17578125,0.046875-0.41015625q0.0234375-0.0703125,0.0234375-0.24609375q0-0.1171875-0.03515625-0.33984375t-0.03515625-0.3046875q0-0.03515625,0.01171875-0.087890625t0.01171875-0.076171875q-0.0234375-0.046875-0.0234375-0.15234375q0-0.05859375,0.0234375-0.1875t0.0234375-0.1875l0-0.046875q0-0.12890625,0.0703125-0.19921875l0-0.09375q0-0.24609375,0.0234375-0.26953125l0-0.1171875l0-0.2109375q0-0.31640625-0.0703125-0.43359375q-0.15234375-0.22265625-0.22265625-0.48046875q-0.01171875-0.0234375-0.234375-0.09375q-0.10546875,0.0703125-0.29296875,0.0703125l-0.046875,0q-0.1640625-0.046875-0.1640625-0.1640625q0-0.05859375,0.046875-0.10546875l-0.0234375,0q-0.046875,0-0.216796875,0.064453125t-0.216796875,0.064453125q-0.0703125,0-0.1640625-0.064453125t-0.17578125-0.064453125q-0.03515625,0-0.10546875,0.01171875t-0.10546875,0.01171875q-0.046875,0-0.140625-0.046875q-0.0234375,0.0234375-0.15234375,0.0234375q-0.09375,0-0.1171875-0.0234375q-0.2109375-0.1171875-0.2109375-0.55078125q0-0.05859375,0.01171875-0.169921875t0.01171875-0.158203125q0-0.09375-0.046875-0.26953125t-0.05859375-0.234375q-0.046875,0.046875-0.140625,0.046875q-0.1171875,0-0.1171875-0.0703125q0-0.01171875,0.046875-0.10546875q0.1171875-0.140625,0.1875-0.3515625q0-0.4921875,0.29296875-0.6328125q0.09375-0.046875,0.140625-0.046875q0.0703125,0,0.234375,0.03515625t0.19921875,0.03515625l0.046875,0q0.09375-0.046875,0.24609375-0.046875q0.1640625,0,0.3046875,0.046875q0.2109375-0.0703125,0.29296875-0.0703125q0.0703125,0.01171875,0.38671875,0.017578125t0.45703125,0.076171875q0.046875-0.0234375,0.234375-0.0234375q0.046875,0,0.123046875-0.0234375t0.123046875-0.0234375q0.05859375,0,0.1875-0.0234375t0.1875-0.0234375l0.046875,0q0.05859375,0,0.17578125-0.0234375t0.1640625-0.0234375q0.09375,0,0.1171875,0.0234375q0.2109375-0.0703125,0.31640625-0.0703125l0.046875,0q0.24609375,0.1171875,0.66796875,0.1640625q0.03515625,0,0.09375,0.01171875t0.08203125,0.01171875q0.08203125,0,0.3046875-0.09375q0.140625-0.0703125,0.22265625-0.0703125q0.10546875,0,0.140625,0.1171875l0.046875,0q0.09375,0,0.140625,0.046875q0.03515625,0,0.111328125-0.01171875t0.111328125-0.01171875l0.0703125,0q0.1171875,0,0.1640625-0.0234375t0.15234375-0.0234375l0.2109375,0l0.09375,0l0.0703125,0q0.03515625,0,0.134765625,0.0234375t0.134765625,0.0234375l0.046875,0q0.09375-0.046875,0.1875-0.046875q0.15234375,0,0.33984375,0.046875q0.0703125-0.0234375,0.22265625-0.0234375q0.046875-0.0234375,0.1171875-0.0234375q0.09375,0,0.140625,0.046875q0.0703125-0.0703125,0.140625-0.0703125q0.08203125,0,0.12890625,0.046875q0.0234375-0.0234375,0.09375-0.0234375q0.03515625,0,0.099609375,0.01171875t0.087890625,0.01171875q0.09375-0.046875,0.17578125-0.046875l0.0703125,0q0.1875,0.05859375,0.310546875,0.193359375t0.123046875,0.310546875q0,0.01171875-0.017578125,0.052734375t-0.017578125,0.064453125q0.08203125,0.1640625,0.08203125,0.33984375q0,0.22265625-0.08203125,0.38671875q0,0.05859375-0.046875,0.193359375t-0.046875,0.193359375l0,0.046875q0.0234375-0.01171875,0.08203125-0.0703125t0.111328125-0.09375t0.099609375-0.03515625q0.05859375,0,0.09375,0.08203125q0.0234375,0.0234375,0.0234375,0.0703125q0,0.03515625-0.029296875,0.05859375t-0.076171875,0.046875t-0.05859375,0.03515625q0.0703125,0.03515625,0.0703125,0.09375q0,0.1171875-0.1640625,0.19921875q-0.10546875,0.05859375-0.10546875,0.09375l0,0.046875q0,0.0234375-0.0234375,0.0703125q-0.08203125,0.19921875-0.3984375,0.29296875q-0.0234375,0-0.0703125,0.01171875t-0.05859375,0.01171875q-0.0234375,0-0.076171875-0.01171875t-0.087890625-0.01171875q-0.046875,0-0.1875,0.0703125l-0.08203125,0.0234375q-0.03515625,0-0.052734375-0.029296875t-0.041015625-0.076171875t-0.046875-0.0703125q-0.24609375,0.24609375-0.43359375,0.24609375q-0.0234375,0-0.0703125-0.01171875t-0.0703125-0.01171875q-0.046875,0.03515625-0.17578125,0.12890625t-0.2109375,0.17578125t-0.1171875,0.17578125q0.0703125-0.0234375,0.15234375,0.03515625t0.08203125,0.12890625q0,0.05859375-0.0703125,0.09375q-0.234375,0.09375-0.2578125,0.19921875q0.0234375,0.0703125,0.0234375,0.1640625l0,0.1640625l0,0.08203125q0.01171875,0.05859375,0.017578125,0.08203125t0.01171875,0.029296875t0.03515625,0.029296875t0.052734375,0.0703125q0,0.05859375-0.09375,0.33984375q0.046875,0.09375,0.046875,0.375q0,0.38671875-0.0703125,0.6328125q-0.03515625,0.09375-0.046875,0.2109375t-0.01171875,0.275390625t-0.01171875,0.251953125q0.046875-0.046875,0.09375-0.046875q0.1171875,0,0.1171875,0.1171875q-0.03515625,0.1171875-0.1640625,0.17578125q-0.09375,0.05859375-0.09375,0.2109375q0,0.03515625,0.01171875,0.099609375t0.01171875,0.087890625q0.0234375,0.0703125,0.0234375,0.22265625q0,0.140625-0.0234375,0.2109375q0.046875,0.28125,0.046875,0.50390625l0,0.09375q0.046875,0.09375,0.046875,0.33984375t-0.046875,0.57421875q0.046875,0.28125,0.046875,0.43359375q0,0.10546875-0.01171875,0.28125t-0.01171875,0.24609375q0.10546875-0.0703125,0.1640625-0.0703125q0.1171875,0,0.1171875,0.1171875q0,0.09375-0.0703125,0.19921875q-0.0234375,0.046875-0.2109375,0.234375l0,0.17578125l0,0.1640625l0,0.09375q0.0703125,0.31640625,0.0703125,0.71484375q0,0.0703125-0.01171875,0.19921875t-0.01171875,0.1875q0,0.41015625-0.0234375,0.55078125q0.046875,0.234375,0.046875,0.41015625q0,0.046875-0.01171875,0.140625t-0.01171875,0.12890625l0,0.0703125q0,0.24609375,0.09375,0.48046875l0.0703125,0q0.26953125,0,0.26953125,0.140625q0,0.03515625-0.09375,0.09375q0.0703125,0.046875,0.26953125,0.0703125t0.28125,0.08203125q0.0234375-0.01171875,0.05859375-0.0234375t0.05859375-0.0234375t0.046875-0.01171875q0.01171875,0,0.052734375,0.017578125t0.064453125,0.017578125l0.046875,0q0.03515625,0,0.111328125-0.029296875t0.111328125-0.029296875l0.046875,0q0.01171875,0,0.0703125-0.01171875t0.09375-0.01171875q0.17578125,0,0.36328125,0.05859375t0.234375,0.140625q0.08203125,0.12890625,0.08203125,0.234375q0,0.0703125-0.029296875,0.22265625t-0.029296875,0.2109375l0,0.0703125q0.140625-0.0703125,0.19921875-0.0703125l0.0234375,0z M211.7080625,43.171875l0.046875-0.0234375q0-0.0234375-0.09375,0.046875l0.046875-0.0234375q0.03515625-0.03515625,0.15234375-0.09375t0.193359375-0.123046875t0.087890625-0.123046875l0.0234375-0.140625q-0.10546875,0.1171875-0.24609375,0.240234375t-0.2578125,0.2109375t-0.298828125,0.2109375t-0.275390625,0.193359375q0.1171875-0.08203125,0.333984375-0.2109375t0.287109375-0.1640625z M211.403375,42.2578125l0.0234375,0l-0.0234375,0q0.03515625,0-0.29296875,0.38671875t-0.41015625,0.46875q0.85546875-0.515625,1.18359375-0.66796875q0.140625-0.046875,0.2109375-0.046875t0.09375,0.0234375l0-0.0703125q0-0.05859375-0.017578125-0.064453125t-0.09375-0.01171875t-0.146484375-0.017578125l-0.1171875,0l-0.26953125,0l-0.140625,0z M204.99321875,43.59375l0.0234375-0.0234375l-0.0234375,0.0234375q0.08203125,0.01171875,0.17578125-0.029296875t0.216796875-0.123046875l0.158203125-0.10546875q0.17578125-0.10546875,0.5390625-0.310546875t0.5390625-0.310546875q0.26953125-0.1640625,0.80859375-0.46875t0.8203125-0.46875q-2.15625,1.078125-3.2578125,1.81640625z M206.6455625,41.1796875l0.45703125-0.33984375q0-0.01171875-0.111328125,0.0703125t-0.228515625,0.169921875t-0.1171875,0.099609375q1.62890625-1.1484375,2.16796875-1.46484375q0.0703125-0.03515625,0.83203125-0.52734375q0.01171875-0.01171875,0.052734375-0.046875t0.08203125-0.05859375t0.087890625-0.0234375q0.0234375,0,0.0703125,0.046875q0-0.24609375-0.046875-0.66796875q-0.19921875,0.1640625-0.615234375,0.462890625t-0.462890625,0.333984375q0.15234375-0.08203125,0.421875-0.240234375t0.41015625-0.240234375q0.046875-0.0234375,0.1171875-0.0234375q0.10546875,0,0.10546875,0.0703125q0,0.08203125-0.12890625,0.1640625q-0.31640625,0.19921875-0.76171875,0.50390625q-0.78515625,0.515625-1.58203125,1.0546875q-0.10546875,0.0703125-0.328125,0.216796875t-0.328125,0.216796875q-0.0234375,0.01171875-0.087890625,0.05859375t-0.1171875,0.08203125t-0.10546875,0.087890625t-0.064453125,0.087890625q0.0703125-0.01171875,0.158203125-0.046875t0.123046875-0.046875z M206.6924375,40.72265625q-0.0234375,0.01171875-0.09375,0.052734375t-0.1171875,0.0703125t-0.046875,0.064453125q0.0703125-0.046875,0.2578125-0.1875z M209.93853125,39.28125l-0.0234375,0.0234375q0.0234375,0,0.0234375-0.0234375z M209.7861875,39.28125l-0.0234375,0l0.0234375,0z M209.91509375,39.71484375l-0.19921875,0.140625q0,0.01171875,0.046875-0.017578125t0.099609375-0.0703125t0.052734375-0.052734375q-0.19921875,0.12890625-0.796875,0.533203125t-0.85546875,0.580078125t-0.779296875,0.5390625t-0.84375,0.609375t-0.73828125,0.5859375t-0.767578125,0.65625q1.3125-0.84375,3.890625-2.09765625q0.05859375-0.0234375,0.251953125-0.140625t0.369140625-0.19921875t0.29296875-0.08203125l0-0.17578125q0-0.09375-0.0234375-0.298828125t-0.0234375-0.298828125q0-0.03515625,0.01171875-0.10546875t0.01171875-0.10546875z M207.14946875,43.59375l0.046875-0.0234375l-0.046875,0.0234375q0.328125-0.17578125,0.890625-0.57421875q-0.09375,0.05859375-0.298828125,0.193359375t-0.298828125,0.193359375l-0.31640625,0.1640625z M206.00103125,43.67578125q0.1171875,0,0.29296875-0.10546875t0.375-0.2578125t0.26953125-0.19921875q0.12890625-0.0703125,0.451171875-0.28125t0.509765625-0.31640625q-0.99609375,0.5859375-1.96875,1.16015625l0.0703125,0z M207.70025,43.5234375l0.0234375,0l-0.0234375,0q0.10546875,0.01171875,0.22265625-0.052734375t0.287109375-0.2109375t0.193359375-0.169921875q0.28125-0.2109375,0.59765625-0.45703125q-0.12890625,0.09375-0.404296875,0.29296875t-0.416015625,0.29296875q-0.421875,0.31640625-0.48046875,0.3046875z M208.3565,43.5703125q0.05859375,0.0234375,0.15234375-0.029296875t0.205078125-0.140625t0.146484375-0.111328125q-0.08203125,0.046875-0.251953125,0.140625t-0.251953125,0.140625z M209.09478125,43.40625q0.38671875-0.234375,0.38671875-0.2578125q-0.1171875,0.0703125-0.38671875,0.2578125q0.33984375-0.2109375,0.984375-0.626953125t0.984375-0.615234375q-0.03515625-0.03515625-0.09375-0.03515625q-0.10546875,0-0.251953125,0.09375t-0.298828125,0.22265625t-0.19921875,0.1640625q-0.19921875,0.12890625-0.568359375,0.3984375t-0.556640625,0.3984375z M210.26665625,41.98828125q-0.046875-0.03515625-0.328125,0.17578125t-0.603515625,0.486328125t-0.357421875,0.298828125q0.2578125-0.15234375,0.75-0.43359375t0.73828125-0.43359375l-0.1875-0.09375l-0.01171875,0z M210.07915625,41.6015625l0-0.0234375l0,0.0234375q0.0234375-0.0234375,0.0234375-0.046875q0-0.0703125-0.046875-0.1640625q-0.0234375,0.01171875-0.0703125,0.046875t-0.0703125,0.046875l0.0234375,0q0.10546875,0,0.140625,0.1171875z M208.01665625,38.89453125q0.17578125-0.09375,0.521484375-0.298828125t0.509765625-0.298828125q0.03515625-0.0234375,0.298828125-0.140625t0.404296875-0.234375t0.140625-0.24609375q-1.359375,0.90234375-1.875,1.21875z M206.4580625,38.53125l0.0703125-0.0234375q-0.0703125,0-0.0703125,0.0234375q0.140625-0.0234375,0.310546875-0.099609375t0.26953125-0.12890625t0.298828125-0.181640625t0.24609375-0.1640625q0.78515625-0.515625,1.7578125-1.2421875q-1.41796875,0.90234375-2.19140625,1.3359375q-0.046875,0.0234375-0.2578125,0.10546875t-0.322265625,0.169921875t-0.111328125,0.205078125z M206.528375,37.67578125l0.046875-0.05859375l-0.046875,0.05859375q0.22265625-0.2578125,0.48046875-0.48046875q-0.31640625,0.140625-0.50390625,0.1640625q0.0234375,0.09375,0.0234375,0.31640625z M206.4815,39.234375q0.234375-0.1875,0.6796875-0.57421875t0.66796875-0.5859375q-0.80859375,0.515625-1.13671875,0.6328125q-0.03515625,0.01171875-0.10546875,0.0234375t-0.087890625,0.029296875t-0.017578125,0.087890625q0.0234375,0.046875,0.0234375,0.1875q0,0.15234375-0.0234375,0.19921875z M209.86821875,36.609375q-0.5390625,0.46875-1.623046875,1.40625t-1.623046875,1.40625q1.04296875-0.703125,2.63671875-1.62890625q0.03515625-0.0234375,0.216796875-0.111328125t0.298828125-0.17578125t0.1171875-0.169921875q-0.0234375-0.1171875-0.0234375-0.36328125l0-0.36328125z M209.89165625,36.375l0-0.0234375l0,0.046875l0-0.0234375z M209.86821875,35.34375q0,0.03515625-0.55078125,0.404296875t-0.703125,0.462890625q-0.46875,0.3046875-1.0546875,0.80859375q-0.7734375,0.609375-0.984375,0.984375q0.5859375-0.46875,2.15625-1.3359375l1.16015625-0.6328125q0-0.0703125-0.0234375-0.2578125t-0.0234375-0.26953125q0-0.03515625,0.01171875-0.087890625t0.01171875-0.076171875z M209.82134375,34.76953125l0-0.0234375l0,0.0234375l0-0.09375q-0.5390625,0.41015625-1.634765625,1.21875t-1.634765625,1.21875q0.4921875-0.15234375,1.53515625-0.83203125q0.2578125-0.1640625,0.69140625-0.48046875t0.609375-0.43359375q0.1640625-0.140625,0.43359375-0.31640625l0-0.28125z M212.16509375,29.34375l-0.140625,0.140625q0.0234375-0.01171875,0.052734375-0.029296875t0.046875-0.0234375t0.029296875-0.029296875t0.01171875-0.05859375z M212.23540625,28.69921875q-0.01171875,0.03515625-0.1875,0.1171875t-0.38671875,0.1640625t-0.234375,0.09375q-0.9375,0.4921875-2.0390625,1.20703125q-0.57421875,0.3515625-2.51953125,1.62890625q-0.0703125,0.046875-0.216796875,0.146484375t-0.216796875,0.146484375q-0.0234375,0.046875-0.0234375,0.1640625q0,0.140625-0.0234375,0.2109375q0.046875,0.28125,0.046875,0.45703125q0,0.15234375-0.0234375,0.19921875q0.33984375-0.22265625,1.0078125-0.65625t1.0078125-0.66796875q0.7265625-0.50390625,1.171875-0.84375q0.03515625-0.0234375,0.099609375-0.064453125t0.087890625-0.052734375t0.064453125-0.046875t0.05859375-0.08203125t0.029296875-0.10546875q0.08203125-0.234375,0.1171875-0.29296875q0-0.17578125,0.08203125-0.3515625t0.2109375-0.22265625q0.140625-0.0703125,0.66796875-0.1875q0.01171875,0,0.041015625-0.017578125t0.052734375-0.017578125q0.03515625,0,0.09375,0.05859375q0.0234375-0.01171875,0.111328125-0.052734375t0.134765625-0.052734375q0.08203125-0.1171875,0.1875-0.1171875l0.046875,0q0.10546875-0.0703125,0.22265625-0.1875q0.2109375-0.2109375,0.328125-0.57421875z M206.434625,33.4921875l0.046875-0.0234375z M206.4580625,34.67578125q0.52734375-0.36328125,1.5703125-1.130859375t1.5703125-1.130859375q-1.0078125,0.5625-1.921875,1.171875q-0.01171875,0.01171875-1.0546875,0.6796875q-0.1875,0.12890625-0.1875,0.1875q0,0.01171875,0.01171875,0.08203125t0.01171875,0.140625z M207.85259375,33.10546875l0.1640625-0.09375l-0.38671875,0.22265625q0.08203125-0.03515625,0.22265625-0.12890625q0.140625-0.08203125,0.544921875-0.298828125t0.6796875-0.392578125t0.498046875-0.38671875q-0.19921875,0.0703125-0.41015625,0.1875t-0.474609375,0.28125t-0.380859375,0.234375q-0.46875,0.26953125-1.04296875,0.66796875q-0.0234375,0.01171875-0.2578125,0.158203125t-0.421875,0.275390625t-0.17578125,0.1640625q0.08203125-0.0703125,1.44140625-0.890625z M206.5049375,31.79296875l0.0234375,0l0-0.0234375l-0.0234375,0.0234375l0.0234375,0q0.046875,0,0.1640625-0.1171875q0.29296875-0.2109375,0.52734375-0.41015625q0.28125-0.19921875,0.8203125-0.62109375t0.8203125-0.6328125q0.2578125-0.19921875,0.7265625-0.5625t0.85546875-0.662109375t0.73828125-0.568359375q-0.17578125-0.1171875-1.265625,0.66796875q-1.04296875,0.65625-1.828125,1.21875q-0.140625,0.09375-0.556640625,0.380859375t-0.662109375,0.439453125q-0.17578125,0.1171875-0.31640625,0.1171875l-0.046875,0q0.0234375,0.09375,0.0234375,0.36328125t-0.0234375,0.38671875z M210.4893125,28.171875q-0.046875-0.01171875-0.181640625,0.087890625t-0.3046875,0.251953125t-0.181640625,0.1640625q0.78515625-0.48046875,0.83203125-0.50390625l-0.0234375,0l-0.09375,0l-0.046875,0z M209.5986875,28.4296875l-0.234375,0.140625l0.2578125-0.1640625l-0.0234375,0.0234375q-0.59765625,0.375-2.66015625,1.69921875q-0.0234375,0.0234375-0.169921875,0.1171875t-0.287109375,0.1875t-0.140625,0.10546875q0.0234375,0.046875,0.0703125,0.158203125t0.0703125,0.158203125q0.234375-0.22265625,0.521484375-0.439453125t0.708984375-0.509765625t0.5625-0.3984375q0.08203125-0.05859375,0.791015625-0.57421875t1.060546875-0.78515625q-0.10546875,0-0.52734375,0.28125z M206.4580625,35.73046875l0,0.0703125q0.29296875-0.234375,1.01953125-0.791015625t1.236328125-0.978515625t0.931640625-0.8671875q-0.33984375,0.1875-1.025390625,0.580078125t-1.037109375,0.591796875q-0.41015625,0.22265625-1.0078125,0.59765625q-0.1171875,0.05859375-0.1171875,0.33984375l0,0.3046875l0,0.15234375z M209.91509375,33.2109375l-0.15234375,0.1640625q0.15234375-0.140625,0.15234375-0.1640625q-0.3046875,0.36328125-0.673828125,0.685546875t-0.97265625,0.791015625t-0.755859375,0.5859375q0.19921875-0.1171875,0.76171875-0.4453125t0.8671875-0.515625q0.59765625-0.328125,0.6796875-0.38671875q0.09375-0.03515625,0.09375-0.71484375z M209.98540625,32.53125q-0.0234375-0.0234375-0.0234375-0.09375q-0.3046875,0.234375-0.94921875,0.69140625t-0.94921875,0.6796875q0.87890625-0.515625,1.125-0.64453125q0.03515625-0.0234375,0.275390625-0.146484375t0.380859375-0.240234375t0.140625-0.24609375z M209.93853125,31.5q-0.9609375,0.55078125-1.0546875,0.59765625l0.15234375-0.08203125q0.1640625-0.0703125,0.369140625-0.146484375t0.333984375-0.076171875q0.17578125,0,0.17578125,0.1171875q0,0.01171875-0.01171875,0.046875t-0.01171875,0.046875q0.0703125-0.03515625,0.0703125-0.140625q0-0.046875-0.01171875-0.15234375t-0.01171875-0.140625l0-0.0703125z M211.93071875,28.171875l-0.09375,0q-0.22265625,0-0.5859375,0.2578125q-0.31640625,0.26953125-1.0546875,0.8203125q-0.3046875,0.24609375-0.87890625,0.685546875t-0.75,0.580078125q2.0625-1.30078125,3.046875-1.79296875q0.41015625-0.19921875,0.59765625-0.24609375q0.0703125-0.0234375,0.0703125-0.0703125l0-0.09375q-0.01171875-0.03515625-0.03515625-0.064453125t-0.05859375-0.041015625t-0.064453125-0.017578125t-0.09375-0.01171875t-0.099609375-0.005859375z M209.4815,28.2421875l-0.24609375,0.140625q0.05859375-0.046875,0.24609375-0.140625q-0.046875,0.0234375-0.1171875,0.0234375t-0.1640625-0.01171875t-0.12890625-0.01171875l-0.0703125,0q-0.046875,0.01171875-0.1171875,0.0234375t-0.10546875,0.0234375t-0.087890625,0.041015625t-0.123046875,0.076171875q-0.24609375,0.17578125-1.0078125,0.7734375q-1.08984375,0.8671875-1.34765625,1.125l0.0234375,0.0234375q0.4921875-0.3046875,1.576171875-1.01953125t1.669921875-1.06640625z M204.5830625,28.21875q-0.1171875,0.0234375-0.439453125,0.1875t-0.322265625,0.24609375q0.1171875,0.234375,0.1171875,0.55078125l0,0.046875q0.12890625-0.2109375,0.369140625-0.591796875t0.275390625-0.439453125z M205.20415625,28.171875q-0.17578125-0.01171875-0.29296875,0.052734375t-0.15234375,0.1171875t-0.15234375,0.251953125q-0.3046875,0.515625-0.45703125,0.7265625q0.09375-0.05859375,0.791015625-0.451171875t1.060546875-0.626953125l-0.09375,0q-0.1171875,0-0.357421875-0.03515625t-0.345703125-0.03515625z M206.93853125,29.3671875l-0.26953125,0.1875q0.01171875,0,0.26953125-0.1875q-0.046875,0.03515625-0.375,0.251953125t-0.515625,0.322265625l0.0703125,0.140625q0.4453125-0.4453125,0.8203125-0.71484375z M206.434625,36.28125l0-0.0234375l0,0.0234375q-0.01171875-0.03515625,0.234375-0.1640625t0.52734375-0.26953125t0.31640625-0.1640625q0.2109375-0.10546875,0.609375-0.3515625t0.46875-0.28125q0.8203125-0.52734375,1.0546875-0.76171875q-0.28125,0.17578125-0.84375,0.498046875t-0.83203125,0.486328125q-0.1875,0.10546875-0.556640625,0.322265625t-0.568359375,0.322265625q-0.046875,0.0234375-0.134765625,0.0703125t-0.12890625,0.076171875t-0.087890625,0.087890625t-0.05859375,0.12890625z M207.70025,35.96484375q-0.76171875,0.45703125-0.984375,0.57421875q-0.0234375,0.01171875-0.076171875,0.041015625t-0.0703125,0.041015625t-0.052734375,0.029296875t-0.041015625,0.03515625t-0.017578125,0.041015625t-0.017578125,0.046875t-0.005859375,0.05859375l0,0.09375q0.234375-0.1875,0.662109375-0.509765625t0.603515625-0.451171875z M206.4111875,40.546875q0,0.01171875,0.216796875-0.123046875t0.451171875-0.29296875t0.29296875-0.205078125q0.1875-0.1171875,0.5625-0.369140625t0.5625-0.369140625q0.0234375-0.0234375,0.416015625-0.28125t0.703125-0.50390625t0.275390625-0.328125q-0.33984375,0.19921875-1.03125,0.59765625t-1.03125,0.609375q-1.1953125,0.69140625-1.25390625,0.71484375q-0.2109375,0.1171875-0.2109375,0.24609375q0,0.0234375,0.046875,0.3046875z M204.3018125,42.3984375l0.0234375,0l-0.0234375,0q-0.03515625,0-0.15234375-0.0234375t-0.1640625-0.0234375q-0.1171875,0-0.140625,0.0703125q0.0234375,0.0703125,0.0234375,0.41015625q0,0.1875-0.0234375,0.2578125q0.17578125-0.08203125,0.3515625-0.19921875t0.392578125-0.263671875t0.333984375-0.228515625l-0.41015625,0l-0.2109375,0z M204.05571875,43.65234375q0.01171875,0,0.046875-0.017578125t0.046875-0.017578125q0.03515625,0,0.09375,0.017578125t0.08203125,0.017578125q0.05859375,0,0.140625-0.08203125q0.09375-0.1171875,0.3046875-0.328125q0.328125-0.328125,1.25390625-1.0546875q1.3125-1.0078125,3.76171875-2.671875q-0.1640625,0.03515625-0.33984375,0.123046875t-0.26953125,0.15234375t-0.298828125,0.228515625t-0.263671875,0.19921875q-0.890625,0.5859375-0.9375,0.62109375q-0.12890625,0.08203125-0.65625,0.404296875t-0.80859375,0.533203125q-0.03515625,0.17578125-0.134765625,0.24609375t-0.26953125,0.111328125t-0.263671875,0.099609375q-0.0234375,0.10546875-0.111328125,0.17578125t-0.205078125,0.05859375q-0.09375,0.05859375-0.287109375,0.193359375t-0.287109375,0.193359375q-0.5390625,0.375-0.78515625,0.50390625q0,0.2109375-0.0234375,0.2578125q0,0.08203125,0.0703125,0.08203125q0.0234375,0,0.076171875-0.0234375t0.064453125-0.0234375z M210.4893125,42.80859375l-0.1875,0.1171875l0.2109375-0.140625l-0.0234375,0.0234375q-0.12890625,0.08203125-0.5859375,0.357421875t-0.69140625,0.427734375q0.17578125,0.05859375,0.19921875,0.05859375t0.0703125-0.017578125t0.0703125-0.017578125q0.05859375,0,0.09375,0.0234375l0.046875,0.01171875q0.046875,0,0.12890625-0.08203125q0.0234375-0.01171875,0.328125-0.2578125q0.69140625-0.6328125,0.8671875-0.84375q-0.41015625,0.2578125-0.52734375,0.33984375z M211.6611875,42.83203125l-0.2109375,0.1171875q0.05859375,0,0.2109375-0.1171875q-0.83203125,0.4453125-1.44140625,0.8671875l0.10546875,0q0.08203125,0,0.158203125-0.0234375t0.111328125-0.041015625t0.140625-0.099609375t0.140625-0.10546875q0.12890625-0.09375,0.38671875-0.298828125t0.3984375-0.298828125z M212.04790625,43.59375l0.140625,0q-0.0234375-0.09375-0.0234375-0.3046875l0-0.1171875q-0.24609375,0.1171875-0.57421875,0.328125q0.05859375,0.01171875,0.2109375,0.046875t0.24609375,0.046875z M231.872984375,42.1875q0.0234375,0.0234375,0.0234375,0.0703125q0,0.09375-0.140625,0.234375q-0.09375,0.09375-0.09375,0.140625l0,0.10546875q0.0234375,0.046875,0.0234375,0.1875t-0.0234375,0.1875l0,0.10546875l0,0.28125l0,0.1171875q0,0.234375-0.15234375,0.38671875q-0.10546875,0.17578125-0.375,0.17578125l-0.0703125,0q-0.0234375,0.01171875-0.1171875,0.076171875t-0.15234375,0.064453125t-0.099609375-0.046875t-0.111328125-0.046875q-0.17578125,0-0.43359375-0.12890625l-0.09375,0l-0.24609375,0q-0.046875,0.046875-0.134765625,0.076171875t-0.205078125,0.046875t-0.1640625,0.029296875l-0.1171875,0q-0.1875,0-0.36328125-0.0703125l-0.1171875,0q-0.26953125,0-0.31640625-0.0234375l-0.0703125,0q-0.046875,0-0.1640625-0.05859375q-0.1171875,0.05859375-0.12890625,0.05859375q-0.0234375,0-0.052734375-0.017578125t-0.041015625-0.017578125l-0.1171875,0l-0.2109375,0l-0.0234375,0q-0.01171875,0-0.05859375,0.017578125t-0.0703125,0.017578125l-0.1171875,0q-0.234375,0-0.41015625-0.05859375q-0.1640625,0.08203125-0.3515625,0.08203125q-0.08203125,0-0.10546875-0.0234375q-0.0234375-0.08203125-0.1171875-0.08203125l-0.09375,0q-0.09375,0-0.140625-0.046875q-0.09375,0.046875-0.17578125,0.046875q-0.0703125,0-0.140625,0.05859375t-0.1171875,0.0703125q-0.1171875,0.0703125-0.41015625,0.0703125q-0.26953125,0-0.41015625-0.09375q-0.0234375,0-0.099609375,0.01171875t-0.111328125,0.01171875t-0.111328125-0.01171875t-0.111328125-0.01171875q-0.15234375-0.03515625-0.251953125-0.17578125t-0.099609375-0.3046875q0-0.12890625,0.0234375-0.17578125q-0.0234375-0.09375-0.0234375-0.3515625q0-0.29296875,0.0234375-0.38671875q-0.08203125-0.22265625-0.08203125-0.703125q-0.01171875-0.31640625,0.10546875-0.421875t0.328125-0.10546875q0.08203125,0,0.251953125,0.01171875t0.251953125,0.01171875q0.421875,0,0.52734375-0.3046875l0-0.046875q0-0.1640625,0.10546875-0.31640625q0-0.22265625,0.046875-0.36328125q-0.0234375-0.0703125-0.0234375-0.234375l0-0.31640625l0-0.140625q-0.140625,0.046875-0.17578125,0.046875q-0.09375,0-0.09375-0.1171875q0-0.140625,0.1171875-0.29296875q0.0703125-0.10546875,0.0703125-0.2109375q0-0.046875-0.01171875-0.146484375t-0.01171875-0.146484375q0-0.1171875,0.0234375-0.1640625q0.01171875-0.1875,0.052734375-0.52734375t0.052734375-0.50390625q0-0.0703125,0.01171875-0.228515625t0.01171875-0.228515625q-0.046875-0.28125-0.046875-0.48046875q-0.0234375-0.046875-0.0234375-0.24609375l0-0.046875q0-0.046875-0.05859375-0.046875l-0.0234375,0q-0.09375-0.03515625-0.09375-0.140625q0.01171875-0.046875,0.08203125-0.09375t0.0703125-0.09375l0-0.12890625l0-0.1875l0-0.09375q-0.0234375-0.09375-0.1171875-0.357421875t-0.10546875-0.392578125q-0.05859375-0.09375-0.2578125-0.2578125q-0.046875-0.0234375-0.09375-0.05859375t-0.087890625-0.046875t-0.111328125-0.01171875q-0.03515625,0-0.10546875,0.01171875t-0.10546875,0.01171875q-0.08203125,0-0.10546875-0.0234375q-0.03515625-0.01171875-0.158203125-0.0234375t-0.193359375-0.03515625q-0.01171875,0-0.03515625,0.01171875t-0.03515625,0.01171875q-0.05859375,0-0.10546875-0.046875q-0.10546875,0.09375-0.1875,0.12890625l-0.09375,0q-0.0234375,0-0.076171875-0.01171875t-0.076171875-0.01171875t-0.1640625,0.0703125q-0.0703125,0.10546875-0.33984375,0.375q-0.08203125,0.08203125-0.240234375,0.1875t-0.205078125,0.15234375q-0.08203125,0.05859375-0.099609375,0.08203125t-0.0234375,0.0703125t-0.052734375,0.1171875q0,0.0234375-0.1875,0.57421875q0.0234375-0.0234375,0.0703125-0.0234375q0.1171875,0,0.1171875,0.09375q0,0.01171875-0.01171875,0.03515625t-0.01171875,0.03515625q-0.01171875,0.046875-0.123046875,0.140625t-0.111328125,0.12890625q0.0234375,0.0703125,0.0234375,0.2578125l0,0.09375q0.0234375,0.046875,0.0234375,0.19921875q0,0.29296875-0.1171875,0.64453125q0.140625-0.09375,0.28125-0.09375l0.046875,0q0.1171875,0.03515625,0.1171875,0.09375q0,0.08203125-0.2578125,0.33984375q-0.1640625,0.10546875-0.1640625,0.234375q0,0.03515625,0.01171875,0.10546875t0.01171875,0.1171875q0.046875-0.0234375,0.09375-0.0234375q0.0703125,0,0.0703125,0.046875q0,0.05859375-0.0703125,0.17578125l-0.0703125,0.10546875q0.046875,0.1875,0.046875,0.38671875q0,0.09375-0.0234375,0.140625q0,0.01171875-0.01171875,0.03515625t-0.01171875,0.03515625q0,0.0234375,0.01171875,0.03515625t0.03515625,0.041015625t0.046875,0.052734375q0.0234375,0.046875,0.0234375,0.140625q0,0.12890625-0.0703125,0.234375t-0.0703125,0.17578125q0,0.046875,0.0234375,0.146484375t0.0234375,0.158203125q0.046875,0.08203125,0.1171875,0.609375q0.01171875,0.0234375,0.017578125,0.064453125t0.01171875,0.052734375t0.01171875,0.03515625t0.01171875,0.029296875t0.0234375,0.029296875t0.03515625,0.041015625l0.052734375,0.052734375q0.05859375,0,0.24609375,0.09375q0.046875,0.0234375,0.099609375,0.029296875t0.1171875,0.01171875t0.111328125,0.017578125q0.0703125-0.03515625,0.12890625-0.03515625t0.169921875,0.052734375t0.158203125,0.052734375l0.0234375,0q0.140625-0.046875,0.15234375-0.046875q0.046875,0,0.046875,0.0703125q0,0.05859375-0.05859375,0.19921875l-0.05859375,0.12890625q0.01171875,0.046875,0.0234375,0.1640625t0.0234375,0.17578125q0.0703125,0.2109375,0.0703125,0.55078125q0,0.2578125-0.0703125,0.43359375q-0.0703125,0.03515625-0.0703125,0.0703125q0,0.0234375,0.0234375,0.0234375q0.046875,0.09375,0.046875,0.1171875q0,0.05859375-0.046875,0.15234375l-0.05859375,0.1171875q-0.140625,0.1875-0.328125,0.1875q-0.0703125,0-0.09375-0.0234375l-0.0234375,0l-0.05859375,0q-0.046875,0-0.0703125,0.046875q0.046875,0.046875,0.046875,0.10546875q0,0.0703125-0.09375,0.1171875q-0.0703125,0.0703125-0.1171875,0.0703125q-0.09375,0-0.09375-0.140625q0-0.10546875,0.046875-0.19921875q-0.0234375,0-0.08203125,0.01171875t-0.08203125,0.01171875q-0.09375,0-0.275390625-0.0234375t-0.263671875-0.0234375q-0.22265625,0.22265625-0.3984375,0.22265625q-0.0703125-0.0234375-0.0703125-0.0703125l0-0.0234375q-0.05859375,0-0.10546875,0.0234375q-0.0234375,0-0.1171875,0.01171875t-0.140625,0.01171875q-0.17578125,0-0.26953125-0.046875q-0.0234375,0.0234375-0.09375,0.0234375q-0.03515625,0-0.10546875-0.029296875t-0.10546875-0.029296875t-0.0703125,0.03515625q-0.10546875,0.0703125-0.24609375,0.0703125q-0.08203125,0-0.275390625-0.03515625t-0.275390625-0.03515625q-0.0703125,0-0.240234375,0.099609375t-0.193359375,0.111328125q-0.0234375,0.0234375-0.2578125,0.0234375q-0.12890625,0-0.12890625-0.140625q-0.0234375,0.0234375-0.09375,0.0234375q-0.140625,0-0.140625-0.09375q0-0.01171875,0.01171875-0.041015625t0.01171875-0.041015625q-0.0234375,0-0.052734375-0.01171875t-0.041015625-0.01171875t-0.15234375,0.046875q-0.0234375,0-0.05859375,0.017578125t-0.05859375,0.017578125q-0.046875,0-0.15234375-0.029296875t-0.15234375-0.029296875q-0.08203125,0-0.12890625,0.0234375l-0.0703125,0q-0.0703125,0-0.140625-0.0703125q-0.140625,0.046875-0.24609375,0.046875l-0.046875,0q-0.046875,0-0.15234375,0.029296875t-0.15234375,0.029296875l-0.046875,0q-0.3984375,0-0.5625-0.10546875l-0.046875,0.0234375q-0.03515625,0-0.076171875-0.0234375t-0.064453125-0.0234375l-0.0234375,0q-0.01171875,0.01171875-0.064453125,0.046875t-0.099609375,0.046875q-0.12890625,0.12890625-0.24609375,0.12890625l-0.0234375,0q-0.09375-0.03515625-0.09375-0.09375t0.064453125-0.140625t0.140625-0.140625t0.158203125-0.1171875l0.0703125-0.05859375q-0.0703125-0.1875-0.0703125-0.7265625l0-0.140625l0-0.24609375q0-0.140625,0.0234375-0.2109375q-0.046875,0.046875-0.09375,0.046875t-0.099609375-0.041015625t-0.052734375-0.076171875q0-0.0703125,0.046875-0.09375q0.0234375-0.03515625,0.10546875-0.0703125t0.09375-0.10546875l0-0.0703125q0-0.19921875,0.134765625-0.31640625t0.322265625-0.1171875q0.140625,0,0.2109375,0.046875q0.046875,0,0.134765625,0.01171875t0.134765625,0.01171875l0.1875,0q0.1171875,0,0.234375-0.1171875q0.046875-0.046875,0.12890625-0.046875q0.0234375,0,0.0703125,0.0234375t0.0703125,0.0234375q0.046875,0,0.046875-0.1171875q0-0.22265625,0.09375-0.41015625q0.0234375-0.08203125,0.046875-0.2578125t0.0234375-0.19921875l0-0.046875q0-0.08203125,0.041015625-0.3046875t0.041015625-0.24609375q-0.12890625-0.45703125-0.12890625-0.66796875q0-0.0234375,0.01171875-0.076171875t0.01171875-0.076171875q0-0.03515625-0.01171875-0.140625t-0.01171875-0.1640625q0-0.0703125,0.01171875-0.17578125t0.01171875-0.1171875q-0.0234375-0.09375-0.0234375-0.41015625l0-0.421875l0-0.10546875l0-0.1640625q0-0.19921875,0.0703125-0.31640625q0-0.10546875-0.01171875-0.31640625t-0.01171875-0.3046875q-0.0703125-0.26953125-0.0703125-0.890625l0-0.45703125q-0.01171875-0.0234375-0.01171875-0.111328125t-0.017578125-0.146484375t-0.064453125-0.0703125q-0.0703125-0.01171875-0.12890625-0.087890625t-0.12890625-0.087890625q-0.515625-0.0703125-1.0078125-0.0703125q-0.19921875,0-0.3046875-0.28125t-0.10546875-0.6328125q0-0.2109375,0.046875-0.3515625q-0.1875,0.09375-0.24609375,0.09375q-0.09375,0-0.09375-0.1171875q0-0.09375,0.17578125-0.251953125t0.1875-0.228515625q-0.046875-0.140625-0.046875-0.29296875q0-0.45703125,0.28125-0.45703125l0.10546875,0q0.1875-0.046875,0.2578125-0.046875q0.17578125,0,0.26953125,0.1171875q0.234375-0.1171875,0.421875-0.1171875q0.01171875,0,0.041015625,0.01171875t0.041015625,0.01171875q0.0703125,0,0.140625,0.0703125q0.140625-0.140625,0.2578125-0.140625q0.10546875,0,0.31640625,0.0703125l0.046875,0q0.03515625,0,0.099609375,0.0234375t0.099609375,0.0234375q0.0234375-0.01171875,0.10546875-0.0234375t0.10546875-0.0234375q0.01171875,0,0.046875-0.01171875t0.046875-0.01171875q0.046875,0,0.140625,0.0234375t0.12890625,0.0234375q0.0234375,0,0.052734375-0.01171875t0.041015625-0.01171875q0.1875-0.046875,0.3046875-0.046875l0.08203125,0q0.046875-0.0234375,0.1171875-0.0234375q0.09375,0,0.1171875,0.0234375l0.09375,0.046875q0.0234375,0,0.064453125-0.029296875t0.087890625-0.041015625l0.09375,0q0.140625,0,0.55078125,0.1171875q0.03515625,0,0.099609375,0.01171875t0.087890625,0.01171875q0.03515625,0,0.111328125-0.01171875t0.111328125-0.01171875q0.046875-0.01171875,0.158203125-0.076171875t0.193359375-0.064453125t0.10546875,0.0234375q0.17578125-0.05859375,0.26953125,0.046875t0.111328125,0.228515625t0.017578125,0.322265625l0,0.17578125q0.01171875,0.03515625-0.017578125,0.2109375t-0.029296875,0.234375q0,0.12890625,0.046875,0.15234375q0.05859375-0.15234375,0.33984375-0.48046875q0.03515625-0.03515625,0.234375-0.15234375t0.22265625-0.1640625q0.0234375-0.05859375,0.10546875-0.140625t0.10546875-0.140625q0.08203125-0.1640625,0.22265625-0.26953125q0.10546875-0.0703125,0.1875-0.0703125q0.17578125,0,0.31640625,0.140625q0.1640625,0.1640625,0.1640625,0.36328125q0,0.09375-0.041015625,0.17578125t-0.12890625,0.1640625t-0.1640625,0.146484375t-0.2109375,0.140625t-0.205078125,0.111328125t-0.2109375,0.099609375t-0.1640625,0.076171875q-0.1875,0.08203125-0.1875,0.1640625l0,0.0703125q0,0.0703125-0.08203125,0.15234375q-0.05859375,0.09375-0.234375,0.19921875t-0.2109375,0.15234375q-0.0234375,0.05859375-0.099609375,0.09375t-0.099609375,0.05859375q-0.10546875,0.1640625-0.2109375,0.1875q-0.0234375,0.0234375-0.09375,0.0234375q-0.1875,0-0.22265625-0.140625q-0.1875,0.15234375-0.849609375,0.673828125t-1.001953125,0.814453125q0.90234375-0.62109375,2.033203125-1.27734375t1.962890625-1.08984375t2.15625-1.08984375q-0.046875-0.0234375-0.19921875-0.0234375q-0.05859375,0-0.1875,0.01171875t-0.1875,0.01171875l-0.10546875,0q-0.046875,0-0.123046875,0.046875t-0.111328125,0.046875q-0.0703125,0-0.1171875-0.046875q-0.17578125-0.046875-0.17578125-0.19921875q0-0.0703125,0.0234375-0.09375q0.3046875-0.375,0.6328125-0.375l0.1171875,0l0.2578125,0q0.19921875,0,0.29296875,0.0234375q0.24609375,0,0.38671875,0.046875l0.09375,0l0.1640625,0q0.08203125,0,0.29296875,0.041015625t0.2578125,0.076171875q0.10546875,0.05859375,0.43359375,0.1171875q0.05859375,0.0234375,0.193359375,0.10546875t0.216796875,0.09375q0.09375,0,0.2109375,0.064453125t0.251953125,0.1640625t0.181640625,0.123046875q0.19921875,0.09375,0.33984375,0.33984375q0.046875,0.08203125,0.169921875,0.228515625t0.169921875,0.228515625q0.046875,0.0703125,0.15234375,0.216796875t0.15234375,0.216796875q0.17578125,0.24609375,0.17578125,0.59765625q0,0.05859375-0.01171875,0.1640625t-0.01171875,0.15234375q0.26953125-0.17578125,0.328125-0.17578125q0.08203125,0,0.1171875,0.1171875l0,0.05859375q0,0.12890625-0.0703125,0.234375q-0.01171875,0.0234375-0.087890625,0.10546875t-0.134765625,0.158203125t-0.05859375,0.123046875q0.046875,0.09375,0.046875,0.2109375q0,0.10546875-0.046875,0.24609375q0.0234375,0.2109375,0.0234375,0.66796875q0.046875,0.1640625,0.046875,0.64453125q0,0.4921875-0.046875,0.6328125q0.046875,0.234375,0.046875,0.421875l0,0.10546875q0.046875,0.234375,0.046875,0.421875l0,0.15234375q0.01171875,0.05859375,0.01171875,0.1171875q0,0.03515625,0.0703125,0.03515625q0.046875,0.01171875,0.08203125,0.01171875q0.12890625,0.046875,0.12890625,0.1640625q0,0.10546875-0.12890625,0.10546875q-0.09375-0.01171875-0.12890625,0.017578125t-0.03515625,0.076171875t-0.005859375,0.12890625t-0.041015625,0.15234375l0,0.08203125l0,0.046875l0.0703125,0.09375q0.0234375,0.0234375,0.0234375,0.0703125q0,0.03515625-0.03515625,0.0703125t-0.087890625,0.0703125t-0.064453125,0.046875l0,0.45703125l0,0.22265625q0.01171875,0.0234375,0.0703125,0.2109375t0.0703125,0.26953125q0.0703125,0.140625,0.111328125,0.169921875t0.205078125,0.064453125q0.1171875,0.046875,0.50390625,0.09375q0.10546875,0.0234375,0.333984375,0.029296875t0.357421875,0.041015625q0.09375-0.01171875,0.15234375,0.0234375t0.087890625,0.1171875t0.041015625,0.134765625t0.0234375,0.17578125t0.01171875,0.134765625l0.1640625-0.08203125q0.05859375,0,0.09375,0.05859375z M230.478453125,43.546875l0-0.0234375l0,0.0234375q0.10546875-0.0703125,0.15234375-0.2109375q-0.1640625,0.12890625-0.29296875,0.1875l0.0703125,0q0.046875,0,0.0703125,0.0234375z M231.111265625,43.04296875l-0.0234375-0.046875q-0.0234375,0-0.12890625,0.19921875l-0.052734375,0.10546875t-0.064453125,0.123046875t-0.046875,0.099609375q0.03515625-0.01171875,0.1171875-0.0234375t0.123046875-0.046875t0.052734375-0.1171875q0-0.22265625,0.0234375-0.29296875z M230.337828125,42.12890625q-0.1171875,0.0234375-0.31640625,0.22265625q-0.17578125,0.2109375-0.3515625,0.45703125q-0.31640625,0.3515625-0.55078125,0.69140625q0.375,0,0.57421875-0.1171875q0.33984375-0.1875,1.125-0.69140625q0.03515625-0.01171875,0.09375-0.046875t0.0703125-0.041015625t0.046875-0.03515625t0.041015625-0.052734375t0.01171875-0.064453125t0.005859375-0.099609375l0-0.0703125q0-0.0234375-0.0234375-0.0234375q-0.05859375,0-0.41015625-0.0703125l-0.0703125,0q-0.0703125,0-0.24609375-0.05859375z M227.103453125,43.5234375l0.09375-0.0703125q-0.09375,0.046875-0.09375,0.0703125q0.24609375-0.12890625,0.4921875-0.26953125t0.533203125-0.33984375t0.439453125-0.310546875t0.50390625-0.375l0.4453125-0.333984375q-0.1640625-0.09375-0.2109375-0.41015625q-0.3984375,0.33984375-1.201171875,0.990234375t-1.201171875,0.978515625q0.0234375,0.01171875,0.099609375,0.03515625t0.099609375,0.03515625z M229.622984375,42.1875l0.0234375-0.0234375l-0.0234375,0.0234375q-0.01171875,0.01171875-0.052734375,0.03515625t-0.052734375,0.03515625q0.29296875-0.17578125,0.38671875-0.22265625q-0.09375,0-0.28125,0.15234375z M229.119078125,40.4765625q0,0.01171875-0.4921875,0.345703125t-0.59765625,0.404296875q-0.5390625,0.38671875-1.21875,0.83203125q-1.0546875,0.6796875-1.41796875,1.078125q-0.19921875,0.22265625-0.328125,0.43359375l0.046875,0q0.0703125,0,0.33984375-0.099609375t0.3515625-0.087890625q0.05859375,0,0.15234375-0.046875t0.216796875-0.12890625t0.134765625-0.09375q0.65625-0.375,1.60546875-1.03125q0.12890625-0.08203125,0.41015625-0.263671875t0.41015625-0.263671875q0.01171875-0.01171875,0.10546875-0.064453125t0.17578125-0.10546875t0.15234375-0.111328125t0.0703125-0.09375q-0.140625-0.234375-0.140625-0.5625q0-0.0234375,0.01171875-0.0703125t0.01171875-0.0703125z M226.095640625,39.328125l0.375-0.22265625q-0.375,0.19921875-0.375,0.22265625q0.2578125-0.15234375,0.7265625-0.43359375t0.85546875-0.509765625t0.73828125-0.427734375q0.1171875-0.08203125,0.375-0.22265625t0.328125-0.1875q0.0703125-0.03515625,0.0703125-0.2578125q0-0.05859375-0.01171875-0.140625l-0.01171875-0.08203125q-1.078125,0.69140625-1.9453125,1.30078125q-0.046875,0.03515625-0.369140625,0.240234375t-0.5390625,0.392578125t-0.216796875,0.328125z M229.048765625,37.98046875l0.0234375,0l-0.0234375,0q0.1171875-0.140625,0.1171875-0.1640625q-0.0703125,0.046875-0.328125,0.216796875t-0.375,0.263671875q0.0234375-0.01171875,0.158203125-0.111328125t0.24609375-0.158203125t0.181640625-0.046875z M226.095640625,38.87109375l0,0.046875q0.08203125-0.05859375,0.240234375-0.181640625t0.240234375-0.181640625q-0.01171875,0-0.140625,0.087890625t-0.19921875,0.087890625q-0.08203125,0-0.1171875-0.0703125q0,0.03515625-0.01171875,0.10546875t-0.01171875,0.10546875z M226.517515625,38.3203125q0.2578125-0.15234375,0.779296875-0.451171875t0.791015625-0.462890625q0.140625-0.08203125,0.421875-0.251953125t0.43359375-0.251953125q0.01171875-0.01171875,0.052734375-0.0234375t0.064453125-0.0234375t0.03515625-0.0234375q0.0703125-0.0234375,0.0703125-0.1171875l0-0.12890625l0-0.09375q-0.3984375,0.3515625-1.32421875,0.9140625t-1.32421875,0.9140625z M229.119078125,35.75390625l-0.046875,0.0703125q0.046875-0.046875,0.046875-0.0703125q-0.17578125,0.17578125-0.55078125,0.45703125q0.03515625-0.0234375,0.216796875-0.10546875t0.26953125-0.1640625t0.064453125-0.1875z M229.142515625,36.1640625l-0.17578125,0.0703125l0.17578125-0.0703125q-0.515625,0.24609375-1.921875,1.171875q-0.1640625,0.09375-0.486328125,0.298828125t-0.498046875,0.298828125q-0.1171875,0.05859375-0.1171875,0.31640625q0,0.03515625,0.01171875,0.099609375t0.01171875,0.087890625q0.09375-0.22265625,0.287109375-0.392578125t0.603515625-0.416015625l0.421875-0.24609375q0.78515625-0.50390625,1.11328125-0.75q0.140625-0.0703125,0.36328125-0.234375t0.2109375-0.234375z M226.165953125,40.4296875l0.1171875-0.1171875l-0.1171875,0.1171875q0.3046875-0.3046875,1.03125-0.9375q-0.64453125,0.36328125-0.890625,0.43359375q-0.140625,0.0234375-0.140625,0.1875l0,0.19921875l0,0.1171875z M226.189390625,40.86328125q0,0.01171875,0.251953125-0.15234375t0.345703125-0.234375q0.1171875-0.08203125,0.345703125-0.240234375t0.345703125-0.240234375q0.890625-0.5859375,1.25390625-0.76171875q0.03515625-0.01171875,0.181640625-0.0703125t0.240234375-0.1171875t0.10546875-0.10546875q-0.01171875-0.08203125-0.017578125-0.357421875t-0.029296875-0.404296875q-0.97265625,0.6796875-1.96875,1.55859375q-0.046875,0.03515625-0.36328125,0.287109375t-0.4921875,0.451171875t-0.19921875,0.38671875z M229.622984375,34.95703125l0-0.0234375l0,0.0234375q0.01171875-0.01171875,0.041015625-0.052734375t0.052734375-0.064453125q-0.0234375,0.0234375-0.05859375,0.03515625t-0.046875,0.017578125t-0.01171875,0.017578125t0.01171875,0.0234375t0.01171875,0.0234375z M226.494078125,36.515625q0.26953125-0.140625,0.26953125-0.1875q-0.08203125,0-0.26953125,0.1875q0.5390625-0.2578125,1.6875-0.9609375q0.03515625-0.0234375,0.2109375-0.123046875t0.310546875-0.17578125t0.251953125-0.17578125t0.1171875-0.169921875q-0.05859375-0.29296875-0.05859375-0.38671875q-0.12890625,0.09375-0.626953125,0.43359375t-0.720703125,0.50390625t-0.57421875,0.46875t-0.59765625,0.5859375z M228.966734375,33.97265625q-0.01171875-0.01171875-0.234375-0.3046875q-0.45703125,0.4921875-2.015625,1.83984375q1.60546875-0.97265625,1.79296875-1.078125q0.046875-0.01171875,0.146484375-0.064453125t0.193359375-0.08203125t0.1640625-0.017578125q0-0.17578125-0.046875-0.29296875z M228.205015625,33.01171875q-0.0234375-0.0234375-0.046875-0.0234375q0.0234375,0.0234375,0.0234375,0.1171875q0,0.1875-0.33984375,0.45703125q0.4921875-0.24609375,0.59765625-0.28125q-0.17578125-0.234375-0.234375-0.26953125z M227.455015625,32.6015625q-0.0703125-0.01171875-0.15234375-0.052734375t-0.12890625-0.041015625q-0.05859375,0-0.15234375,0.046875q-0.046875,0.03515625-0.064453125,0.05859375t-0.017578125,0.046875t-0.005859375,0.05859375t-0.029296875,0.08203125q-0.09375,0.2109375-0.24609375,0.427734375t-0.375,0.48046875t-0.31640625,0.404296875q0.1875-0.10546875,0.55078125-0.322265625t0.5390625-0.322265625q0.3515625-0.17578125,0.66796875-0.38671875q0.0234375-0.01171875,0.099609375-0.05859375t0.134765625-0.076171875t0.10546875-0.029296875q-0.01171875-0.01171875-0.24609375-0.15234375t-0.36328125-0.1640625z M225.826109375,34.79296875l0.0703125-0.0703125l-0.0703125,0.0703125q0.24609375-0.2109375,0.9140625-0.673828125t0.984375-0.767578125q-0.99609375,0.5859375-1.078125,0.62109375q-0.01171875,0-0.38671875,0.251953125t-0.57421875,0.298828125q0.01171875,0.01171875,0.140625,0.26953125z M221.583921875,35.89453125l0.0234375-0.0234375l-0.0234375,0.0234375q0.08203125-0.05859375,0.140625-0.12890625t0.076171875-0.123046875l0.052734375-0.158203125t0.05859375-0.1640625q-1.3359375,0.75-2.0625,1.21875q-0.17578125,0.10546875-0.5390625,0.328125t-0.5390625,0.328125q-0.1640625,0.10546875-0.216796875,0.2109375t-0.052734375,0.31640625q0.83203125-0.64453125,1.6640625-1.20703125q0.046875-0.03515625,0.333984375-0.234375t0.509765625-0.3046875t0.421875-0.10546875q0.10546875,0,0.15234375,0.0234375z M221.408140625,33.10546875l-0.328125,0.29296875q0.328125-0.26953125,0.328125-0.29296875q-2.0859375,1.8046875-2.296875,1.9921875q0.28125-0.1640625,0.80859375-0.462890625t0.6796875-0.392578125q0.52734375-0.29296875,0.66796875-0.38671875q0.05859375-0.03515625,0.087890625-0.17578125t0.041015625-0.33984375t0.01171875-0.234375z M219.966734375,34.04296875l-0.1875,0.17578125q0.046875-0.05859375,0.1875-0.17578125q0.10546875-0.10546875,0.24609375-0.2109375q-1.125,0.703125-1.55859375,0.890625q-0.22265625,0.0703125-0.22265625,0.1171875q0.0234375,0.08203125,0.046875,0.287109375t0.0234375,0.240234375q0.15234375-0.1640625,0.3515625-0.357421875t0.33984375-0.31640625t0.404296875-0.33984375t0.369140625-0.310546875z M218.583921875,36.92578125l0.0234375-0.0234375l-0.0234375,0.0234375q0.0234375,0,0.0234375,0.046875q0,0.0234375-0.0234375,0.046875q0.0703125-0.046875,0.263671875-0.15234375t0.287109375-0.17578125q-0.140625,0.046875-0.29296875,0.046875q-0.0703125,0-0.2109375-0.046875q-0.046875,0.046875-0.046875,0.09375l0,0.09375l0,0.046875z M218.525328125,39.10546875l0.31640625-0.234375q-0.31640625,0.2109375-0.31640625,0.234375q1.4765625-1.06640625,2.33203125-1.69921875q-1.60546875,0.9609375-1.9453125,1.1484375q-0.03515625,0.01171875-0.158203125,0.076171875t-0.193359375,0.076171875q-0.05859375,0.03515625-0.05859375,0.140625q0,0.05859375,0.01171875,0.15234375t0.01171875,0.10546875z M218.501890625,38.34375l0.0234375-0.0234375q-0.0234375,0-0.0234375,0.0234375q0.3515625-0.26953125,1.341796875-0.92578125t1.470703125-1.06640625q-1.078125,0.6796875-2.1796875,1.30078125q-0.0234375,0.01171875-0.52734375,0.3046875q-0.10546875,0.05859375-0.10546875,0.19921875l0,0.1875z M220.353453125,36.66796875q0.0234375-0.0234375,0.052734375-0.041015625t0.041015625-0.029296875t0.0234375-0.01171875q-0.046875,0.03515625-0.1171875,0.08203125q0.0703125-0.03515625,0.205078125-0.123046875t0.205078125-0.123046875q-0.0703125,0.03515625-0.205078125,0.123046875t-0.205078125,0.123046875z M226.119078125,32.3671875l0.0234375,0l-0.0234375,0q-0.09375-0.01171875-0.19921875,0.041015625t-0.234375,0.158203125t-0.17578125,0.140625q-0.1171875,0.09375-1.55859375,1.1484375q0.43359375-0.26953125,2.71875-1.46484375q-0.140625-0.046875-0.24609375-0.046875q-0.046875,0-0.146484375,0.01171875t-0.158203125,0.01171875z M224.794859375,32.94140625l-0.9609375,0.52734375q0,0.01171875,0.169921875-0.0703125t0.41015625-0.216796875t0.380859375-0.240234375q-0.15234375,0.08203125-0.984375,0.515625t-1.095703125,0.57421875t-0.9609375,0.52734375t-1.072265625,0.626953125t-0.896484375,0.59765625t-0.943359375,0.708984375q0.19921875,0,0.416015625-0.052734375t0.486328125-0.1875l0.3984375-0.19921875t0.451171875-0.26953125t0.357421875-0.228515625q0.41015625-0.24609375,1.11328125-0.69140625q0.08203125-0.05859375,0.234375-0.181640625t0.234375-0.181640625q0.046875-0.2109375,0.19921875-0.2109375q0.09375-0.046875,0.1171875-0.046875t0.052734375,0.01171875t0.041015625,0.01171875q0.2109375-0.140625,0.24609375-0.17578125q0.52734375-0.3515625,0.62109375-0.421875q0.1640625-0.1171875,0.486328125-0.36328125t0.498046875-0.36328125z M220.212828125,34.83984375l0.0234375-0.0234375q0.0234375,0-0.22265625,0.1640625q0.05859375-0.0234375,0.19921875-0.140625q0.15234375-0.10546875,0.45703125-0.36328125q-0.234375,0.140625-0.71484375,0.41015625t-0.7265625,0.41015625q-0.10546875,0.0703125-0.333984375,0.205078125t-0.333984375,0.205078125q-0.05859375,0.03515625-0.05859375,0.1875q0,0.08203125,0.01171875,0.234375t0.01171875,0.17578125q0.1640625-0.19921875,0.3984375-0.421875t0.3984375-0.3515625t0.474609375-0.369140625t0.416015625-0.322265625z M218.126890625,32.5546875l-0.0234375,0l0.0234375,0q-0.03515625,0.0234375-0.169921875,0.046875t-0.193359375,0.10546875q-0.234375,0.3515625-0.26953125,0.421875q-0.1875,0.2578125-0.48046875,0.75q0.2578125-0.140625,1.072265625-0.568359375t1.236328125-0.685546875q-0.234375,0.05859375-0.43359375,0.05859375q-0.1171875,0-0.1640625-0.0234375q-0.09375,0-0.298828125-0.052734375t-0.298828125-0.052734375z M216.802671875,32.625l-0.046875-0.0234375l-0.0234375,0q0.0234375,0.03515625,0.0234375,0.05859375q0.0234375-0.03515625,0.046875-0.03515625z M216.755796875,33.87890625q0.01171875,0,0.052734375-0.052734375t0.099609375-0.140625t0.123046875-0.19921875t0.134765625-0.234375t0.123046875-0.22265625t0.099609375-0.17578125t0.05859375-0.099609375q-0.46875,0.29296875-0.57421875,0.3515625q-0.05859375,0.0234375-0.08203125,0.052734375t-0.0234375,0.05859375t-0.005859375,0.087890625t-0.029296875,0.1171875l0,0.1171875q0,0.22265625,0.0234375,0.33984375z M217.599546875,34.01953125l0.09375-0.046875q-0.0234375,0-0.09375,0.046875q0.05859375,0,0.19921875,0.08203125t0.19921875,0.0703125q0.2109375,0,0.33984375,0.1640625q0.0234375,0.0234375,0.046875,0.0234375q0.05859375,0,0.26953125-0.140625q0.46875-0.26953125,1.30078125-0.873046875t0.92578125-0.662109375q-0.03515625-0.01171875-0.123046875-0.029296875t-0.15234375-0.03515625t-0.111328125-0.017578125q-0.234375,0-0.3046875-0.046875q-0.0703125-0.01171875-0.15234375,0.01171875t-0.12890625,0.046875t-0.15234375,0.087890625t-0.1171875,0.076171875q-0.46875,0.28125-2.0390625,1.2421875z M218.607359375,39.83203125q-0.01171875-0.046875,0.298828125-0.287109375t0.697265625-0.521484375l0.38671875-0.29296875q0.234375-0.17578125,0.703125-0.55078125t0.69140625-0.5625q-0.3515625,0.22265625-1.037109375,0.720703125t-1.048828125,0.720703125q-0.36328125,0.28125-0.64453125,0.38671875q-0.0703125,0.0234375-0.0703125,0.1171875q0,0.0234375,0.01171875,0.09375t0.01171875,0.12890625l0,0.046875z M221.630796875,37.11328125l-0.10546875,0.08203125l0.10546875-0.08203125q-0.5859375,0.45703125-0.6796875,0.5390625q0.05859375-0.046875,0.234375-0.15234375t0.3046875-0.205078125t0.140625-0.181640625z M221.525328125,38.4375l-0.3046875,0.1875q0.3046875-0.1640625,0.3046875-0.1875q-1.21875,0.7265625-1.74609375,1.0546875q-0.1875,0.10546875-0.533203125,0.31640625t-0.498046875,0.3046875q-0.09375,0.0703125-0.1171875,0.123046875t-0.046875,0.216796875q0.12890625-0.08203125,0.767578125-0.4921875t0.978515625-0.6328125q0.12890625-0.0703125,0.7734375-0.52734375q0.01171875-0.01171875,0.140625-0.087890625t0.205078125-0.146484375t0.076171875-0.12890625z M221.701109375,40.95703125l0,0.0234375l0-0.0234375q-0.01171875-0.0234375-0.48046875,0.240234375t-0.99609375,0.568359375t-0.5859375,0.33984375q-0.17578125,0.10546875-0.5390625,0.3046875t-0.591796875,0.328125t-0.533203125,0.328125t-0.52734375,0.38671875q0.234375,0.046875,0.41015625,0.046875q0.10546875,0,0.24609375-0.046875q0.1875-0.08203125,0.3984375-0.205078125t0.45703125-0.275390625t0.38671875-0.234375q1.1015625-0.7265625,1.67578125-1.11328125q0.0703125-0.046875,0.263671875-0.169921875t0.298828125-0.205078125q0.1171875-0.09375,0.1171875-0.12890625l0-0.1640625z M221.607359375,40.67578125l0.0234375,0l-0.0234375,0l0.046875,0q0-0.0234375-0.0234375-0.0234375z M221.607359375,39.421875l-0.10546875,0.0234375l0.10546875-0.0234375q-0.1640625,0.046875-0.3515625,0.134765625t-0.29296875,0.15234375t-0.328125,0.205078125t-0.28125,0.17578125q-1.25390625,0.80859375-1.34765625,0.8671875q-0.08203125,0.05859375-0.251953125,0.181640625t-0.251953125,0.181640625q-0.1171875,0.09375-0.1171875,0.140625l0,0.0703125l0,0.09375q1.32421875-0.87890625,2.40234375-1.4765625q0.26953125-0.15234375,0.64453125-0.31640625q0.17578125-0.10546875,0.17578125-0.41015625z M217.189390625,42.1875l-0.0234375,0l0.0234375,0.0234375l0.0234375,0q0-0.0234375-0.0234375-0.0234375q-0.05859375,0.0234375-0.234375,0.05859375t-0.26953125,0.10546875l0,0.140625l0,0.26953125q0.3984375-0.26953125,0.64453125-0.45703125q-0.046875-0.0234375-0.140625-0.1171875z M216.708921875,43.359375q0,0.0234375,0.046875,0.0234375l0.234375-0.1171875q0.2109375-0.15234375,0.31640625-0.19921875q0.5390625-0.328125,0.75-0.43359375q0.2578125-0.140625,0.7734375-0.43359375t0.76171875-0.4453125q0.05859375-0.046875,0.603515625-0.392578125t0.826171875-0.544921875q0.08203125-0.05859375,0.251953125-0.181640625t0.251953125-0.181640625q0.05859375-0.05859375,0.05859375-0.1171875q0-0.03515625-0.029296875-0.12890625t-0.029296875-0.140625l0-0.046875q-0.76171875,0.3515625-2.3671875,1.39453125q-0.64453125,0.3984375-1.640625,1.0546875q-0.6328125,0.421875-0.69140625,0.45703125q-0.140625,0.1171875-0.140625,0.22265625q0,0.03515625,0.01171875,0.099609375t0.01171875,0.111328125z M218.630796875,43.4296875l0.140625-0.0703125l-0.140625,0.0703125l0.1171875,0q0.33984375,0,0.38671875,0.0234375q0.09375,0.046875,0.1640625,0.046875l0.09375-0.046875q0.046875-0.05859375,0.1171875-0.12890625t0.158203125-0.15234375t0.134765625-0.12890625q0.36328125-0.33984375,1.0546875-1.03125q-1.734375,1.125-2.2265625,1.41796875z M223.142515625,42.80859375q0-0.046875-0.0234375-0.0703125q-0.28125,0.31640625-0.6328125,0.66796875q0.12890625-0.01171875,0.345703125-0.1171875t0.240234375-0.1171875q0.01171875-0.05859375,0.03515625-0.181640625t0.03515625-0.181640625z M222.755796875,42.78515625q-0.19921875,0.10546875-0.5859375,0.333984375t-0.5859375,0.333984375l0.2578125,0q0.29296875,0,0.41015625-0.1171875q0.328125-0.375,0.50390625-0.55078125z M222.228453125,42.01171875l-0.0234375,0l0.0234375,0q-0.36328125-0.05859375-0.45703125-0.55078125q-0.33984375,0.33984375-1.037109375,1.013671875t-1.048828125,1.001953125q0.66796875-0.43359375,1.265625-0.76171875q0.046875-0.0234375,0.369140625-0.2109375t0.603515625-0.345703125t0.3046875-0.146484375z M221.080015625,39.3046875q0.52734375-0.2578125,0.52734375-0.31640625q-0.10546875,0.05859375-0.29296875,0.169921875t-0.234375,0.146484375z M220.072203125,39.03515625l0.2578125-0.1640625l-0.2578125,0.1640625q0.6328125-0.38671875,1.171875-0.69140625q0.2578125-0.12890625,0.28125-0.22265625q-0.0234375-0.09375-0.0234375-0.3046875l-1.79296875,1.44140625q0.05859375-0.03515625,0.181640625-0.111328125t0.181640625-0.111328125z M219.251890625,38.09765625l0.31640625-0.1875q-0.22265625,0.1171875-0.31640625,0.1875q0.7734375-0.43359375,1.39453125-0.83203125q0.046875-0.0234375,0.216796875-0.10546875t0.287109375-0.146484375t0.240234375-0.158203125t0.169921875-0.205078125t0-0.228515625q-0.29296875,0.29296875-0.638671875,0.55078125t-0.943359375,0.650390625t-0.7265625,0.474609375z M225.415953125,34.359375l0.0234375,0l-0.0234375,0q0.046875,0,0.1171875,0.0703125l0-0.0234375q0-0.0703125,0.046875-0.158203125t0.123046875-0.1875t0.099609375-0.134765625q0.59765625-0.76171875,0.7734375-1.0078125q-1.078125,0.609375-1.8046875,1.0546875q0.375,0.15234375,0.64453125,0.38671875z M226.119078125,35.70703125l0-0.0234375l0,0.0234375l0,0.046875q1.83984375-1.6171875,2.49609375-2.28515625q-0.10546875-0.09375-0.73828125,0.31640625t-0.90234375,0.62109375q-0.05859375,0.03515625-0.310546875,0.193359375t-0.4921875,0.333984375t-0.228515625,0.22265625q0.01171875,0.03515625,0.064453125,0.158203125t0.087890625,0.228515625t0.0234375,0.1640625z M226.236265625,36.10546875l0.140625-0.09375q-0.0234375,0.0234375-0.140625,0.09375q-0.140625,0.0703125-0.140625,0.33984375q0,0.05859375,0.0234375,0.205078125t0.0234375,0.205078125q0.0234375,0.09375,0.0234375,0.29296875q0,0.328125,0.0234375,0.46875q1.37109375-0.9375,1.76953125-1.2421875q0.046875-0.03515625,0.234375-0.158203125t0.333984375-0.228515625t0.310546875-0.240234375t0.240234375-0.26953125t0.041015625-0.251953125q-1.4296875,0.9140625-2.19140625,1.3125q-0.46875,0.26953125-0.62109375,0.26953125q-0.140625-0.03515625-0.140625-0.140625q0-0.08203125,0.140625-0.29296875q0.1171875-0.140625,0.2578125-0.28125t0.322265625-0.287109375t0.298828125-0.234375t0.345703125-0.251953125t0.310546875-0.22265625q-0.38671875,0.22265625-1.60546875,1.0078125z M226.447203125,39.375q-0.0234375,0.01171875-0.111328125,0.052734375t-0.15234375,0.08203125t-0.064453125,0.076171875q0.234375-0.140625,0.328125-0.2109375z M225.615171875,42.01171875q-0.046875,0.046875-0.046875,0.0703125l0.0703125-0.0703125l0-0.0234375l-0.0234375,0.0234375q-0.31640625,0.31640625-0.5859375,0.31640625q-0.140625,0-0.234375-0.09375q-0.1640625,0.328125-0.1640625,0.59765625l0,0.140625q0.3984375-0.12890625,0.849609375-0.375t0.744140625-0.451171875t0.78515625-0.57421875t0.71484375-0.521484375q0.234375-0.15234375,0.69140625-0.4453125t0.6796875-0.45703125q0.01171875-0.05859375,0.017578125-0.2109375t0.017578125-0.263671875t0.05859375-0.205078125q-0.6796875,0.3984375-1.37109375,0.84375q-0.140625,0.09375-0.43359375,0.287109375t-0.43359375,0.287109375q-0.0234375,0.01171875-0.2109375,0.158203125t-0.36328125,0.2578125t-0.2578125,0.111328125q-0.0234375,0-0.0703125-0.046875q-0.046875,0.046875-0.05859375,0.19921875t-0.0703125,0.2109375q-0.0703125,0.1171875-0.3046875,0.234375z M224.771421875,43.5703125q0.10546875-0.0703125,0.298828125-0.328125t0.251953125-0.31640625q-0.43359375,0.22265625-0.55078125,0.24609375q-0.10546875,0.03515625-0.111328125,0.046875t-0.029296875,0.140625q0,0.03515625,0.005859375,0.08203125t0.01171875,0.05859375t0.03515625,0.03515625t0.087890625,0.03515625z M226.353453125,43.4765625l0.046875,0l0.0703125,0q0.08203125,0,0.12890625-0.046875q0.140625-0.140625,0.234375-0.1875q0.234375-0.234375,0.7734375-0.65625q-0.046875,0.03515625-0.591796875,0.369140625t-0.826171875,0.498046875q0.1171875,0,0.1640625,0.0234375z M228.638609375,43.546875l-0.0234375,0l0.0234375,0q0.03515625-0.01171875,0.1171875,0.0234375q0.046875,0,0.0703125-0.046875q0.03515625-0.046875,0.09375-0.140625t0.09375-0.140625q0.10546875-0.140625,0.31640625-0.3984375t0.31640625-0.3984375q-0.29296875,0.17578125-0.90234375,0.515625t-0.90234375,0.515625q0.03515625,0,0.1640625,0.01171875t0.15234375,0.01171875l0.1171875,0q0.26953125,0,0.36328125,0.046875z M246.88165625,39.08203125l0.0234375,0l-0.0234375,0q0.140625,0.03515625,0.140625,0.15234375q0,0.10546875-0.1171875,0.1875q-0.03515625,0.03515625-0.08203125,0.0703125t-0.064453125,0.05859375t-0.03515625,0.064453125t-0.017578125,0.099609375q0.09375-0.046875,0.1171875-0.046875q0.05859375,0,0.10546875,0.046875t0.046875,0.09375t-0.046875,0.140625t-0.33984375,0.38671875q0,0.09375-0.046875,0.1875q-0.15234375,0.26953125-0.24609375,0.6328125q-0.01171875,0.05859375-0.046875,0.111328125t-0.087890625,0.111328125t-0.076171875,0.08203125q-0.12890625,0.31640625-0.1875,0.36328125q-0.0234375,0.09375-0.24609375,0.3046875q-0.0234375,0.05859375-0.064453125,0.087890625t-0.099609375,0.046875t-0.09375,0.041015625q-0.046875,0.1171875-0.26953125,0.2109375q-0.0703125,0.0703125-0.0703125,0.17578125l0,0.0703125q-0.03515625,0.0703125-0.31640625,0.2578125q-0.15234375,0.09375-0.328125,0.369140625t-0.3046875,0.50390625t-0.357421875,0.380859375t-0.521484375,0.0703125q-0.05859375-0.01171875-0.22265625-0.140625t-0.2578125-0.10546875q-0.046875,0.01171875-0.146484375,0.064453125t-0.158203125,0.064453125q-0.12890625,0.1640625-0.50390625,0.1640625q-0.15234375,0-0.33984375-0.046875q-0.09375-0.09375-0.2109375-0.09375q-0.01171875,0-0.041015625,0.01171875t-0.041015625,0.01171875l-0.140625,0.0703125q-0.05859375,0-0.09375-0.0703125t-0.2109375-0.0703125l-0.26953125,0l-0.1171875,0q-0.0703125,0.046875-0.26953125,0.046875q-0.15234375,0-0.427734375-0.05859375t-0.357421875-0.0703125q-0.328125,0-0.52734375-0.1171875q-0.26953125,0.19921875-0.38671875,0.17578125q-0.1171875,0-0.1171875-0.10546875q0-0.0703125,0.09375-0.1640625q-0.1640625,0-0.55078125-0.234375q-0.515625-0.22265625-0.57421875-0.26953125q-0.01171875-0.01171875-0.1171875-0.052734375t-0.12890625-0.087890625q-0.01171875,0-0.03515625-0.01171875t-0.03515625-0.01171875q-0.0234375,0-0.111328125,0.03515625t-0.158203125,0.03515625q-0.10546875,0-0.1640625-0.09375l-0.140625,0.0703125q-0.08203125,0-0.1171875-0.1171875l0-0.0234375q0-0.05859375,0.05859375-0.15234375t0.05859375-0.140625q0-0.0234375-0.0234375-0.046875q-0.17578125-0.1171875-0.24609375-0.22265625l-0.140625-0.28125q-0.09375-0.1171875-0.1875-0.36328125q-0.01171875-0.0234375-0.041015625-0.0703125t-0.041015625-0.0703125q-0.10546875-0.17578125-0.140625-0.17578125q-0.01171875,0-0.029296875,0.017578125t-0.064453125,0.03515625t-0.09375,0.029296875q-0.09375,0.046875-0.22265625,0.046875q-0.140625,0-0.2109375-0.12890625q0-0.01171875-0.01171875-0.0234375t-0.01171875-0.0234375q0-0.05859375,0.08203125-0.134765625t0.2109375-0.15234375t0.140625-0.087890625q-0.3515625-0.62109375-0.45703125-0.9140625q-0.10546875,0.0703125-0.19921875,0.0703125t-0.09375-0.1171875q0-0.234375,0.17578125-0.41015625q-0.12890625-0.17578125-0.12890625-0.45703125l0-0.0703125q-0.046875-0.140625-0.046875-0.36328125q0-0.140625,0.0234375-0.1875q-0.09375-0.22265625-0.09375-0.6796875q-0.046875-0.1875-0.046875-0.48046875q0-0.2578125,0.0703125-0.328125l0-0.1171875q0-0.29296875,0.046875-0.38671875q-0.0234375-0.0703125-0.0234375-0.22265625q0-0.29296875,0.09375-0.609375t0.22265625-0.421875q0-0.08203125,0.076171875-0.3046875t0.134765625-0.29296875l0-0.0703125q0-0.24609375,0.0703125-0.38671875q0.1875-0.52734375,0.609375-0.71484375q0.1875-0.0703125,0.52734375-0.36328125l0-0.046875q0-0.12890625,0.140625-0.26953125q0.03515625-0.0234375,0.064453125-0.041015625t0.052734375-0.029296875t0.041015625-0.029296875t0.029296875-0.046875t0.0234375-0.064453125q0-0.0703125,0.046875-0.1640625q0.09375-0.22265625,0.38671875-0.38671875q0.1171875-0.0703125,0.375-0.3515625t0.46875-0.3515625q0.0703125-0.0234375,0.234375-0.0234375q0.10546875-0.0703125,0.19921875-0.1171875q0.1875-0.09375,0.3046875-0.09375q0.05859375,0,0.19921875,0.046875q0.08203125,0.03515625,0.2578125,0.2109375q0.15234375-0.10546875,0.19921875-0.1171875q0.0703125-0.0234375,0.1875-0.0234375q0.10546875,0.03515625,0.1640625,0.09375q0.08203125-0.0703125,0.19921875-0.1171875q0.046875-0.0234375,0.1171875-0.0234375q0.09375,0,0.140625,0.0234375q0.03515625,0,0.19921875-0.046875t0.2578125-0.046875l0.046875,0l0.22265625,0q0.48046875,0,0.64453125,0.1171875l0.0703125,0q0.12890625,0,0.31640625,0.046875q0.05859375,0,0.169921875-0.01171875t0.158203125-0.01171875q0.12890625,0,0.17578125,0.0234375q0.046875,0.01171875,0.31640625,0.0703125t0.375,0.12890625q0.52734375,0.17578125,0.64453125,0.234375q0.03515625,0.0234375,0.123046875,0.05859375t0.123046875,0.05859375l0.1640625,0.08203125q0.1171875-0.05859375,0.17578125-0.05859375l0.046875,0q0.08203125,0.01171875,0.087890625,0.111328125t0.029296875,0.111328125q0.0234375,0,0.2109375,0.09375q0.0703125,0.01171875,0.17578125,0.10546875t0.140625,0.1640625q0.03515625,0.08203125,0.169921875,0.19921875t0.169921875,0.15234375q0.05859375,0.046875,0.1171875,0.146484375t0.123046875,0.228515625l0.087890625,0.17578125q0.0234375,0.03515625,0.111328125,0.09375t0.087890625,0.12890625t-0.0234375,0.1171875q0.01171875,0.01171875,0.0234375,0.052734375t0.0234375,0.064453125q0.0234375,0.0234375,0.1640625,0.31640625q0.1171875,0.2109375,0.1171875,0.52734375q0.0234375,0.09375,0.0234375,0.43359375q0,0.31640625-0.0703125,0.41015625q0,0.24609375-0.09375,0.57421875q-0.0234375,0.0703125-0.064453125,0.140625t-0.08203125,0.1171875t-0.1171875,0.10546875t-0.111328125,0.087890625t-0.12890625,0.09375t-0.1171875,0.076171875q0.046875,0.09375,0.046875,0.1171875q0,0.12890625-0.2109375,0.29296875q-0.046875,0.03515625-0.076171875,0.041015625t-0.041015625,0.005859375t-0.041015625,0.017578125t-0.064453125,0.076171875l-0.140625,0.140625q-0.1171875,0.05859375-0.140625,0.05859375q-0.03515625,0-0.1171875-0.029296875t-0.12890625-0.029296875l-0.046875,0q-0.046875,0.0234375-0.15234375,0.046875t-0.1875,0.05859375q-0.1875,0.09375-0.234375,0.09375q-0.01171875,0-0.03515625-0.01171875t-0.03515625-0.01171875q-0.328125,0.1640625-0.45703125,0.1640625q-0.17578125,0-0.17578125-0.0703125q0-0.08203125,0.12890625-0.2109375t0.1875-0.15234375q-0.09375-0.03515625-0.3046875-0.09375t-0.31640625-0.09375q-0.03515625,0.01171875-0.12890625,0.08203125t-0.1640625,0.05859375q-0.09375-0.03515625-0.09375-0.09375q0-0.0234375,0.01171875-0.087890625t0.01171875-0.099609375l0-0.0234375q-0.12890625-0.09375-0.240234375-0.380859375t-0.146484375-0.345703125q-0.2578125-0.4453125-0.2578125-0.84375q0-0.140625,0.046875-0.1875q0-0.03515625,0.064453125-0.228515625t0.099609375-0.228515625q0.05859375-0.57421875,0.29296875-0.76171875q-0.421875-0.140625-0.52734375-0.26953125q-0.01171875,0-0.03515625,0.01171875t-0.03515625,0.01171875q-0.0234375,0-0.05859375-0.01171875t-0.046875-0.01171875q-0.1171875,0.1171875-0.1875,0.1640625q-0.2578125,0.12890625-0.31640625,0.12890625q-0.01171875,0-0.046875-0.01171875t-0.046875-0.01171875q-0.046875-0.0234375-0.1171875-0.0234375q-0.234375,0-0.544921875,0.17578125t-0.486328125,0.3515625q-0.046875,0.046875-0.1640625,0.1171875t-0.15234375,0.1171875q-0.1171875,0.1640625-0.140625,0.1875q-0.046875,0.0703125-0.1875,0.41015625q-0.22265625,0.4453125-0.22265625,0.796875l0,0.09375q0.08203125-0.01171875,0.111328125,0.03515625t0.029296875,0.15234375l0,0.12890625q-0.046875,0.09375-0.1875,0.28125l0,0.17578125q-0.03515625,0.09375-0.0703125,0.28125t-0.046875,0.24609375l0,0.046875q0,0.03515625-0.01171875,0.111328125t-0.01171875,0.099609375q0.0703125-0.01171875,0.10546875,0.029296875t0.03515625,0.111328125q0,0.08203125-0.0234375,0.10546875q-0.09375,0.28125-0.09375,0.45703125q0,0.984375,0.328125,1.58203125q0.375,0.6328125,1.18359375,1.1484375q0.0234375,0.01171875,0.10546875,0.05859375t0.123046875,0.064453125t0.111328125,0.03515625t0.140625,0.005859375q0.09375,0,0.22265625,0.052734375t0.1875,0.052734375q0.0703125,0,0.2109375-0.10546875q0.15234375-0.1171875,0.31640625-0.1171875q0.046875,0,0.140625,0.046875q0.0234375,0.0234375,0.09375,0.0234375q0.05859375,0,0.134765625-0.041015625t0.158203125-0.10546875t0.1171875-0.087890625q0.26953125-0.52734375,0.48046875-0.52734375q0.046875,0,0.140625,0.046875q0.01171875-0.0703125,0.099609375-0.2109375t0.099609375-0.15234375q0.0234375-0.046875,0.05859375-0.158203125t0.05859375-0.146484375q0.046875-0.05859375,0.1640625-0.41015625l-0.0234375-0.24609375l0.09375-0.1640625q0-0.09375,0.0234375-0.140625q0-0.17578125,0.12890625-0.26953125q0.10546875-0.0703125,0.3046875-0.0703125q0.12890625,0,0.22265625,0.046875q0.09375-0.01171875,0.298828125-0.076171875t0.322265625-0.064453125q0.28125-0.0703125,0.50390625-0.0703125q0.1171875,0,0.1640625,0.0234375q0.29296875,0.0703125,0.31640625,0.09375q0.046875-0.0234375,0.1875-0.0234375q0.15234375,0,0.19921875,0.046875q0.140625,0,0.234375,0.140625q0.0703125,0.0703125,0.24609375,0.1171875z M244.23321875,39.66796875l0,0.0234375l0-0.0234375l0,0.09375l0,0.046875q0.09375-0.17578125,0.17578125-0.29296875q-0.1640625,0.10546875-0.17578125,0.15234375z M244.6668125,39.4921875q-0.09375,0.19921875-0.3046875,0.556640625t-0.24609375,0.427734375q0.66796875-0.3046875,1.69921875-1.1015625q-0.0234375-0.0234375-0.09375-0.0234375t-0.234375,0.064453125t-0.24609375,0.052734375q-0.046875,0.046875-0.1640625,0.046875t-0.1640625-0.0234375q-0.046875,0.0234375-0.12890625,0.0234375q-0.0703125,0-0.1171875-0.0234375z M243.08478125,36.76171875l0.1171875-0.09375l-0.1171875,0.09375q1.13671875-0.94921875,2.47265625-1.8984375q-0.52734375,0.2578125-1.734375,1.0546875q-0.1875,0.1171875-0.4921875,0.3515625t-0.38671875,0.29296875q-0.046875,0.0234375-0.046875,0.0703125q0,0.0703125,0.1875,0.12890625z M244.5965,36.73828125q0.45703125-0.3984375,0.75-0.7734375q-1.37109375,0.78515625-1.640625,0.9609375q0.046875,0.01171875,0.158203125,0.052734375t0.181640625,0.041015625q0.12890625,0.01171875,0.228515625-0.029296875t0.146484375-0.08203125t0.17578125-0.169921875z M245.393375,36.28125l-0.22265625,0.2109375l-0.046875,0.046875q0.03515625-0.0234375,0.08203125-0.05859375l0.0703125-0.052734375t0.05859375-0.05859375t0.05859375-0.087890625z M245.7215,35.02734375l-0.41015625,0.29296875l0.41015625-0.29296875q-1.30078125,0.9140625-2.40234375,1.828125q0.03515625,0.0234375,0.158203125-0.029296875t0.287109375-0.15234375t0.31640625-0.19921875t0.287109375-0.1875t0.158203125-0.099609375q0.1875-0.15234375,0.556640625-0.380859375t0.544921875-0.228515625q0.046875,0,0.0703125,0.0234375q0.046875-0.09375,0.046875-0.28125q0-0.22265625-0.0234375-0.29296875z M245.5574375,34.359375l-0.1171875,0.09375l0.1171875-0.09375q-0.3984375,0.36328125-1.51171875,1.125q1.1015625-0.73828125,1.62890625-0.9140625q-0.046875-0.140625-0.1171875-0.2109375z M243.612125,32.5078125l-0.0234375,0l0.0234375,0q-0.0234375,0-0.08203125,0.041015625t-0.05859375,0.052734375q0.01171875-0.01171875,0.08203125-0.046875z M243.90509375,32.6015625q-0.12890625,0.0703125-0.12890625,0.10546875q0.01171875,0,0.0234375-0.01171875t0.046875-0.029296875t0.052734375-0.03515625t0.005859375-0.029296875q-0.2578125,0.15234375-0.76171875,0.462890625t-0.75,0.474609375q0.12890625,0.08203125,0.462890625,0.169921875t0.462890625,0.193359375q0.08203125-0.046875,0.263671875-0.1875t0.298828125-0.22265625t0.29296875-0.169921875t0.328125-0.111328125q0.046875-0.0234375,0.1640625-0.0234375t0.140625,0.046875l0,0.05859375t-0.041015625,0.064453125t-0.0703125,0.064453125t-0.08203125,0.052734375t-0.087890625,0.046875l-0.08203125,0.041015625t-0.05859375,0.0234375q-0.6796875,0.41015625-0.75,0.45703125q-0.0234375,0.01171875-0.09375,0.041015625t-0.09375,0.029296875q0.0234375,0.0234375,0.0234375,0.12890625q0,0.1875-0.17578125,0.2578125q-0.2578125,0.1640625-0.328125,0.24609375q-0.03515625,0.046875-0.08203125,0.087890625t-0.05859375,0.05859375t-0.03515625,0.05859375t-0.046875,0.123046875q-0.01171875,0.01171875-0.0703125,0.26953125q-0.01171875,0.0703125-0.064453125,0.205078125t-0.052734375,0.228515625q0,0.0703125,0.0234375,0.1171875q0.01171875,0.03515625,0.05859375,0.169921875t0.08203125,0.193359375q0.10546875-0.1171875,0.80859375-0.650390625t1.32421875-1.0078125t0.5859375-0.509765625l-2.21484375,1.30078125q-0.140625,0.0703125-0.375,0.2109375q-0.0234375,0.0234375-0.08203125,0.0234375q-0.1171875,0-0.1171875-0.1171875q0-0.05859375,0.0703125-0.09375q0.22265625-0.1171875,0.984375-0.57421875q0.22265625-0.140625,0.6796875-0.404296875t0.69140625-0.392578125q0.046875-0.03515625,0.111328125-0.064453125t0.08203125-0.046875t0.017578125-0.052734375l-0.046875-0.140625q-0.1640625-0.29296875-0.3046875-0.45703125q-0.05859375-0.046875-0.1875-0.17578125t-0.19921875-0.1875q-0.4921875-0.1640625-0.64453125-0.31640625z M242.7918125,32.203125l-0.0703125,0.1171875l0.0703125-0.1171875q-0.08203125,0.12890625-0.205078125,0.2578125t-0.205078125,0.2109375t-0.275390625,0.228515625t-0.240234375,0.181640625t-0.29296875,0.19921875l-0.24609375,0.1640625q0.36328125-0.22265625,1.048828125-0.5859375t0.919921875-0.4921875q-0.31640625-0.12890625-0.50390625-0.1640625z M241.5730625,32.09765625l0.0234375,0.05859375l-0.0234375-0.05859375q0.03515625,0.0703125-0.005859375,0.158203125t-0.146484375,0.17578125t-0.2109375,0.1640625t-0.216796875,0.15234375t-0.134765625,0.099609375q0.2109375-0.1171875,0.615234375-0.36328125t0.603515625-0.36328125l-0.09375,0q-0.22265625,0-0.43359375-0.0703125q0.0234375,0.0234375,0.0234375,0.046875z M240.85821875,32.00390625l-0.03515625,0l0.03515625,0z M236.31134375,34.1953125l0,0.0234375q0.05859375,0,0.05859375-0.046875q-0.01171875,0-0.05859375,0.0234375q-0.01171875,0.0234375-0.1171875,0.1875q0.09375-0.08203125,0.287109375-0.251953125t0.287109375-0.251953125l-0.046875,0q-0.0703125,0-0.1171875-0.0234375q0.03515625,0.24609375-0.29296875,0.33984375z M235.91290625,34.59375l0.0234375,0q0.0234375,0,0.1171875-0.09375q-0.09375,0.046875-0.140625,0.09375z M235.69025,35.1796875q0-0.01171875,0.111328125-0.0703125t0.234375-0.123046875t0.158203125-0.099609375q0.12890625-0.08203125,0.380859375-0.263671875t0.392578125-0.263671875q0.33984375-0.24609375,1.3359375-0.9375q1.40625-0.94921875,2.26171875-1.30078125q-0.0703125-0.0234375-0.29296875-0.0234375l-0.09375,0q-0.12890625,0.12890625-0.2578125,0.12890625q-0.10546875,0-0.15234375-0.046875q-0.10546875,0.0703125-0.3515625,0.0703125q-0.15234375,0-0.19921875-0.0234375q-0.046875,0.046875-0.140625,0.046875l-0.0703125,0q0,0.09375-0.0703125,0.1640625q-0.10546875,0.17578125-0.416015625,0.31640625t-0.404296875,0.234375q-0.2109375,0.38671875-0.43359375,0.55078125q-0.03515625,0.0234375-0.15234375,0.041015625t-0.12890625,0.029296875q-0.609375,0.5625-0.984375,0.890625q-0.046875,0.03515625-0.234375,0.169921875t-0.31640625,0.263671875t-0.17578125,0.24609375z M235.455875,35.87109375q0,0.01171875-0.01171875,0.03515625t-0.01171875,0.03515625q0.62109375-0.3984375,1.892578125-1.166015625t1.892578125-1.166015625q0.140625-0.08203125,0.66796875-0.392578125t0.85546875-0.5390625t0.5859375-0.498046875q-0.0234375-0.0234375-0.09375-0.0234375q-0.09375,0-0.1875,0.052734375t-0.19921875,0.140625t-0.140625,0.111328125q-0.45703125,0.26953125-0.69140625,0.45703125q-0.28125,0.17578125-0.8203125,0.509765625t-0.80859375,0.498046875q-0.3046875,0.19921875-0.943359375,0.591796875t-0.955078125,0.603515625q-0.05859375,0.03515625-0.263671875,0.134765625t-0.333984375,0.169921875t-0.263671875,0.193359375t-0.169921875,0.251953125z M235.23321875,36.71484375l0,0.0234375l0-0.0234375q-0.0234375,0.046875-0.0234375,0.140625q0.71484375-0.43359375,2.14453125-1.25390625q0.94921875-0.55078125,1.1953125-0.69140625q0.10546875-0.0703125,0.310546875-0.205078125t0.310546875-0.205078125q0.03515625-0.0234375,0.087890625-0.046875t0.076171875-0.03515625t0.052734375-0.03515625t0.052734375-0.05859375t0.046875-0.08203125q0.046875-0.17578125,0.38671875-0.33984375q0.17578125-0.22265625,0.2578125-0.29296875q0.1875-0.140625,0.31640625-0.140625q0.01171875,0,0.046875,0.01171875t0.046875,0.01171875q0.05859375,0.01171875,0.111328125,0.029296875t0.076171875,0.017578125q0.08203125,0,0.15234375-0.046875q0.09375-0.0703125,0.41015625-0.28125t0.46875-0.322265625t0.375-0.3046875t0.375-0.380859375l-0.046875,0q-0.1171875,0-0.33984375,0.1640625q-0.796875,0.4453125-0.8671875,0.48046875q-1.265625,0.76171875-2.56640625,1.51171875q-1.93359375,1.1015625-2.54296875,1.46484375q-0.1875,0.09375-0.71484375,0.41015625q-0.10546875,0.05859375-0.12890625,0.1171875t-0.029296875,0.1640625t-0.041015625,0.19921875z M235.20978125,37.1484375l0.1171875-0.08203125q-0.0234375,0.03515625-0.1171875,0.08203125q0.890625-0.5390625,1.03125-0.6328125q-0.0703125,0.03515625-1.03125,0.6328125z M235.16290625,38.09765625q0.28125-0.234375,0.609375-0.498046875t0.71484375-0.57421875t0.59765625-0.486328125t0.64453125-0.52734375t0.65625-0.52734375q0.41015625-0.31640625,0.55078125-0.52734375q-0.55078125,0.328125-1.5234375,1.01953125t-1.3359375,0.92578125q-0.6328125,0.41015625-0.9140625,0.55078125l0,0.0703125q0,0.05859375-0.01171875,0.193359375t-0.01171875,0.193359375q0,0.1171875,0.0234375,0.1875z M235.20978125,38.390625l0.19921875-0.0703125l-0.19921875,0.0703125q0.421875-0.15234375,0.84375-0.427734375t0.984375-0.732421875t0.76171875-0.59765625q0.03515625-0.0234375,0.19921875-0.140625t0.287109375-0.1875t0.240234375-0.1171875q0.09375-0.01171875,0.15234375-0.26953125t0.05859375-0.43359375q-0.71484375,0.59765625-1.81640625,1.48828125q-0.19921875,0.17578125-0.609375,0.509765625t-0.62109375,0.498046875q-0.48046875,0.31640625-0.48046875,0.38671875l0,0.0234375z M238.4324375,36.4921875l-0.10546875,0.0703125q0.05859375-0.0234375,0.10546875-0.0703125q-0.046875,0.0234375-0.796875,0.55078125q0.6328125-0.38671875,0.796875-0.55078125z M235.23321875,38.82421875l0.09375-0.0234375l-0.09375,0.0234375q0.328125-0.09375,1.20703125-0.59765625q1.01953125-0.65625,1.3125-0.8671875q0.01171875-0.01171875,0.158203125-0.087890625t0.234375-0.12890625t0.205078125-0.134765625t0.17578125-0.158203125t0.046875-0.158203125q-0.17578125,0.1640625-0.416015625,0.322265625t-0.427734375,0.263671875t-0.4921875,0.26953125t-0.4453125,0.24609375q-0.17578125,0.10546875-0.521484375,0.310546875t-0.509765625,0.310546875q-0.0234375,0.01171875-0.181640625,0.099609375t-0.24609375,0.1640625t-0.099609375,0.146484375z M235.28009375,39.4453125l0.17578125-0.140625q-0.17578125,0.1171875-0.17578125,0.140625q0.234375-0.1875,1.734375-1.1953125q0.515625-0.28125,1.078125-0.7265625q0.03515625-0.0234375,0.123046875-0.0703125t0.146484375-0.08203125t0.10546875-0.09375t0.03515625-0.12890625q-1.53515625,1.078125-2.51953125,1.60546875q-0.4921875,0.24609375-0.59765625,0.28125q-0.12890625,0.03515625-0.12890625,0.17578125q0,0.03515625,0.01171875,0.111328125t0.01171875,0.123046875z M235.362125,39.73828125l0.1171875-0.0703125l-0.1171875,0.0703125q0.046875-0.03515625,0.26953125-0.193359375t0.29296875-0.2109375t0.275390625-0.193359375t0.3046875-0.19921875t0.28125-0.17578125t0.31640625-0.1875t0.298828125-0.15234375t0.328125-0.15234375q0.1875-0.09375,0.45703125-0.09375q0.19921875,0,0.19921875,0.09375q0,0.046875-0.08203125,0.1640625q0.12890625-0.09375,0.12890625-0.2109375q0-0.0234375-0.01171875-0.09375t-0.01171875-0.12890625l0-0.0703125q0-0.05859375,0.0234375-0.181640625t0.0234375-0.181640625q-0.01171875,0.01171875-0.908203125,0.57421875t-1.564453125,1.03125t-0.62109375,0.5625z M236.674625,39.2109375l0.140625-0.08203125l-0.234375,0.12890625q0.0234375-0.0234375,0.09375-0.046875q0.99609375-0.515625,1.37109375-0.8203125q-0.28125,0.0703125-0.603515625,0.234375t-0.521484375,0.298828125t-0.57421875,0.41015625t-0.48046875,0.357421875q0.71484375-0.43359375,0.80859375-0.48046875z M237.20196875,39.1875l-0.3046875,0.1875q0.0703125-0.046875,0.3046875-0.1875q-0.09375,0.046875-0.62109375,0.328125t-0.796875,0.45703125q0.45703125-0.17578125,1.41796875-0.78515625z M235.4324375,39.97265625l0.0234375-0.0234375z M235.4793125,41.4609375l0.0234375-0.0234375l-0.0234375,0.0234375q0.01171875-0.01171875,0.03515625-0.0234375t0.03515625-0.0234375l0-0.0234375z M235.84259375,40.86328125l0.140625-0.1171875l-0.140625,0.1171875q0.80859375-0.6328125,1.62890625-1.34765625q0.10546875-0.09375,0.322265625-0.287109375t0.322265625-0.287109375q0.01171875-0.01171875,0.099609375-0.08203125t0.15234375-0.134765625t0.064453125-0.099609375q-0.94921875,0.65625-1.6171875,1.06640625q-0.05859375,0.03515625-0.26953125,0.169921875t-0.345703125,0.216796875t-0.328125,0.146484375t-0.322265625,0.041015625q0.0234375,0.09375,0.0703125,0.193359375t0.1171875,0.22265625t0.10546875,0.181640625z M236.03009375,41.1796875l0.09375-0.08203125l-0.09375,0.08203125q0.99609375-0.57421875,2.0859375-1.39453125q0.0703125-0.046875,0.216796875-0.158203125t0.216796875-0.158203125q0-0.09375-0.03515625-0.275390625t-0.03515625-0.275390625q-0.4921875,0.46875-1.39453125,1.23046875q-0.15234375,0.140625-0.462890625,0.380859375t-0.474609375,0.380859375q-0.1640625,0.12890625-0.1640625,0.1640625q0,0.01171875,0.046875,0.10546875z M236.21759375,41.484375l0.12890625-0.09375q-0.12890625,0.0703125-0.12890625,0.09375q0.15234375-0.1171875,0.451171875-0.357421875t0.439453125-0.357421875q-0.7265625,0.48046875-0.9609375,0.59765625q0.01171875,0.0234375,0.03515625,0.05859375t0.03515625,0.05859375z M236.6511875,42.01171875l0.0703125-0.09375l-0.0703125,0.09375q0.38671875-0.4921875,1.20703125-1.21875q-0.1640625,0.08203125-0.45703125,0.263671875t-0.45703125,0.263671875q-0.57421875,0.33984375-0.57421875,0.43359375l0,0.0234375q0.0234375,0.03515625,0.08203125,0.169921875t0.10546875,0.181640625q0.046875-0.09375,0.09375-0.1171875z M236.92071875,42.4921875l0.0234375-0.0234375q-0.0234375,0-0.0234375,0.0234375q0.09375-0.09375,0.140625-0.1171875q-0.1640625,0.046875-0.1640625,0.09375z M236.6980625,42.328125l0.1171875-0.0703125l-0.1171875,0.0703125q0.41015625-0.234375,1.212890625-0.703125t1.212890625-0.71484375q-0.140625-0.17578125-0.2578125-0.41015625q-0.09375-0.1171875-0.146484375-0.380859375t-0.099609375-0.357421875q-0.09375,0.1171875-0.234375,0.251953125t-0.205078125,0.1875t-0.287109375,0.228515625t-0.234375,0.1875q0.09375-0.046875,0.2578125-0.146484375t0.310546875-0.17578125t0.275390625-0.123046875l0.09375,0q0.09375,0.03515625,0.09375,0.09375q0,0.046875-0.08203125,0.134765625t-0.1875,0.181640625l-0.1171875,0.09375q-0.19921875,0.1640625-0.931640625,0.87890625t-0.673828125,0.7734375z M237.13165625,42.6328125l0.09375-0.046875l-0.09375,0.046875q1.08984375-0.6796875,1.921875-1.1015625q0.08203125-0.046875,0.263671875-0.076171875t0.240234375-0.064453125q-0.046875-0.03515625-0.099609375-0.09375t-0.08203125-0.087890625t-0.064453125-0.029296875q-0.046875,0-0.09375,0.046875q-0.375,0.2578125-0.73828125,0.48046875q-0.01171875,0.01171875-0.1171875,0.08203125t-0.216796875,0.140625t-0.2578125,0.169921875t-0.275390625,0.1875t-0.24609375,0.1640625t-0.17578125,0.134765625z M238.25665625,43.1953125l0.0703125-0.08203125q-0.0703125,0-0.0703125,0.08203125q0.09375-0.09375,0.380859375-0.369140625t0.427734375-0.421875t0.33984375-0.38671875t0.33984375-0.462890625q-0.046875-0.046875-0.509765625,0.251953125t-1.001953125,0.6796875t-0.59765625,0.416015625q0.05859375,0.0234375,0.28125,0.140625t0.33984375,0.15234375z M239.12384375,42.66796875l-0.046875,0.046875l0.2109375-0.22265625q-0.046875,0.05859375-0.1640625,0.17578125l-0.52734375,0.52734375q1.48828125-1.01953125,1.8046875-1.20703125q-0.03515625-0.046875-0.158203125-0.099609375t-0.158203125-0.087890625q-0.0703125-0.0703125-0.1171875-0.0703125q-0.05859375,0-0.1171875,0.09375q-0.3046875,0.421875-0.7265625,0.84375z M239.4636875,43.08984375l0.09375-0.09375l-0.1171875,0.1171875l0.0234375-0.0234375q0.78515625-0.6328125,1.03125-0.87890625q-0.3515625,0.19921875-1.001953125,0.638671875t-0.755859375,0.509765625q0.0703125,0.046875,0.22265625,0.046875q0.140625,0,0.50390625-0.31640625z M239.89728125,43.5703125l0.046875-0.046875q-0.046875,0.0234375-0.046875,0.046875q0.2109375-0.140625,0.375-0.3046875l-0.421875,0.28125q0.0234375,0.0234375,0.046875,0.0234375z M240.27228125,42.71484375l0.24609375-0.17578125q-0.0234375,0-0.24609375,0.17578125q0.6796875-0.421875,0.8671875-0.45703125q-0.10546875-0.0703125-0.1875-0.0703125q-0.1171875,0-0.240234375,0.087890625t-0.2578125,0.240234375t-0.181640625,0.19921875z M240.90509375,42.5859375q-0.0234375,0.01171875-0.076171875,0.041015625t-0.076171875,0.041015625q0.140625-0.0703125,0.15234375-0.08203125z M243.15509375,43.21875q0.01171875,0,0.03515625,0.01171875t0.03515625,0.01171875q0.0234375,0,0.046875-0.0234375t0.05859375-0.064453125t0.0703125-0.064453125q-0.08203125,0.0234375-0.24609375,0.12890625z M243.4011875,44.00390625l0.0234375,0l-0.046875,0l0.0234375,0q0.15234375-0.03515625,0.234375-0.1171875l-0.0703125,0q-0.046875,0-0.111328125-0.01171875t-0.099609375-0.01171875q-0.10546875,0-0.15234375,0.046875q0.05859375,0.09375,0.19921875,0.09375z M243.97540625,42.78515625q0.03515625-0.0234375,0.10546875-0.087890625t0.10546875-0.087890625q-0.046875,0.0234375-0.140625,0.087890625t-0.140625,0.087890625l0.0703125,0z M245.534,41.25q-0.01171875,0-0.43359375,0.28125q-0.1171875,0.08203125-0.345703125,0.251953125t-0.345703125,0.251953125q-0.234375,0.1640625-0.703125,0.498046875t-0.71484375,0.509765625q0.1171875-0.0703125,0.62109375-0.3515625t0.7734375-0.45703125q0.52734375-0.29296875,0.66796875-0.38671875q0.0703125-0.046875,0.1640625-0.1875q0.01171875-0.0234375,0.0703125-0.12890625t0.12890625-0.1640625q0.01171875-0.0234375,0.05859375-0.052734375t0.05859375-0.064453125z M245.94415625,40.453125q0,0.03515625-0.1875,0.134765625t-0.41015625,0.216796875t-0.26953125,0.15234375q-0.52734375,0.29296875-0.890625,0.52734375q-0.26953125,0.1640625-0.78515625,0.462890625t-0.7734375,0.451171875q-1.06640625,0.64453125-1.96875,1.1484375q0.2109375,0.0703125,0.45703125,0.0703125q0.0234375-0.0234375,0.09375-0.0234375q0.046875,0,0.140625,0.052734375t0.15234375,0.052734375q0.234375-0.05859375,0.486328125-0.2109375t0.57421875-0.3984375t0.451171875-0.328125q1.1484375-0.8203125,1.72265625-1.25390625q0.0703125-0.046875,0.31640625-0.22265625t0.357421875-0.263671875t0.275390625-0.24609375t0.2578125-0.322265625z M246.13165625,39.87890625q-0.01171875,0.05859375-0.205078125,0.181640625t-0.421875,0.240234375t-0.263671875,0.15234375q-0.66796875,0.41015625-0.80859375,0.48046875q-0.046875,0.0234375-0.1875,0.10546875t-0.251953125,0.12890625t-0.216796875,0.05859375q-0.01171875,0-0.03515625-0.01171875t-0.03515625-0.01171875q-0.0234375,0-0.046875,0.0234375q-0.046875,0.1171875-0.17578125,0.2109375t-0.3046875,0.169921875t-0.234375,0.123046875q-0.08203125,0.046875-0.322265625,0.251953125t-0.357421875,0.205078125q-0.1640625,0-0.3046875-0.26953125q-0.03515625,0.03515625-0.19921875,0.1171875q0.12890625,0,0.12890625,0.0703125q0,0.03515625-0.05859375,0.10546875t-0.123046875,0.12890625t-0.134765625,0.1171875l-0.0703125,0.05859375q-0.1875,0.10546875-0.498046875,0.416015625t-0.439453125,0.404296875q0.4921875-0.28125,2.953125-1.7109375q0.3515625-0.234375,1.46484375-0.87890625q0.1171875-0.0703125,0.345703125-0.216796875t0.345703125-0.216796875q0.0703125-0.03515625,0.205078125-0.111328125t0.205078125-0.111328125q0-0.1171875,0.046875-0.2109375z M254.577828125,42.10546875l0.0234375,0.0234375l-0.0234375-0.046875l0,0.0234375l0.0234375,0.05859375q0,0.05859375-0.22265625,0.2109375q-0.0234375,0.01171875-0.0703125,0.1640625q0,0.03515625,0.03515625,0.087890625t0.03515625,0.087890625l0,0.0234375q-0.01171875,0.046875-0.064453125,0.064453125t-0.076171875,0.052734375q-0.140625,0.29296875-0.2578125,0.29296875q-0.1640625,0.1640625-0.24609375,0.1875q-0.0234375,0.0234375-0.0234375,0.046875t0.0234375,0.09375t0.0234375,0.09375q-0.0234375,0.1171875-0.12890625,0.26953125t-0.2109375,0.1875q-0.10546875,0.15234375-0.2109375,0.15234375l-0.046875,0q-0.03515625,0-0.08203125,0.017578125t-0.08203125,0.029296875l-0.10546875,0q-0.05859375,0-0.111328125-0.052734375t-0.099609375-0.052734375q-0.08203125,0-0.1640625,0.05859375q-0.26953125,0.2109375-0.43359375,0.2109375q-0.09375,0-0.123046875-0.111328125t-0.052734375-0.123046875l-0.1875,0l-0.38671875,0q-0.05859375,0-0.146484375-0.087890625t-0.134765625-0.087890625q-0.01171875,0-0.0234375,0.01171875t-0.0234375,0.01171875q-0.2578125,0.17578125-0.29296875,0.17578125l-0.046875,0q-0.08203125,0-0.228515625-0.064453125t-0.158203125-0.111328125q0-0.01171875-0.01171875-0.0234375t-0.01171875-0.0234375q0-0.05859375,0.05859375-0.123046875t0.17578125-0.146484375l0.12890625-0.0703125q-0.0234375-0.0234375-0.046875-0.0234375q-0.05859375,0-0.205078125,0.111328125t-0.205078125,0.111328125t-0.09375-0.0703125q-0.0234375-0.0234375-0.0234375-0.09375q0-0.15234375,0.28125-0.36328125q-0.09375-0.09375-0.1171875-0.17578125q-0.28125-0.421875-0.29296875-0.4453125q-0.0234375-0.03515625-0.1171875-0.076171875t-0.09375-0.099609375q0-0.0703125,0.0234375-0.1171875q0.0234375-0.0703125,0.0234375-0.140625q0-0.01171875-0.046875-0.19921875q-0.0234375-0.046875-0.0234375-0.1640625q0-0.1875,0.09375-0.31640625q0-0.0234375,0.01171875-0.052734375t0.01171875-0.041015625l0-0.0234375q-0.09375-0.046875-0.09375-0.1171875q0-0.05859375,0.0703125-0.09375q0.01171875,0,0.046875-0.1171875t0.1171875-0.12890625q0.0703125-0.0703125,0.17578125-0.28125q0.0234375-0.10546875,0.2109375-0.24609375l0-0.0703125q0-0.140625,0.0703125-0.2109375q0.0234375-0.01171875,0.12890625-0.0703125t0.1640625-0.12890625q0.0234375-0.0234375,0.0703125-0.08203125t0.0703125-0.08203125q0.22265625-0.22265625,0.43359375-0.22265625q0.22265625,0,0.38671875,0.26953125q0.2578125-0.22265625,0.59765625-0.22265625q0.140625,0,0.45703125,0.10546875q0.2109375,0,0.544921875,0.205078125t0.439453125,0.392578125q0.50390625,0.43359375,0.57421875,0.62109375q0.1640625,0.328125,0.1640625,0.9140625q0,0.140625-0.0234375,0.1640625l0.05859375,0q0.08203125,0,0.1171875,0.0703125z M251.284859375,43.4765625l0.09375-0.046875q-0.0234375,0-0.09375,0.046875q0.05859375,0.03515625,0.3046875-0.123046875t0.521484375-0.36328125t0.322265625-0.228515625q-0.19921875,0.1171875-0.580078125,0.357421875t-0.568359375,0.357421875z M253.394234375,40.76953125q-0.0234375,0-0.1171875-0.09375q-0.0234375-0.01171875-0.099609375,0.052734375t-0.1640625,0.140625t-0.099609375,0.087890625q-0.36328125,0.36328125-0.80859375,0.75q-0.5859375,0.55078125-1.125,1.125q0.99609375-0.59765625,2.58984375-1.37109375q0.2109375-0.10546875,0.2109375-0.1640625q0-0.09375-0.046875-0.140625q-0.26953125-0.19921875-0.33984375-0.38671875z M252.726265625,40.3359375l-0.0234375,0l0.0234375,0q-0.17578125,0-0.41015625-0.09375q-0.2109375,0.234375-0.64453125,0.57421875q-0.15234375,0.140625-0.474609375,0.416015625t-0.486328125,0.427734375q-0.03515625,0.0234375-0.123046875,0.087890625t-0.140625,0.10546875t-0.099609375,0.10546875t-0.046875,0.123046875l0,0.08203125q0.1640625-0.10546875,1.107421875-0.80859375t1.505859375-0.92578125q-0.0703125-0.09375-0.1875-0.09375z M250.370796875,41.6015625q-0.046875,0.046875-0.046875,0.08203125q0.2109375-0.19921875,0.802734375-0.685546875t0.884765625-0.779296875q-0.05859375,0-0.41015625,0.1171875q-0.0703125,0.0703125-0.26953125,0.1875t-0.28125,0.22265625q-0.140625,0.1875-0.31640625,0.1875q-0.046875,0-0.046875,0.1171875q-0.1171875,0.140625-0.2109375,0.36328125q-0.01171875,0.0234375-0.052734375,0.09375t-0.052734375,0.09375z M251.284859375,41.75390625l-0.1171875,0.09375q0.234375-0.1640625,0.234375-0.1875q-0.0234375,0.0234375-0.1171875,0.09375q-0.515625,0.38671875-0.62109375,0.45703125q-0.03515625,0.0234375-0.111328125,0.0703125t-0.111328125,0.0703125q-0.0703125,0.03515625-0.0703125,0.0703125q0,0.0234375,0.046875,0.1171875q0.03515625,0.046875,0.123046875,0.158203125t0.123046875,0.158203125q0.15234375-0.1875,0.345703125-0.3984375t0.322265625-0.345703125t0.3984375-0.38671875t0.3515625-0.322265625t0.416015625-0.369140625t0.369140625-0.333984375q-0.24609375,0.12890625-0.498046875,0.29296875t-0.603515625,0.421875t-0.48046875,0.33984375z"/></svg>
