<?xml version="1.0"?>
<svg version="1.1" xmlns="http://www.w3.org/2000/svg" width="190" height="42">
    <path fill="#0095ff" d="M15.16,17.8l0-1.76l8.96-0.16l0,1.92l-2.912,0.608l5.024,15.552l5.344-15.52l-2.976-0.64l0-1.76l8.64-0.16l0,1.92l-2.496,0.64l-7.104,19.84l-3.2,0l-6.816-19.84z M51.9152,15.56c6.24,0,9.92,4.32,9.92,11.2c0,7.04-4.32,11.84-10.56,11.84s-9.76-4-9.76-11.36c0-7.04,4-11.68,10.4-11.68z M51.7552,18.28c-4.16,0-6.56,2.72-6.56,8.8c0,5.76,2.08,8.8,6.24,8.8s6.72-2.88,6.72-8.96c0-5.76-2.24-8.64-6.4-8.64z M79.7104,35.72l0.64-3.68l2.24,0l0,6.24l-15.52,0l0-1.92l2.72-0.64l0-17.28l-2.72-0.64l0-1.76l8.8-0.16l0,1.92l-2.72,0.64l0,17.28l6.56,0z M105.4256,29.832l0,6.848s-3.392,1.92-8.16,1.92c-6.4,0-10.24-3.84-10.24-11.04c0-7.36,4.16-12,10.72-12c3.52,0,7.2,1.6,7.2,1.6l-0.16,5.28l-2.08,0l-0.96-3.52s-1.92-0.64-4.32-0.64c-4.32,0-6.72,3.2-6.72,9.12c0,5.76,2.88,8.48,7.04,8.48c2.24,0,4.48-0.8,4.48-0.8l0-5.248l-2.72-0.64l0-1.76l8.32-0.16l0,1.92z M114.0848,35.752l7.296-19.712l3.2-0.16l7.104,19.872l2.656,0.608l0,1.92l-9.28,0l0-1.92l2.976-0.608l-1.216-3.552l-8.32,0l-1.248,3.552l3.008,0.608l0,1.92l-8.8,0l0-1.92z M125.9568,29.64l-3.232-9.632l-3.36,9.632l6.592,0z" />
    <path fill="#" d="M148.6569375,29.296875l0.015625,0l-0.015625,0q0.0625,0.0234375,0.0625,0.078125q0,0.09375-0.2578125,0.484375q0.03125,0.09375,0.03125,0.21875l0,0.0703125q0.015625,0.03125,0.015625,0.15625l0,0.046875q-0.078125,0.1640625-0.296875,0.1640625q-0.28125,0-0.390625-0.046875q-0.0390625,0.0078125-0.12890625,0.05859375t-0.15234375,0.05078125q-0.0859375,0-0.1328125-0.046875q-0.0625,0.03125-0.140625,0.03125q-0.046875,0.015625-0.2265625,0.015625q-0.0234375-0.0078125-0.0546875-0.01953125t-0.0546875-0.01171875l-0.046875,0q-0.015625,0-0.0859375,0.015625t-0.078125,0.015625q-0.0703125,0-0.2109375-0.046875l-0.109375,0q-0.125,0-0.15625-0.03125q-0.015625,0.015625-0.0859375,0.015625q-0.0625,0-0.125-0.03125l-0.078125,0q-0.1171875,0-0.1796875-0.015625q-0.046875,0.03125-0.140625,0.03125l-0.1328125,0l-0.09375,0q-0.15625,0-0.1875-0.046875q-0.09375,0.03125-0.1171875,0.03125l-0.125,0l-0.0625,0q-0.0625,0.03125-0.1328125,0.03125q-0.0625,0-0.09375-0.015625q-0.0234375,0.0078125-0.08203125,0.03515625t-0.09765625,0.02734375l-0.015625,0q-0.0078125,0-0.03515625,0.0078125t-0.04296875,0.0078125q-0.0390625,0-0.12890625-0.015625t-0.12890625-0.015625q-0.2890625,0-0.4296875-0.046875q-0.03125,0-0.12890625,0.03125t-0.12890625,0.03125q-0.0078125,0-0.03125,0.0078125t-0.03125,0.0078125q-0.1484375,0-0.2421875-0.09375q-0.140625,0.046875-0.15625,0.046875l-0.140625,0.015625l0,0l-0.0390625,0.015625q-0.046875,0-0.078125-0.0625q-0.109375,0.046875-0.109375,0.0625l-0.046875,0q-0.109375,0-0.2421875-0.06640625t-0.140625-0.14453125q-0.0390625-0.1171875-0.0390625-0.2734375q0-0.1796875,0.0390625-0.3359375l0-0.25q0-0.140625-0.0234375-0.2578125q-0.0625,0.03125-0.09375,0.03125q0-0.0859375,0.078125-0.109375q-0.0234375-0.046875-0.046875-0.046875q-0.0078125,0-0.0234375,0.0078125t-0.0234375,0.0078125q0.0703125-0.046875,0.0859375-0.0625t0.0234375-0.0859375q0-0.1171875,0.1484375-0.1875q0.015625-0.015625,0.09375-0.015625q0.1328125,0,0.1953125,0.03125q0.0234375,0,0.05859375,0.01953125t0.05078125,0.02734375q0.09375-0.046875,0.1796875-0.046875l0.03125,0l0.109375,0l0.0625,0q0.0390625,0,0.09765625-0.015625t0.09765625-0.015625q0.03125,0,0.11328125-0.0546875t0.14453125-0.046875q0.0390625,0,0.078125,0.015625t0.046875,0.015625q0.03125,0,0.046875-0.015625q0.0625-0.0390625,0.07421875-0.12109375t0.03515625-0.11328125q0-0.015625-0.015625-0.046875t-0.015625-0.0390625q0-0.015625,0.03125-0.046875q0.0703125-0.0546875,0.0703125-0.125q-0.015625-0.046875-0.015625-0.1796875l0-0.078125q-0.078125,0.078125-0.1796875,0.078125q-0.0625,0-0.0625-0.078125t0.10546875-0.1796875t0.12109375-0.125l0-0.0625q0-0.1953125,0.0625-0.3515625q0-0.015625-0.0078125-0.0703125t-0.0078125-0.09375q0-0.03125,0.0078125-0.0859375t0.0078125-0.0703125q-0.015625-0.046875-0.015625-0.2109375q0-0.171875,0.015625-0.203125l0-0.1171875q0-0.1796875,0.03125-0.3046875q0-0.015625,0.0078125-0.0390625t0.0078125-0.0390625q0-0.1328125-0.078125-0.3671875l-0.046875,0q-0.0625,0-0.11328125-0.03125t-0.05078125-0.0625q0-0.0390625,0.078125-0.078125q0.1328125-0.0546875,0.1328125-0.1640625l0-0.109375l0-0.0859375l0-0.0625q0-0.0390625,0.0078125-0.125t0.0078125-0.125l0-0.1015625q0-0.1796875,0.03125-0.3046875q-0.078125-0.234375-0.078125-0.5546875q0-0.1171875,0.03125-0.2734375q0.015625-0.046875,0.015625-0.1640625q0-0.078125-0.0234375-0.2265625t-0.0234375-0.203125q0-0.0234375,0.0078125-0.05859375t0.0078125-0.05078125q-0.015625-0.03125-0.015625-0.1015625q0-0.0390625,0.015625-0.125t0.015625-0.125l0-0.03125q0-0.0859375,0.046875-0.1328125l0-0.0625q0-0.1640625,0.015625-0.1796875l0-0.078125l0-0.140625q0-0.2109375-0.046875-0.2890625q-0.1015625-0.1484375-0.1484375-0.3203125q-0.0078125-0.015625-0.15625-0.0625q-0.0703125,0.046875-0.1953125,0.046875l-0.03125,0q-0.109375-0.03125-0.109375-0.109375q0-0.0390625,0.03125-0.0703125l-0.015625,0q-0.03125,0-0.14453125,0.04296875t-0.14453125,0.04296875q-0.046875,0-0.109375-0.04296875t-0.1171875-0.04296875q-0.0234375,0-0.0703125,0.0078125t-0.0703125,0.0078125q-0.03125,0-0.09375-0.03125q-0.015625,0.015625-0.1015625,0.015625q-0.0625,0-0.078125-0.015625q-0.140625-0.078125-0.140625-0.3671875q0-0.0390625,0.0078125-0.11328125t0.0078125-0.10546875q0-0.0625-0.03125-0.1796875t-0.0390625-0.15625q-0.03125,0.03125-0.09375,0.03125q-0.078125,0-0.078125-0.046875q0-0.0078125,0.03125-0.0703125q0.078125-0.09375,0.125-0.234375q0-0.328125,0.1953125-0.421875q0.0625-0.03125,0.09375-0.03125q0.046875,0,0.15625,0.0234375t0.1328125,0.0234375l0.03125,0q0.0625-0.03125,0.1640625-0.03125q0.109375,0,0.203125,0.03125q0.140625-0.046875,0.1953125-0.046875q0.046875,0.0078125,0.2578125,0.01171875t0.3046875,0.05078125q0.03125-0.015625,0.15625-0.015625q0.03125,0,0.08203125-0.015625t0.08203125-0.015625q0.0390625,0,0.125-0.015625t0.125-0.015625l0.03125,0q0.0390625,0,0.1171875-0.015625t0.109375-0.015625q0.0625,0,0.078125,0.015625q0.140625-0.046875,0.2109375-0.046875l0.03125,0q0.1640625,0.078125,0.4453125,0.109375q0.0234375,0,0.0625,0.0078125t0.0546875,0.0078125q0.0546875,0,0.203125-0.0625q0.09375-0.046875,0.1484375-0.046875q0.0703125,0,0.09375,0.078125l0.03125,0q0.0625,0,0.09375,0.03125q0.0234375,0,0.07421875-0.0078125t0.07421875-0.0078125l0.046875,0q0.078125,0,0.109375-0.015625t0.1015625-0.015625l0.140625,0l0.0625,0l0.046875,0q0.0234375,0,0.08984375,0.015625t0.08984375,0.015625l0.03125,0q0.0625-0.03125,0.125-0.03125q0.1015625,0,0.2265625,0.03125q0.046875-0.015625,0.1484375-0.015625q0.03125-0.015625,0.078125-0.015625q0.0625,0,0.09375,0.03125q0.046875-0.046875,0.09375-0.046875q0.0546875,0,0.0859375,0.03125q0.015625-0.015625,0.0625-0.015625q0.0234375,0,0.06640625,0.0078125t0.05859375,0.0078125q0.0625-0.03125,0.1171875-0.03125l0.046875,0q0.125,0.0390625,0.20703125,0.12890625t0.08203125,0.20703125q0,0.0078125-0.01171875,0.03515625t-0.01171875,0.04296875q0.0546875,0.109375,0.0546875,0.2265625q0,0.1484375-0.0546875,0.2578125q0,0.0390625-0.03125,0.12890625t-0.03125,0.12890625l0,0.03125q0.015625-0.0078125,0.0546875-0.046875t0.07421875-0.0625t0.06640625-0.0234375q0.0390625,0,0.0625,0.0546875q0.015625,0.015625,0.015625,0.046875q0,0.0234375-0.01953125,0.0390625t-0.05078125,0.03125t-0.0390625,0.0234375q0.046875,0.0234375,0.046875,0.0625q0,0.078125-0.109375,0.1328125q-0.0703125,0.0390625-0.0703125,0.0625l0,0.03125q0,0.015625-0.015625,0.046875q-0.0546875,0.1328125-0.265625,0.1953125q-0.015625,0-0.046875,0.0078125t-0.0390625,0.0078125q-0.015625,0-0.05078125-0.0078125t-0.05859375-0.0078125q-0.03125,0-0.125,0.046875l-0.0546875,0.015625q-0.0234375,0-0.03515625-0.01953125t-0.02734375-0.05078125t-0.03125-0.046875q-0.1640625,0.1640625-0.2890625,0.1640625q-0.015625,0-0.046875-0.0078125t-0.046875-0.0078125q-0.03125,0.0234375-0.1171875,0.0859375t-0.140625,0.1171875t-0.078125,0.1171875q0.046875-0.015625,0.1015625,0.0234375t0.0546875,0.0859375q0,0.0390625-0.046875,0.0625q-0.15625,0.0625-0.171875,0.1328125q0.015625,0.046875,0.015625,0.109375l0,0.109375l0,0.0546875q0.0078125,0.0390625,0.01171875,0.0546875t0.0078125,0.01953125t0.0234375,0.01953125t0.03515625,0.046875q0,0.0390625-0.0625,0.2265625q0.03125,0.0625,0.03125,0.25q0,0.2578125-0.046875,0.421875q-0.0234375,0.0625-0.03125,0.140625t-0.0078125,0.18359375t-0.0078125,0.16796875q0.03125-0.03125,0.0625-0.03125q0.078125,0,0.078125,0.078125q-0.0234375,0.078125-0.109375,0.1171875q-0.0625,0.0390625-0.0625,0.140625q0,0.0234375,0.0078125,0.06640625t0.0078125,0.05859375q0.015625,0.046875,0.015625,0.1484375q0,0.09375-0.015625,0.140625q0.03125,0.1875,0.03125,0.3359375l0,0.0625q0.03125,0.0625,0.03125,0.2265625t-0.03125,0.3828125q0.03125,0.1875,0.03125,0.2890625q0,0.0703125-0.0078125,0.1875t-0.0078125,0.1640625q0.0703125-0.046875,0.109375-0.046875q0.078125,0,0.078125,0.078125q0,0.0625-0.046875,0.1328125q-0.015625,0.03125-0.140625,0.15625l0,0.1171875l0,0.109375l0,0.0625q0.046875,0.2109375,0.046875,0.4765625q0,0.046875-0.0078125,0.1328125t-0.0078125,0.125q0,0.2734375-0.015625,0.3671875q0.03125,0.15625,0.03125,0.2734375q0,0.03125-0.0078125,0.09375t-0.0078125,0.0859375l0,0.046875q0,0.1640625,0.0625,0.3203125l0.046875,0q0.1796875,0,0.1796875,0.09375q0,0.0234375-0.0625,0.0625q0.046875,0.03125,0.1796875,0.046875t0.1875,0.0546875q0.015625-0.0078125,0.0390625-0.015625t0.0390625-0.015625t0.03125-0.0078125q0.0078125,0,0.03515625,0.01171875t0.04296875,0.01171875l0.03125,0q0.0234375,0,0.07421875-0.01953125t0.07421875-0.01953125l0.03125,0q0.0078125,0,0.046875-0.0078125t0.0625-0.0078125q0.1171875,0,0.2421875,0.0390625t0.15625,0.09375q0.0546875,0.0859375,0.0546875,0.15625q0,0.046875-0.01953125,0.1484375t-0.01953125,0.140625l0,0.046875q0.09375-0.046875,0.1328125-0.046875l0.015625,0z M147.805375,29.78125l0.03125-0.015625q0-0.015625-0.0625,0.03125l0.03125-0.015625q0.0234375-0.0234375,0.1015625-0.0625t0.12890625-0.08203125t0.05859375-0.08203125l0.015625-0.09375q-0.0703125,0.078125-0.1640625,0.16015625t-0.171875,0.140625t-0.19921875,0.140625t-0.18359375,0.12890625q0.078125-0.0546875,0.22265625-0.140625t0.19140625-0.109375z M147.60225,29.171875l0.015625,0l-0.015625,0q0.0234375,0-0.1953125,0.2578125t-0.2734375,0.3125q0.5703125-0.34375,0.7890625-0.4453125q0.09375-0.03125,0.140625-0.03125t0.0625,0.015625l0-0.046875q0-0.0390625-0.01171875-0.04296875t-0.0625-0.0078125t-0.09765625-0.01171875l-0.078125,0l-0.1796875,0l-0.09375,0z M143.3288125,30.0625l0.015625-0.015625l-0.015625,0.015625q0.0546875,0.0078125,0.1171875-0.01953125t0.14453125-0.08203125l0.10546875-0.0703125q0.1171875-0.0703125,0.359375-0.20703125t0.359375-0.20703125q0.1796875-0.109375,0.5390625-0.3125t0.546875-0.3125q-1.4375,0.71875-2.171875,1.2109375z M144.430375,28.453125l0.3046875-0.2265625q0-0.0078125-0.07421875,0.046875t-0.15234375,0.11328125t-0.078125,0.06640625q1.0859375-0.765625,1.4453125-0.9765625q0.046875-0.0234375,0.5546875-0.3515625q0.0078125-0.0078125,0.03515625-0.03125t0.0546875-0.0390625t0.05859375-0.015625q0.015625,0,0.046875,0.03125q0-0.1640625-0.03125-0.4453125q-0.1328125,0.109375-0.41015625,0.30859375t-0.30859375,0.22265625q0.1015625-0.0546875,0.28125-0.16015625t0.2734375-0.16015625q0.03125-0.015625,0.078125-0.015625q0.0703125,0,0.0703125,0.046875q0,0.0546875-0.0859375,0.109375q-0.2109375,0.1328125-0.5078125,0.3359375q-0.5234375,0.34375-1.0546875,0.703125q-0.0703125,0.046875-0.21875,0.14453125t-0.21875,0.14453125q-0.015625,0.0078125-0.05859375,0.0390625t-0.078125,0.0546875t-0.0703125,0.05859375t-0.04296875,0.05859375q0.046875-0.0078125,0.10546875-0.03125t0.08203125-0.03125z M144.461625,28.1484375q-0.015625,0.0078125-0.0625,0.03515625t-0.078125,0.046875t-0.03125,0.04296875q0.046875-0.03125,0.171875-0.125z M146.6256875,27.1875l-0.015625,0.015625q0.015625,0,0.015625-0.015625z M146.524125,27.1875l-0.015625,0l0.015625,0z M146.6100625,27.4765625l-0.1328125,0.09375q0,0.0078125,0.03125-0.01171875t0.06640625-0.046875t0.03515625-0.03515625q-0.1328125,0.0859375-0.53125,0.35546875t-0.5703125,0.38671875t-0.51953125,0.359375t-0.5625,0.40625t-0.4921875,0.390625t-0.51171875,0.4375q0.875-0.5625,2.59375-1.3984375q0.0390625-0.015625,0.16796875-0.09375t0.24609375-0.1328125t0.1953125-0.0546875l0-0.1171875q0-0.0625-0.015625-0.19921875t-0.015625-0.19921875q0-0.0234375,0.0078125-0.0703125t0.0078125-0.0703125z M144.7663125,30.0625l0.03125-0.015625l-0.03125,0.015625q0.21875-0.1171875,0.59375-0.3828125q-0.0625,0.0390625-0.19921875,0.12890625t-0.19921875,0.12890625l-0.2109375,0.109375z M144.0006875,30.1171875q0.078125,0,0.1953125-0.0703125t0.25-0.171875t0.1796875-0.1328125q0.0859375-0.046875,0.30078125-0.1875t0.33984375-0.2109375q-0.6640625,0.390625-1.3125,0.7734375l0.046875,0z M145.1335,30.015625l0.015625,0l-0.015625,0q0.0703125,0.0078125,0.1484375-0.03515625t0.19140625-0.140625t0.12890625-0.11328125q0.1875-0.140625,0.3984375-0.3046875q-0.0859375,0.0625-0.26953125,0.1953125t-0.27734375,0.1953125q-0.28125,0.2109375-0.3203125,0.203125z M145.571,30.046875q0.0390625,0.015625,0.1015625-0.01953125t0.13671875-0.09375t0.09765625-0.07421875q-0.0546875,0.03125-0.16796875,0.09375t-0.16796875,0.09375z M146.0631875,29.9375q0.2578125-0.15625,0.2578125-0.171875q-0.078125,0.046875-0.2578125,0.171875q0.2265625-0.140625,0.65625-0.41796875t0.65625-0.41015625q-0.0234375-0.0234375-0.0625-0.0234375q-0.0703125,0-0.16796875,0.0625t-0.19921875,0.1484375t-0.1328125,0.109375q-0.1328125,0.0859375-0.37890625,0.265625t-0.37109375,0.265625z M146.8444375,28.9921875q-0.03125-0.0234375-0.21875,0.1171875t-0.40234375,0.32421875t-0.23828125,0.19921875q0.171875-0.1015625,0.5-0.2890625t0.4921875-0.2890625l-0.125-0.0625l-0.0078125,0z M146.7194375,28.734375l0-0.015625l0,0.015625q0.015625-0.015625,0.015625-0.03125q0-0.046875-0.03125-0.109375q-0.015625,0.0078125-0.046875,0.03125t-0.046875,0.03125l0.015625,0q0.0703125,0,0.09375,0.078125z M145.3444375,26.9296875q0.1171875-0.0625,0.34765625-0.19921875t0.33984375-0.19921875q0.0234375-0.015625,0.19921875-0.09375t0.26953125-0.15625t0.09375-0.1640625q-0.90625,0.6015625-1.25,0.8125z M144.305375,26.6875l0.046875-0.015625q-0.046875,0-0.046875,0.015625q0.09375-0.015625,0.20703125-0.06640625t0.1796875-0.0859375t0.19921875-0.12109375t0.1640625-0.109375q0.5234375-0.34375,1.171875-0.828125q-0.9453125,0.6015625-1.4609375,0.890625q-0.03125,0.015625-0.171875,0.0703125t-0.21484375,0.11328125t-0.07421875,0.13671875z M144.35225,26.1171875l0.03125-0.0390625l-0.03125,0.0390625q0.1484375-0.171875,0.3203125-0.3203125q-0.2109375,0.09375-0.3359375,0.109375q0.015625,0.0625,0.015625,0.2109375z M144.321,27.15625q0.15625-0.125,0.453125-0.3828125t0.4453125-0.390625q-0.5390625,0.34375-0.7578125,0.421875q-0.0234375,0.0078125-0.0703125,0.015625t-0.05859375,0.01953125t-0.01171875,0.05859375q0.015625,0.03125,0.015625,0.125q0,0.1015625-0.015625,0.1328125z M146.5788125,25.40625q-0.359375,0.3125-1.08203125,0.9375t-1.08203125,0.9375q0.6953125-0.46875,1.7578125-1.0859375q0.0234375-0.015625,0.14453125-0.07421875t0.19921875-0.1171875t0.078125-0.11328125q-0.015625-0.078125-0.015625-0.2421875l0-0.2421875z M146.5944375,25.25l0-0.015625l0,0.03125l0-0.015625z M146.5788125,24.5625q0,0.0234375-0.3671875,0.26953125t-0.46875,0.30859375q-0.3125,0.203125-0.703125,0.5390625q-0.515625,0.40625-0.65625,0.65625q0.390625-0.3125,1.4375-0.890625l0.7734375-0.421875q0-0.046875-0.015625-0.171875t-0.015625-0.1796875q0-0.0234375,0.0078125-0.05859375t0.0078125-0.05078125z M146.5475625,24.1796875l0-0.015625l0,0.015625l0-0.0625q-0.359375,0.2734375-1.08984375,0.8125t-1.08984375,0.8125q0.328125-0.1015625,1.0234375-0.5546875q0.171875-0.109375,0.4609375-0.3203125t0.40625-0.2890625q0.109375-0.09375,0.2890625-0.2109375l0-0.1875z M148.1100625,20.5625l-0.09375,0.09375q0.015625-0.0078125,0.03515625-0.01953125t0.03125-0.015625t0.01953125-0.01953125t0.0078125-0.0390625z M148.1569375,20.1328125q-0.0078125,0.0234375-0.125,0.078125t-0.2578125,0.109375t-0.15625,0.0625q-0.625,0.328125-1.359375,0.8046875q-0.3828125,0.234375-1.6796875,1.0859375q-0.046875,0.03125-0.14453125,0.09765625t-0.14453125,0.09765625q-0.015625,0.03125-0.015625,0.109375q0,0.09375-0.015625,0.140625q0.03125,0.1875,0.03125,0.3046875q0,0.1015625-0.015625,0.1328125q0.2265625-0.1484375,0.671875-0.4375t0.671875-0.4453125q0.484375-0.3359375,0.78125-0.5625q0.0234375-0.015625,0.06640625-0.04296875t0.05859375-0.03515625t0.04296875-0.03125t0.0390625-0.0546875t0.01953125-0.0703125q0.0546875-0.15625,0.078125-0.1953125q0-0.1171875,0.0546875-0.234375t0.140625-0.1484375q0.09375-0.046875,0.4453125-0.125q0.0078125,0,0.02734375-0.01171875t0.03515625-0.01171875q0.0234375,0,0.0625,0.0390625q0.015625-0.0078125,0.07421875-0.03515625t0.08984375-0.03515625q0.0546875-0.078125,0.125-0.078125l0.03125,0q0.0703125-0.046875,0.1484375-0.125q0.140625-0.140625,0.21875-0.3828125z M144.28975,23.328125l0.03125-0.015625z M144.305375,24.1171875q0.3515625-0.2421875,1.046875-0.75390625t1.046875-0.75390625q-0.671875,0.375-1.28125,0.78125q-0.0078125,0.0078125-0.703125,0.453125q-0.125,0.0859375-0.125,0.125q0,0.0078125,0.0078125,0.0546875t0.0078125,0.09375z M145.2350625,23.0703125l0.109375-0.0625l-0.2578125,0.1484375q0.0546875-0.0234375,0.1484375-0.0859375q0.09375-0.0546875,0.36328125-0.19921875t0.453125-0.26171875t0.33203125-0.2578125q-0.1328125,0.046875-0.2734375,0.125t-0.31640625,0.1875t-0.25390625,0.15625q-0.3125,0.1796875-0.6953125,0.4453125q-0.015625,0.0078125-0.171875,0.10546875t-0.28125,0.18359375t-0.1171875,0.109375q0.0546875-0.046875,0.9609375-0.59375z M144.336625,22.1953125l0.015625,0l0-0.015625l-0.015625,0.015625l0.015625,0q0.03125,0,0.109375-0.078125q0.1953125-0.140625,0.3515625-0.2734375q0.1875-0.1328125,0.546875-0.4140625t0.546875-0.421875q0.171875-0.1328125,0.484375-0.375t0.5703125-0.44140625t0.4921875-0.37890625q-0.1171875-0.078125-0.84375,0.4453125q-0.6953125,0.4375-1.21875,0.8125q-0.09375,0.0625-0.37109375,0.25390625t-0.44140625,0.29296875q-0.1171875,0.078125-0.2109375,0.078125l-0.03125,0q0.015625,0.0625,0.015625,0.2421875t-0.015625,0.2578125z M146.992875,19.78125q-0.03125-0.0078125-0.12109375,0.05859375t-0.203125,0.16796875t-0.12109375,0.109375q0.5234375-0.3203125,0.5546875-0.3359375l-0.015625,0l-0.0625,0l-0.03125,0z M146.399125,19.953125l-0.15625,0.09375l0.171875-0.109375l-0.015625,0.015625q-0.3984375,0.25-1.7734375,1.1328125q-0.015625,0.015625-0.11328125,0.078125t-0.19140625,0.125t-0.09375,0.0703125q0.015625,0.03125,0.046875,0.10546875t0.046875,0.10546875q0.15625-0.1484375,0.34765625-0.29296875t0.47265625-0.33984375t0.375-0.265625q0.0546875-0.0390625,0.52734375-0.3828125t0.70703125-0.5234375q-0.0703125,0-0.3515625,0.1875z M144.305375,24.8203125l0,0.046875q0.1953125-0.15625,0.6796875-0.52734375t0.82421875-0.65234375t0.62109375-0.578125q-0.2265625,0.125-0.68359375,0.38671875t-0.69140625,0.39453125q-0.2734375,0.1484375-0.671875,0.3984375q-0.078125,0.0390625-0.078125,0.2265625l0,0.203125l0,0.1015625z M146.6100625,23.140625l-0.1015625,0.109375q0.1015625-0.09375,0.1015625-0.109375q-0.203125,0.2421875-0.44921875,0.45703125t-0.6484375,0.52734375t-0.50390625,0.390625q0.1328125-0.078125,0.5078125-0.296875t0.578125-0.34375q0.3984375-0.21875,0.453125-0.2578125q0.0625-0.0234375,0.0625-0.4765625z M146.6569375,22.6875q-0.015625-0.015625-0.015625-0.0625q-0.203125,0.15625-0.6328125,0.4609375t-0.6328125,0.453125q0.5859375-0.34375,0.75-0.4296875q0.0234375-0.015625,0.18359375-0.09765625t0.25390625-0.16015625t0.09375-0.1640625z M146.6256875,22q-0.640625,0.3671875-0.703125,0.3984375l0.1015625-0.0546875q0.109375-0.046875,0.24609375-0.09765625t0.22265625-0.05078125q0.1171875,0,0.1171875,0.078125q0,0.0078125-0.0078125,0.03125t-0.0078125,0.03125q0.046875-0.0234375,0.046875-0.09375q0-0.03125-0.0078125-0.1015625t-0.0078125-0.09375l0-0.046875z M147.9538125,19.78125l-0.0625,0q-0.1484375,0-0.390625,0.171875q-0.2109375,0.1796875-0.703125,0.546875q-0.203125,0.1640625-0.5859375,0.45703125t-0.5,0.38671875q1.375-0.8671875,2.03125-1.1953125q0.2734375-0.1328125,0.3984375-0.1640625q0.046875-0.015625,0.046875-0.046875l0-0.0625q-0.0078125-0.0234375-0.0234375-0.04296875t-0.0390625-0.02734375t-0.04296875-0.01171875t-0.0625-0.0078125t-0.06640625-0.00390625z M146.321,19.828125l-0.1640625,0.09375q0.0390625-0.03125,0.1640625-0.09375q-0.03125,0.015625-0.078125,0.015625t-0.109375-0.0078125t-0.0859375-0.0078125l-0.046875,0q-0.03125,0.0078125-0.078125,0.015625t-0.0703125,0.015625t-0.05859375,0.02734375t-0.08203125,0.05078125q-0.1640625,0.1171875-0.671875,0.515625q-0.7265625,0.578125-0.8984375,0.75l0.015625,0.015625q0.328125-0.203125,1.05078125-0.6796875t1.11328125-0.7109375z M143.055375,19.8125q-0.078125,0.015625-0.29296875,0.125t-0.21484375,0.1640625q0.078125,0.15625,0.078125,0.3671875l0,0.03125q0.0859375-0.140625,0.24609375-0.39453125t0.18359375-0.29296875z M143.4694375,19.78125q-0.1171875-0.0078125-0.1953125,0.03515625t-0.1015625,0.078125t-0.1015625,0.16796875q-0.203125,0.34375-0.3046875,0.484375q0.0625-0.0390625,0.52734375-0.30078125t0.70703125-0.41796875l-0.0625,0q-0.078125,0-0.23828125-0.0234375t-0.23046875-0.0234375z M144.6256875,20.578125l-0.1796875,0.125q0.0078125,0,0.1796875-0.125q-0.03125,0.0234375-0.25,0.16796875t-0.34375,0.21484375l0.046875,0.09375q0.296875-0.296875,0.546875-0.4765625z M144.28975,25.1875l0-0.015625l0,0.015625q-0.0078125-0.0234375,0.15625-0.109375t0.3515625-0.1796875t0.2109375-0.109375q0.140625-0.0703125,0.40625-0.234375t0.3125-0.1875q0.546875-0.3515625,0.703125-0.5078125q-0.1875,0.1171875-0.5625,0.33203125t-0.5546875,0.32421875q-0.125,0.0703125-0.37109375,0.21484375t-0.37890625,0.21484375q-0.03125,0.015625-0.08984375,0.046875t-0.0859375,0.05078125t-0.05859375,0.05859375t-0.0390625,0.0859375z M145.1335,24.9765625q-0.5078125,0.3046875-0.65625,0.3828125q-0.015625,0.0078125-0.05078125,0.02734375t-0.046875,0.02734375t-0.03515625,0.01953125t-0.02734375,0.0234375t-0.01171875,0.02734375t-0.01171875,0.03125t-0.00390625,0.0390625l0,0.0625q0.15625-0.125,0.44140625-0.33984375t0.40234375-0.30078125z M144.274125,28.03125q0,0.0078125,0.14453125-0.08203125t0.30078125-0.1953125t0.1953125-0.13671875q0.125-0.078125,0.375-0.24609375t0.375-0.24609375q0.015625-0.015625,0.27734375-0.1875t0.46875-0.3359375t0.18359375-0.21875q-0.2265625,0.1328125-0.6875,0.3984375t-0.6875,0.40625q-0.796875,0.4609375-0.8359375,0.4765625q-0.140625,0.078125-0.140625,0.1640625q0,0.015625,0.03125,0.203125z M142.867875,29.265625l0.015625,0l-0.015625,0q-0.0234375,0-0.1015625-0.015625t-0.109375-0.015625q-0.078125,0-0.09375,0.046875q0.015625,0.046875,0.015625,0.2734375q0,0.125-0.015625,0.171875q0.1171875-0.0546875,0.234375-0.1328125t0.26171875-0.17578125t0.22265625-0.15234375l-0.2734375,0l-0.140625,0z M142.7038125,30.1015625q0.0078125,0,0.03125-0.01171875t0.03125-0.01171875q0.0234375,0,0.0625,0.01171875t0.0546875,0.01171875q0.0390625,0,0.09375-0.0546875q0.0625-0.078125,0.203125-0.21875q0.21875-0.21875,0.8359375-0.703125q0.875-0.671875,2.5078125-1.78125q-0.109375,0.0234375-0.2265625,0.08203125t-0.1796875,0.1015625t-0.19921875,0.15234375t-0.17578125,0.1328125q-0.59375,0.390625-0.625,0.4140625q-0.0859375,0.0546875-0.4375,0.26953125t-0.5390625,0.35546875q-0.0234375,0.1171875-0.08984375,0.1640625t-0.1796875,0.07421875t-0.17578125,0.06640625q-0.015625,0.0703125-0.07421875,0.1171875t-0.13671875,0.0390625q-0.0625,0.0390625-0.19140625,0.12890625t-0.19140625,0.12890625q-0.359375,0.25-0.5234375,0.3359375q0,0.140625-0.015625,0.171875q0,0.0546875,0.046875,0.0546875q0.015625,0,0.05078125-0.015625t0.04296875-0.015625z M146.992875,29.5390625l-0.125,0.078125l0.140625-0.09375l-0.015625,0.015625q-0.0859375,0.0546875-0.390625,0.23828125t-0.4609375,0.28515625q0.1171875,0.0390625,0.1328125,0.0390625t0.046875-0.01171875t0.046875-0.01171875q0.0390625,0,0.0625,0.015625l0.03125,0.0078125q0.03125,0,0.0859375-0.0546875q0.015625-0.0078125,0.21875-0.171875q0.4609375-0.421875,0.578125-0.5625q-0.2734375,0.171875-0.3515625,0.2265625z M147.774125,29.5546875l-0.140625,0.078125q0.0390625,0,0.140625-0.078125q-0.5546875,0.296875-0.9609375,0.578125l0.0703125,0q0.0546875,0,0.10546875-0.015625t0.07421875-0.02734375t0.09375-0.06640625t0.09375-0.0703125q0.0859375-0.0625,0.2578125-0.19921875t0.265625-0.19921875z M148.0319375,30.0625l0.09375,0q-0.015625-0.0625-0.015625-0.203125l0-0.078125q-0.1640625,0.078125-0.3828125,0.21875q0.0390625,0.0078125,0.140625,0.03125t0.1640625,0.03125z M161.24865625,29.125q0.015625,0.015625,0.015625,0.046875q0,0.0625-0.09375,0.15625q-0.0625,0.0625-0.0625,0.09375l0,0.0703125q0.015625,0.03125,0.015625,0.125t-0.015625,0.125l0,0.0703125l0,0.1875l0,0.078125q0,0.15625-0.1015625,0.2578125q-0.0703125,0.1171875-0.25,0.1171875l-0.046875,0q-0.015625,0.0078125-0.078125,0.05078125t-0.1015625,0.04296875t-0.06640625-0.03125t-0.07421875-0.03125q-0.1171875,0-0.2890625-0.0859375l-0.0625,0l-0.1640625,0q-0.03125,0.03125-0.08984375,0.05078125t-0.13671875,0.03125t-0.109375,0.01953125l-0.078125,0q-0.125,0-0.2421875-0.046875l-0.078125,0q-0.1796875,0-0.2109375-0.015625l-0.046875,0q-0.03125,0-0.109375-0.0390625q-0.078125,0.0390625-0.0859375,0.0390625q-0.015625,0-0.03515625-0.01171875t-0.02734375-0.01171875l-0.078125,0l-0.140625,0l-0.015625,0q-0.0078125,0-0.0390625,0.01171875t-0.046875,0.01171875l-0.078125,0q-0.15625,0-0.2734375-0.0390625q-0.109375,0.0546875-0.234375,0.0546875q-0.0546875,0-0.0703125-0.015625q-0.015625-0.0546875-0.078125-0.0546875l-0.0625,0q-0.0625,0-0.09375-0.03125q-0.0625,0.03125-0.1171875,0.03125q-0.046875,0-0.09375,0.0390625t-0.078125,0.046875q-0.078125,0.046875-0.2734375,0.046875q-0.1796875,0-0.2734375-0.0625q-0.015625,0-0.06640625,0.0078125t-0.07421875,0.0078125t-0.07421875-0.0078125t-0.07421875-0.0078125q-0.1015625-0.0234375-0.16796875-0.1171875t-0.06640625-0.203125q0-0.0859375,0.015625-0.1171875q-0.015625-0.0625-0.015625-0.234375q0-0.1953125,0.015625-0.2578125q-0.0546875-0.1484375-0.0546875-0.46875q-0.0078125-0.2109375,0.0703125-0.28125t0.21875-0.0703125q0.0546875,0,0.16796875,0.0078125t0.16796875,0.0078125q0.28125,0,0.3515625-0.203125l0-0.03125q0-0.109375,0.0703125-0.2109375q0-0.1484375,0.03125-0.2421875q-0.015625-0.046875-0.015625-0.15625l0-0.2109375l0-0.09375q-0.09375,0.03125-0.1171875,0.03125q-0.0625,0-0.0625-0.078125q0-0.09375,0.078125-0.1953125q0.046875-0.0703125,0.046875-0.140625q0-0.03125-0.0078125-0.09765625t-0.0078125-0.09765625q0-0.078125,0.015625-0.109375q0.0078125-0.125,0.03515625-0.3515625t0.03515625-0.3359375q0-0.046875,0.0078125-0.15234375t0.0078125-0.15234375q-0.03125-0.1875-0.03125-0.3203125q-0.015625-0.03125-0.015625-0.1640625l0-0.03125q0-0.03125-0.0390625-0.03125l-0.015625,0q-0.0625-0.0234375-0.0625-0.09375q0.0078125-0.03125,0.0546875-0.0625t0.046875-0.0625l0-0.0859375l0-0.125l0-0.0625q-0.015625-0.0625-0.078125-0.23828125t-0.0703125-0.26171875q-0.0390625-0.0625-0.171875-0.171875q-0.03125-0.015625-0.0625-0.0390625t-0.05859375-0.03125t-0.07421875-0.0078125q-0.0234375,0-0.0703125,0.0078125t-0.0703125,0.0078125q-0.0546875,0-0.0703125-0.015625q-0.0234375-0.0078125-0.10546875-0.015625t-0.12890625-0.0234375q-0.0078125,0-0.0234375,0.0078125t-0.0234375,0.0078125q-0.0390625,0-0.0703125-0.03125q-0.0703125,0.0625-0.125,0.0859375l-0.0625,0q-0.015625,0-0.05078125-0.0078125t-0.05078125-0.0078125t-0.109375,0.046875q-0.046875,0.0703125-0.2265625,0.25q-0.0546875,0.0546875-0.16015625,0.125t-0.13671875,0.1015625q-0.0546875,0.0390625-0.06640625,0.0546875t-0.015625,0.046875t-0.03515625,0.078125q0,0.015625-0.125,0.3828125q0.015625-0.015625,0.046875-0.015625q0.078125,0,0.078125,0.0625q0,0.0078125-0.0078125,0.0234375t-0.0078125,0.0234375q-0.0078125,0.03125-0.08203125,0.09375t-0.07421875,0.0859375q0.015625,0.046875,0.015625,0.171875l0,0.0625q0.015625,0.03125,0.015625,0.1328125q0,0.1953125-0.078125,0.4296875q0.09375-0.0625,0.1875-0.0625l0.03125,0q0.078125,0.0234375,0.078125,0.0625q0,0.0546875-0.171875,0.2265625q-0.109375,0.0703125-0.109375,0.15625q0,0.0234375,0.0078125,0.0703125t0.0078125,0.078125q0.03125-0.015625,0.0625-0.015625q0.046875,0,0.046875,0.03125q0,0.0390625-0.046875,0.1171875l-0.046875,0.0703125q0.03125,0.125,0.03125,0.2578125q0,0.0625-0.015625,0.09375q0,0.0078125-0.0078125,0.0234375t-0.0078125,0.0234375q0,0.015625,0.0078125,0.0234375t0.0234375,0.02734375t0.03125,0.03515625q0.015625,0.03125,0.015625,0.09375q0,0.0859375-0.046875,0.15625t-0.046875,0.1171875q0,0.03125,0.015625,0.09765625t0.015625,0.10546875q0.03125,0.0546875,0.078125,0.40625q0.0078125,0.015625,0.01171875,0.04296875t0.0078125,0.03515625t0.0078125,0.0234375t0.0078125,0.01953125t0.015625,0.01953125t0.0234375,0.02734375l0.03515625,0.03515625q0.0390625,0,0.1640625,0.0625q0.03125,0.015625,0.06640625,0.01953125t0.078125,0.0078125t0.07421875,0.01171875q0.046875-0.0234375,0.0859375-0.0234375t0.11328125,0.03515625t0.10546875,0.03515625l0.015625,0q0.09375-0.03125,0.1015625-0.03125q0.03125,0,0.03125,0.046875q0,0.0390625-0.0390625,0.1328125l-0.0390625,0.0859375q0.0078125,0.03125,0.015625,0.109375t0.015625,0.1171875q0.046875,0.140625,0.046875,0.3671875q0,0.171875-0.046875,0.2890625q-0.046875,0.0234375-0.046875,0.046875q0,0.015625,0.015625,0.015625q0.03125,0.0625,0.03125,0.078125q0,0.0390625-0.03125,0.1015625l-0.0390625,0.078125q-0.09375,0.125-0.21875,0.125q-0.046875,0-0.0625-0.015625l-0.015625,0l-0.0390625,0q-0.03125,0-0.046875,0.03125q0.03125,0.03125,0.03125,0.0703125q0,0.046875-0.0625,0.078125q-0.046875,0.046875-0.078125,0.046875q-0.0625,0-0.0625-0.09375q0-0.0703125,0.03125-0.1328125q-0.015625,0-0.0546875,0.0078125t-0.0546875,0.0078125q-0.0625,0-0.18359375-0.015625t-0.17578125-0.015625q-0.1484375,0.1484375-0.265625,0.1484375q-0.046875-0.015625-0.046875-0.046875l0-0.015625q-0.0390625,0-0.0703125,0.015625q-0.015625,0-0.078125,0.0078125t-0.09375,0.0078125q-0.1171875,0-0.1796875-0.03125q-0.015625,0.015625-0.0625,0.015625q-0.0234375,0-0.0703125-0.01953125t-0.0703125-0.01953125t-0.046875,0.0234375q-0.0703125,0.046875-0.1640625,0.046875q-0.0546875,0-0.18359375-0.0234375t-0.18359375-0.0234375q-0.046875,0-0.16015625,0.06640625t-0.12890625,0.07421875q-0.015625,0.015625-0.171875,0.015625q-0.0859375,0-0.0859375-0.09375q-0.015625,0.015625-0.0625,0.015625q-0.09375,0-0.09375-0.0625q0-0.0078125,0.0078125-0.02734375t0.0078125-0.02734375q-0.015625,0-0.03515625-0.0078125t-0.02734375-0.0078125t-0.1015625,0.03125q-0.015625,0-0.0390625,0.01171875t-0.0390625,0.01171875q-0.03125,0-0.1015625-0.01953125t-0.1015625-0.01953125q-0.0546875,0-0.0859375,0.015625l-0.046875,0q-0.046875,0-0.09375-0.046875q-0.09375,0.03125-0.1640625,0.03125l-0.03125,0q-0.03125,0-0.1015625,0.01953125t-0.1015625,0.01953125l-0.03125,0q-0.265625,0-0.375-0.0703125l-0.03125,0.015625q-0.0234375,0-0.05078125-0.015625t-0.04296875-0.015625l-0.015625,0q-0.0078125,0.0078125-0.04296875,0.03125t-0.06640625,0.03125q-0.0859375,0.0859375-0.1640625,0.0859375l-0.015625,0q-0.0625-0.0234375-0.0625-0.0625t0.04296875-0.09375t0.09375-0.09375t0.10546875-0.078125l0.046875-0.0390625q-0.046875-0.125-0.046875-0.484375l0-0.09375l0-0.1640625q0-0.09375,0.015625-0.140625q-0.03125,0.03125-0.0625,0.03125t-0.06640625-0.02734375t-0.03515625-0.05078125q0-0.046875,0.03125-0.0625q0.015625-0.0234375,0.0703125-0.046875t0.0625-0.0703125l0-0.046875q0-0.1328125,0.08984375-0.2109375t0.21484375-0.078125q0.09375,0,0.140625,0.03125q0.03125,0,0.08984375,0.0078125t0.08984375,0.0078125l0.125,0q0.078125,0,0.15625-0.078125q0.03125-0.03125,0.0859375-0.03125q0.015625,0,0.046875,0.015625t0.046875,0.015625q0.03125,0,0.03125-0.078125q0-0.1484375,0.0625-0.2734375q0.015625-0.0546875,0.03125-0.171875t0.015625-0.1328125l0-0.03125q0-0.0546875,0.02734375-0.203125t0.02734375-0.1640625q-0.0859375-0.3046875-0.0859375-0.4453125q0-0.015625,0.0078125-0.05078125t0.0078125-0.05078125q0-0.0234375-0.0078125-0.09375t-0.0078125-0.109375q0-0.046875,0.0078125-0.1171875t0.0078125-0.078125q-0.015625-0.0625-0.015625-0.2734375l0-0.28125l0-0.0703125l0-0.109375q0-0.1328125,0.046875-0.2109375q0-0.0703125-0.0078125-0.2109375t-0.0078125-0.203125q-0.046875-0.1796875-0.046875-0.59375l0-0.3046875q-0.0078125-0.015625-0.0078125-0.07421875t-0.01171875-0.09765625t-0.04296875-0.046875q-0.046875-0.0078125-0.0859375-0.05859375t-0.0859375-0.05859375q-0.34375-0.046875-0.671875-0.046875q-0.1328125,0-0.203125-0.1875t-0.0703125-0.421875q0-0.140625,0.03125-0.234375q-0.125,0.0625-0.1640625,0.0625q-0.0625,0-0.0625-0.078125q0-0.0625,0.1171875-0.16796875t0.125-0.15234375q-0.03125-0.09375-0.03125-0.1953125q0-0.3046875,0.1875-0.3046875l0.0703125,0q0.125-0.03125,0.171875-0.03125q0.1171875,0,0.1796875,0.078125q0.15625-0.078125,0.28125-0.078125q0.0078125,0,0.02734375,0.0078125t0.02734375,0.0078125q0.046875,0,0.09375,0.046875q0.09375-0.09375,0.171875-0.09375q0.0703125,0,0.2109375,0.046875l0.03125,0q0.0234375,0,0.06640625,0.015625t0.06640625,0.015625q0.015625-0.0078125,0.0703125-0.015625t0.0703125-0.015625q0.0078125,0,0.03125-0.0078125t0.03125-0.0078125q0.03125,0,0.09375,0.015625t0.0859375,0.015625q0.015625,0,0.03515625-0.0078125t0.02734375-0.0078125q0.125-0.03125,0.203125-0.03125l0.0546875,0q0.03125-0.015625,0.078125-0.015625q0.0625,0,0.078125,0.015625l0.0625,0.03125q0.015625,0,0.04296875-0.01953125t0.05859375-0.02734375l0.0625,0q0.09375,0,0.3671875,0.078125q0.0234375,0,0.06640625,0.0078125t0.05859375,0.0078125q0.0234375,0,0.07421875-0.0078125t0.07421875-0.0078125q0.03125-0.0078125,0.10546875-0.05078125t0.12890625-0.04296875t0.0703125,0.015625q0.1171875-0.0390625,0.1796875,0.03125t0.07421875,0.15234375t0.01171875,0.21484375l0,0.1171875q0.0078125,0.0234375-0.01171875,0.140625t-0.01953125,0.15625q0,0.0859375,0.03125,0.1015625q0.0390625-0.1015625,0.2265625-0.3203125q0.0234375-0.0234375,0.15625-0.1015625t0.1484375-0.109375q0.015625-0.0390625,0.0703125-0.09375t0.0703125-0.09375q0.0546875-0.109375,0.1484375-0.1796875q0.0703125-0.046875,0.125-0.046875q0.1171875,0,0.2109375,0.09375q0.109375,0.109375,0.109375,0.2421875q0,0.0625-0.02734375,0.1171875t-0.0859375,0.109375t-0.109375,0.09765625t-0.140625,0.09375t-0.13671875,0.07421875t-0.140625,0.06640625t-0.109375,0.05078125q-0.125,0.0546875-0.125,0.109375l0,0.046875q0,0.046875-0.0546875,0.1015625q-0.0390625,0.0625-0.15625,0.1328125t-0.140625,0.1015625q-0.015625,0.0390625-0.06640625,0.0625t-0.06640625,0.0390625q-0.0703125,0.109375-0.140625,0.125q-0.015625,0.015625-0.0625,0.015625q-0.125,0-0.1484375-0.09375q-0.125,0.1015625-0.56640625,0.44921875t-0.66796875,0.54296875q0.6015625-0.4140625,1.35546875-0.8515625t1.30859375-0.7265625t1.4375-0.7265625q-0.03125-0.015625-0.1328125-0.015625q-0.0390625,0-0.125,0.0078125t-0.125,0.0078125l-0.0703125,0q-0.03125,0-0.08203125,0.03125t-0.07421875,0.03125q-0.046875,0-0.078125-0.03125q-0.1171875-0.03125-0.1171875-0.1328125q0-0.046875,0.015625-0.0625q0.203125-0.25,0.421875-0.25l0.078125,0l0.171875,0q0.1328125,0,0.1953125,0.015625q0.1640625,0,0.2578125,0.03125l0.0625,0l0.109375,0q0.0546875,0,0.1953125,0.02734375t0.171875,0.05078125q0.0703125,0.0390625,0.2890625,0.078125q0.0390625,0.015625,0.12890625,0.0703125t0.14453125,0.0625q0.0625,0,0.140625,0.04296875t0.16796875,0.109375t0.12109375,0.08203125q0.1328125,0.0625,0.2265625,0.2265625q0.03125,0.0546875,0.11328125,0.15234375t0.11328125,0.15234375q0.03125,0.046875,0.1015625,0.14453125t0.1015625,0.14453125q0.1171875,0.1640625,0.1171875,0.3984375q0,0.0390625-0.0078125,0.109375t-0.0078125,0.1015625q0.1796875-0.1171875,0.21875-0.1171875q0.0546875,0,0.078125,0.078125l0,0.0390625q0,0.0859375-0.046875,0.15625q-0.0078125,0.015625-0.05859375,0.0703125t-0.08984375,0.10546875t-0.0390625,0.08203125q0.03125,0.0625,0.03125,0.140625q0,0.0703125-0.03125,0.1640625q0.015625,0.140625,0.015625,0.4453125q0.03125,0.109375,0.03125,0.4296875q0,0.328125-0.03125,0.421875q0.03125,0.15625,0.03125,0.28125l0,0.0703125q0.03125,0.15625,0.03125,0.28125l0,0.1015625q0.0078125,0.0390625,0.0078125,0.078125q0,0.0234375,0.046875,0.0234375q0.03125,0.0078125,0.0546875,0.0078125q0.0859375,0.03125,0.0859375,0.109375q0,0.0703125-0.0859375,0.0703125q-0.0625-0.0078125-0.0859375,0.01171875t-0.0234375,0.05078125t-0.00390625,0.0859375t-0.02734375,0.1015625l0,0.0546875l0,0.03125l0.046875,0.0625q0.015625,0.015625,0.015625,0.046875q0,0.0234375-0.0234375,0.046875t-0.05859375,0.046875t-0.04296875,0.03125l0,0.3046875l0,0.1484375q0.0078125,0.015625,0.046875,0.140625t0.046875,0.1796875q0.046875,0.09375,0.07421875,0.11328125t0.13671875,0.04296875q0.078125,0.03125,0.3359375,0.0625q0.0703125,0.015625,0.22265625,0.01953125t0.23828125,0.02734375q0.0625-0.0078125,0.1015625,0.015625t0.05859375,0.078125t0.02734375,0.08984375t0.015625,0.1171875t0.0078125,0.08984375l0.109375-0.0546875q0.0390625,0,0.0625,0.0390625z M160.31896875,30.03125l0-0.015625l0,0.015625q0.0703125-0.046875,0.1015625-0.140625q-0.109375,0.0859375-0.1953125,0.125l0.046875,0q0.03125,0,0.046875,0.015625z M160.74084375,29.6953125l-0.015625-0.03125q-0.015625,0-0.0859375,0.1328125l-0.03515625,0.0703125t-0.04296875,0.08203125t-0.03125,0.06640625q0.0234375-0.0078125,0.078125-0.015625t0.08203125-0.03125t0.03515625-0.078125q0-0.1484375,0.015625-0.1953125z M160.22521875,29.0859375q-0.078125,0.015625-0.2109375,0.1484375q-0.1171875,0.140625-0.234375,0.3046875q-0.2109375,0.234375-0.3671875,0.4609375q0.25,0,0.3828125-0.078125q0.2265625-0.125,0.75-0.4609375q0.0234375-0.0078125,0.0625-0.03125t0.046875-0.02734375t0.03125-0.0234375t0.02734375-0.03515625t0.0078125-0.04296875t0.00390625-0.06640625l0-0.046875q0-0.015625-0.015625-0.015625q-0.0390625,0-0.2734375-0.046875l-0.046875,0q-0.046875,0-0.1640625-0.0390625z M158.06896875,30.015625l0.0625-0.046875q-0.0625,0.03125-0.0625,0.046875q0.1640625-0.0859375,0.328125-0.1796875t0.35546875-0.2265625t0.29296875-0.20703125t0.3359375-0.25l0.296875-0.22265625q-0.109375-0.0625-0.140625-0.2734375q-0.265625,0.2265625-0.80078125,0.66015625t-0.80078125,0.65234375q0.015625,0.0078125,0.06640625,0.0234375t0.06640625,0.0234375z M159.74865625,29.125l0.015625-0.015625l-0.015625,0.015625q-0.0078125,0.0078125-0.03515625,0.0234375t-0.03515625,0.0234375q0.1953125-0.1171875,0.2578125-0.1484375q-0.0625,0-0.1875,0.1015625z M159.41271875,27.984375q0,0.0078125-0.328125,0.23046875t-0.3984375,0.26953125q-0.359375,0.2578125-0.8125,0.5546875q-0.703125,0.453125-0.9453125,0.71875q-0.1328125,0.1484375-0.21875,0.2890625l0.03125,0q0.046875,0,0.2265625-0.06640625t0.234375-0.05859375q0.0390625,0,0.1015625-0.03125t0.14453125-0.0859375t0.08984375-0.0625q0.4375-0.25,1.0703125-0.6875q0.0859375-0.0546875,0.2734375-0.17578125t0.2734375-0.17578125q0.0078125-0.0078125,0.0703125-0.04296875t0.1171875-0.0703125t0.1015625-0.07421875t0.046875-0.0625q-0.09375-0.15625-0.09375-0.375q0-0.015625,0.0078125-0.046875t0.0078125-0.046875z M157.39709375,27.21875l0.25-0.1484375q-0.25,0.1328125-0.25,0.1484375q0.171875-0.1015625,0.484375-0.2890625t0.5703125-0.33984375t0.4921875-0.28515625q0.078125-0.0546875,0.25-0.1484375t0.21875-0.125q0.046875-0.0234375,0.046875-0.171875q0-0.0390625-0.0078125-0.09375l-0.0078125-0.0546875q-0.71875,0.4609375-1.296875,0.8671875q-0.03125,0.0234375-0.24609375,0.16015625t-0.359375,0.26171875t-0.14453125,0.21875z M159.36584375,26.3203125l0.015625,0l-0.015625,0q0.078125-0.09375,0.078125-0.109375q-0.046875,0.03125-0.21875,0.14453125t-0.25,0.17578125q0.015625-0.0078125,0.10546875-0.07421875t0.1640625-0.10546875t0.12109375-0.03125z M157.39709375,26.9140625l0,0.03125q0.0546875-0.0390625,0.16015625-0.12109375t0.16015625-0.12109375q-0.0078125,0-0.09375,0.05859375t-0.1328125,0.05859375q-0.0546875,0-0.078125-0.046875q0,0.0234375-0.0078125,0.0703125t-0.0078125,0.0703125z M157.67834375,26.546875q0.171875-0.1015625,0.51953125-0.30078125t0.52734375-0.30859375q0.09375-0.0546875,0.28125-0.16796875t0.2890625-0.16796875q0.0078125-0.0078125,0.03515625-0.015625t0.04296875-0.015625t0.0234375-0.015625q0.046875-0.015625,0.046875-0.078125l0-0.0859375l0-0.0625q-0.265625,0.234375-0.8828125,0.609375t-0.8828125,0.609375z M159.41271875,24.8359375l-0.03125,0.046875q0.03125-0.03125,0.03125-0.046875q-0.1171875,0.1171875-0.3671875,0.3046875q0.0234375-0.015625,0.14453125-0.0703125t0.1796875-0.109375t0.04296875-0.125z M159.42834375,25.109375l-0.1171875,0.046875l0.1171875-0.046875q-0.34375,0.1640625-1.28125,0.78125q-0.109375,0.0625-0.32421875,0.19921875t-0.33203125,0.19921875q-0.078125,0.0390625-0.078125,0.2109375q0,0.0234375,0.0078125,0.06640625t0.0078125,0.05859375q0.0625-0.1484375,0.19140625-0.26171875t0.40234375-0.27734375l0.28125-0.1640625q0.5234375-0.3359375,0.7421875-0.5q0.09375-0.046875,0.2421875-0.15625t0.140625-0.15625z M157.44396875,27.953125l0.078125-0.078125l-0.078125,0.078125q0.203125-0.203125,0.6875-0.625q-0.4296875,0.2421875-0.59375,0.2890625q-0.09375,0.015625-0.09375,0.125l0,0.1328125l0,0.078125z M157.45959375,28.2421875q0,0.0078125,0.16796875-0.1015625t0.23046875-0.15625q0.078125-0.0546875,0.23046875-0.16015625t0.23046875-0.16015625q0.59375-0.390625,0.8359375-0.5078125q0.0234375-0.0078125,0.12109375-0.046875t0.16015625-0.078125t0.0703125-0.0703125q-0.0078125-0.0546875-0.01171875-0.23828125t-0.01953125-0.26953125q-0.6484375,0.453125-1.3125,1.0390625q-0.03125,0.0234375-0.2421875,0.19140625t-0.328125,0.30078125t-0.1328125,0.2578125z M159.74865625,24.3046875l0-0.015625l0,0.015625q0.0078125-0.0078125,0.02734375-0.03515625t0.03515625-0.04296875q-0.015625,0.015625-0.0390625,0.0234375t-0.03125,0.01171875t-0.0078125,0.01171875t0.0078125,0.015625t0.0078125,0.015625z M157.66271875,25.34375q0.1796875-0.09375,0.1796875-0.125q-0.0546875,0-0.1796875,0.125q0.359375-0.171875,1.125-0.640625q0.0234375-0.015625,0.140625-0.08203125t0.20703125-0.1171875t0.16796875-0.1171875t0.078125-0.11328125q-0.0390625-0.1953125-0.0390625-0.2578125q-0.0859375,0.0625-0.41796875,0.2890625t-0.48046875,0.3359375t-0.3828125,0.3125t-0.3984375,0.390625z M159.31115625,23.6484375q-0.0078125-0.0078125-0.15625-0.203125q-0.3046875,0.328125-1.34375,1.2265625q1.0703125-0.6484375,1.1953125-0.71875q0.03125-0.0078125,0.09765625-0.04296875t0.12890625-0.0546875t0.109375-0.01171875q0-0.1171875-0.03125-0.1953125z M158.80334375,23.0078125q-0.015625-0.015625-0.03125-0.015625q0.015625,0.015625,0.015625,0.078125q0,0.125-0.2265625,0.3046875q0.328125-0.1640625,0.3984375-0.1875q-0.1171875-0.15625-0.15625-0.1796875z M158.30334375,22.734375q-0.046875-0.0078125-0.1015625-0.03515625t-0.0859375-0.02734375q-0.0390625,0-0.1015625,0.03125q-0.03125,0.0234375-0.04296875,0.0390625t-0.01171875,0.03125t-0.00390625,0.0390625t-0.01953125,0.0546875q-0.0625,0.140625-0.1640625,0.28515625t-0.25,0.3203125t-0.2109375,0.26953125q0.125-0.0703125,0.3671875-0.21484375t0.359375-0.21484375q0.234375-0.1171875,0.4453125-0.2578125q0.015625-0.0078125,0.06640625-0.0390625t0.08984375-0.05078125t0.0703125-0.01953125q-0.0078125-0.0078125-0.1640625-0.1015625t-0.2421875-0.109375z M157.21740625,24.1953125l0.046875-0.046875l-0.046875,0.046875q0.1640625-0.140625,0.609375-0.44921875t0.65625-0.51171875q-0.6640625,0.390625-0.71875,0.4140625q-0.0078125,0-0.2578125,0.16796875t-0.3828125,0.19921875q0.0078125,0.0078125,0.09375,0.1796875z M154.38928125,24.9296875l0.015625-0.015625l-0.015625,0.015625q0.0546875-0.0390625,0.09375-0.0859375t0.05078125-0.08203125l0.03515625-0.10546875t0.0390625-0.109375q-0.890625,0.5-1.375,0.8125q-0.1171875,0.0703125-0.359375,0.21875t-0.359375,0.21875q-0.109375,0.0703125-0.14453125,0.140625t-0.03515625,0.2109375q0.5546875-0.4296875,1.109375-0.8046875q0.03125-0.0234375,0.22265625-0.15625t0.33984375-0.203125t0.28125-0.0703125q0.0703125,0,0.1015625,0.015625z M154.27209375,23.0703125l-0.21875,0.1953125q0.21875-0.1796875,0.21875-0.1953125q-1.390625,1.203125-1.53125,1.328125q0.1875-0.109375,0.5390625-0.30859375t0.453125-0.26171875q0.3515625-0.1953125,0.4453125-0.2578125q0.0390625-0.0234375,0.05859375-0.1171875t0.02734375-0.2265625t0.0078125-0.15625z M153.31115625,23.6953125l-0.125,0.1171875q0.03125-0.0390625,0.125-0.1171875q0.0703125-0.0703125,0.1640625-0.140625q-0.75,0.46875-1.0390625,0.59375q-0.1484375,0.046875-0.1484375,0.078125q0.015625,0.0546875,0.03125,0.19140625t0.015625,0.16015625q0.1015625-0.109375,0.234375-0.23828125t0.2265625-0.2109375t0.26953125-0.2265625t0.24609375-0.20703125z M152.38928125,25.6171875l0.015625-0.015625l-0.015625,0.015625q0.015625,0,0.015625,0.03125q0,0.015625-0.015625,0.03125q0.046875-0.03125,0.17578125-0.1015625t0.19140625-0.1171875q-0.09375,0.03125-0.1953125,0.03125q-0.046875,0-0.140625-0.03125q-0.03125,0.03125-0.03125,0.0625l0,0.0625l0,0.03125z M152.35021875,27.0703125l0.2109375-0.15625q-0.2109375,0.140625-0.2109375,0.15625q0.984375-0.7109375,1.5546875-1.1328125q-1.0703125,0.640625-1.296875,0.765625q-0.0234375,0.0078125-0.10546875,0.05078125t-0.12890625,0.05078125q-0.0390625,0.0234375-0.0390625,0.09375q0,0.0390625,0.0078125,0.1015625t0.0078125,0.0703125z M152.33459375,26.5625l0.015625-0.015625q-0.015625,0-0.015625,0.015625q0.234375-0.1796875,0.89453125-0.6171875t0.98046875-0.7109375q-0.71875,0.453125-1.453125,0.8671875q-0.015625,0.0078125-0.3515625,0.203125q-0.0703125,0.0390625-0.0703125,0.1328125l0,0.125z M153.56896875,25.4453125q0.015625-0.015625,0.03515625-0.02734375t0.02734375-0.01953125t0.015625-0.0078125q-0.03125,0.0234375-0.078125,0.0546875q0.046875-0.0234375,0.13671875-0.08203125t0.13671875-0.08203125q-0.046875,0.0234375-0.13671875,0.08203125t-0.13671875,0.08203125z M157.41271875,22.578125l0.015625,0l-0.015625,0q-0.0625-0.0078125-0.1328125,0.02734375t-0.15625,0.10546875t-0.1171875,0.09375q-0.078125,0.0625-1.0390625,0.765625q0.2890625-0.1796875,1.8125-0.9765625q-0.09375-0.03125-0.1640625-0.03125q-0.03125,0-0.09765625,0.0078125t-0.10546875,0.0078125z M156.52990625,22.9609375l-0.640625,0.3515625q0,0.0078125,0.11328125-0.046875t0.2734375-0.14453125t0.25390625-0.16015625q-0.1015625,0.0546875-0.65625,0.34375t-0.73046875,0.3828125t-0.640625,0.3515625t-0.71484375,0.41796875t-0.59765625,0.3984375t-0.62890625,0.47265625q0.1328125,0,0.27734375-0.03515625t0.32421875-0.125l0.265625-0.1328125t0.30078125-0.1796875t0.23828125-0.15234375q0.2734375-0.1640625,0.7421875-0.4609375q0.0546875-0.0390625,0.15625-0.12109375t0.15625-0.12109375q0.03125-0.140625,0.1328125-0.140625q0.0625-0.03125,0.078125-0.03125t0.03515625,0.0078125t0.02734375,0.0078125q0.140625-0.09375,0.1640625-0.1171875q0.3515625-0.234375,0.4140625-0.28125q0.109375-0.078125,0.32421875-0.2421875t0.33203125-0.2421875z M153.47521875,24.2265625l0.015625-0.015625q0.015625,0-0.1484375,0.109375q0.0390625-0.015625,0.1328125-0.09375q0.1015625-0.0703125,0.3046875-0.2421875q-0.15625,0.09375-0.4765625,0.2734375t-0.484375,0.2734375q-0.0703125,0.046875-0.22265625,0.13671875t-0.22265625,0.13671875q-0.0390625,0.0234375-0.0390625,0.125q0,0.0546875,0.0078125,0.15625t0.0078125,0.1171875q0.109375-0.1328125,0.265625-0.28125t0.265625-0.234375t0.31640625-0.24609375t0.27734375-0.21484375z M152.08459375,22.703125l-0.015625,0l0.015625,0q-0.0234375,0.015625-0.11328125,0.03125t-0.12890625,0.0703125q-0.15625,0.234375-0.1796875,0.28125q-0.125,0.171875-0.3203125,0.5q0.171875-0.09375,0.71484375-0.37890625t0.82421875-0.45703125q-0.15625,0.0390625-0.2890625,0.0390625q-0.078125,0-0.109375-0.015625q-0.0625,0-0.19921875-0.03515625t-0.19921875-0.03515625z M151.20178125,22.75l-0.03125-0.015625l-0.015625,0q0.015625,0.0234375,0.015625,0.0390625q0.015625-0.0234375,0.03125-0.0234375z M151.17053125,23.5859375q0.0078125,0,0.03515625-0.03515625t0.06640625-0.09375t0.08203125-0.1328125t0.08984375-0.15625t0.08203125-0.1484375t0.06640625-0.1171875t0.0390625-0.06640625q-0.3125,0.1953125-0.3828125,0.234375q-0.0390625,0.015625-0.0546875,0.03515625t-0.015625,0.0390625t-0.00390625,0.05859375t-0.01953125,0.078125l0,0.078125q0,0.1484375,0.015625,0.2265625z M151.73303125,23.6796875l0.0625-0.03125q-0.015625,0-0.0625,0.03125q0.0390625,0,0.1328125,0.0546875t0.1328125,0.046875q0.140625,0,0.2265625,0.109375q0.015625,0.015625,0.03125,0.015625q0.0390625,0,0.1796875-0.09375q0.3125-0.1796875,0.8671875-0.58203125t0.6171875-0.44140625q-0.0234375-0.0078125-0.08203125-0.01953125t-0.1015625-0.0234375t-0.07421875-0.01171875q-0.15625,0-0.203125-0.03125q-0.046875-0.0078125-0.1015625,0.0078125t-0.0859375,0.03125t-0.1015625,0.05859375t-0.078125,0.05078125q-0.3125,0.1875-1.359375,0.828125z M152.40490625,27.5546875q-0.0078125-0.03125,0.19921875-0.19140625t0.46484375-0.34765625l0.2578125-0.1953125q0.15625-0.1171875,0.46875-0.3671875t0.4609375-0.375q-0.234375,0.1484375-0.69140625,0.48046875t-0.69921875,0.48046875q-0.2421875,0.1875-0.4296875,0.2578125q-0.046875,0.015625-0.046875,0.078125q0,0.015625,0.0078125,0.0625t0.0078125,0.0859375l0,0.03125z M154.42053125,25.7421875l-0.0703125,0.0546875l0.0703125-0.0546875q-0.390625,0.3046875-0.453125,0.359375q0.0390625-0.03125,0.15625-0.1015625t0.203125-0.13671875t0.09375-0.12109375z M154.35021875,26.625l-0.203125,0.125q0.203125-0.109375,0.203125-0.125q-0.8125,0.484375-1.1640625,0.703125q-0.125,0.0703125-0.35546875,0.2109375t-0.33203125,0.203125q-0.0625,0.046875-0.078125,0.08203125t-0.03125,0.14453125q0.0859375-0.0546875,0.51171875-0.328125t0.65234375-0.421875q0.0859375-0.046875,0.515625-0.3515625q0.0078125-0.0078125,0.09375-0.05859375t0.13671875-0.09765625t0.05078125-0.0859375z M154.46740625,28.3046875l0,0.015625l0-0.015625q-0.0078125-0.015625-0.3203125,0.16015625t-0.6640625,0.37890625t-0.390625,0.2265625q-0.1171875,0.0703125-0.359375,0.203125t-0.39453125,0.21875t-0.35546875,0.21875t-0.3515625,0.2578125q0.15625,0.03125,0.2734375,0.03125q0.0703125,0,0.1640625-0.03125q0.125-0.0546875,0.265625-0.13671875t0.3046875-0.18359375t0.2578125-0.15625q0.734375-0.484375,1.1171875-0.7421875q0.046875-0.03125,0.17578125-0.11328125t0.19921875-0.13671875q0.078125-0.0625,0.078125-0.0859375l0-0.109375z M154.40490625,28.1171875l0.015625,0l-0.015625,0l0.03125,0q0-0.015625-0.015625-0.015625z M154.40490625,27.28125l-0.0703125,0.015625l0.0703125-0.015625q-0.109375,0.03125-0.234375,0.08984375t-0.1953125,0.1015625t-0.21875,0.13671875t-0.1875,0.1171875q-0.8359375,0.5390625-0.8984375,0.578125q-0.0546875,0.0390625-0.16796875,0.12109375t-0.16796875,0.12109375q-0.078125,0.0625-0.078125,0.09375l0,0.046875l0,0.0625q0.8828125-0.5859375,1.6015625-0.984375q0.1796875-0.1015625,0.4296875-0.2109375q0.1171875-0.0703125,0.1171875-0.2734375z M151.45959375,29.125l-0.015625,0l0.015625,0.015625l0.015625,0q0-0.015625-0.015625-0.015625q-0.0390625,0.015625-0.15625,0.0390625t-0.1796875,0.0703125l0,0.09375l0,0.1796875q0.265625-0.1796875,0.4296875-0.3046875q-0.03125-0.015625-0.09375-0.078125z M151.13928125,29.90625q0,0.015625,0.03125,0.015625l0.15625-0.078125q0.140625-0.1015625,0.2109375-0.1328125q0.359375-0.21875,0.5-0.2890625q0.171875-0.09375,0.515625-0.2890625t0.5078125-0.296875q0.0390625-0.03125,0.40234375-0.26171875t0.55078125-0.36328125q0.0546875-0.0390625,0.16796875-0.12109375t0.16796875-0.12109375q0.0390625-0.0390625,0.0390625-0.078125q0-0.0234375-0.01953125-0.0859375t-0.01953125-0.09375l0-0.03125q-0.5078125,0.234375-1.578125,0.9296875q-0.4296875,0.265625-1.09375,0.703125q-0.421875,0.28125-0.4609375,0.3046875q-0.09375,0.078125-0.09375,0.1484375q0,0.0234375,0.0078125,0.06640625t0.0078125,0.07421875z M152.42053125,29.953125l0.09375-0.046875l-0.09375,0.046875l0.078125,0q0.2265625,0,0.2578125,0.015625q0.0625,0.03125,0.109375,0.03125l0.0625-0.03125q0.03125-0.0390625,0.078125-0.0859375t0.10546875-0.1015625t0.08984375-0.0859375q0.2421875-0.2265625,0.703125-0.6875q-1.15625,0.75-1.484375,0.9453125z M155.42834375,29.5390625q0-0.03125-0.015625-0.046875q-0.1875,0.2109375-0.421875,0.4453125q0.0859375-0.0078125,0.23046875-0.078125t0.16015625-0.078125q0.0078125-0.0390625,0.0234375-0.12109375t0.0234375-0.12109375z M155.17053125,29.5234375q-0.1328125,0.0703125-0.390625,0.22265625t-0.390625,0.22265625l0.171875,0q0.1953125,0,0.2734375-0.078125q0.21875-0.25,0.3359375-0.3671875z M154.81896875,29.0078125l-0.015625,0l0.015625,0q-0.2421875-0.0390625-0.3046875-0.3671875q-0.2265625,0.2265625-0.69140625,0.67578125t-0.69921875,0.66796875q0.4453125-0.2890625,0.84375-0.5078125q0.03125-0.015625,0.24609375-0.140625t0.40234375-0.23046875t0.203125-0.09765625z M154.05334375,27.203125q0.3515625-0.171875,0.3515625-0.2109375q-0.0703125,0.0390625-0.1953125,0.11328125t-0.15625,0.09765625z M153.38146875,27.0234375l0.171875-0.109375l-0.171875,0.109375q0.421875-0.2578125,0.78125-0.4609375q0.171875-0.0859375,0.1875-0.1484375q-0.015625-0.0625-0.015625-0.203125l-1.1953125,0.9609375q0.0390625-0.0234375,0.12109375-0.07421875t0.12109375-0.07421875z M152.83459375,26.3984375l0.2109375-0.125q-0.1484375,0.078125-0.2109375,0.125q0.515625-0.2890625,0.9296875-0.5546875q0.03125-0.015625,0.14453125-0.0703125t0.19140625-0.09765625t0.16015625-0.10546875t0.11328125-0.13671875t0-0.15234375q-0.1953125,0.1953125-0.42578125,0.3671875t-0.62890625,0.43359375t-0.484375,0.31640625z M156.94396875,23.90625l0.015625,0l-0.015625,0q0.03125,0,0.078125,0.046875l0-0.015625q0-0.046875,0.03125-0.10546875t0.08203125-0.125t0.06640625-0.08984375q0.3984375-0.5078125,0.515625-0.671875q-0.71875,0.40625-1.203125,0.703125q0.25,0.1015625,0.4296875,0.2578125z M157.41271875,24.8046875l0-0.015625l0,0.015625l0,0.03125q1.2265625-1.078125,1.6640625-1.5234375q-0.0703125-0.0625-0.4921875,0.2109375t-0.6015625,0.4140625q-0.0390625,0.0234375-0.20703125,0.12890625t-0.328125,0.22265625t-0.15234375,0.1484375q0.0078125,0.0234375,0.04296875,0.10546875t0.05859375,0.15234375t0.015625,0.109375z M157.49084375,25.0703125l0.09375-0.0625q-0.015625,0.015625-0.09375,0.0625q-0.09375,0.046875-0.09375,0.2265625q0,0.0390625,0.015625,0.13671875t0.015625,0.13671875q0.015625,0.0625,0.015625,0.1953125q0,0.21875,0.015625,0.3125q0.9140625-0.625,1.1796875-0.828125q0.03125-0.0234375,0.15625-0.10546875t0.22265625-0.15234375t0.20703125-0.16015625t0.16015625-0.1796875t0.02734375-0.16796875q-0.953125,0.609375-1.4609375,0.875q-0.3125,0.1796875-0.4140625,0.1796875q-0.09375-0.0234375-0.09375-0.09375q0-0.0546875,0.09375-0.1953125q0.078125-0.09375,0.171875-0.1875t0.21484375-0.19140625t0.19921875-0.15625t0.23046875-0.16796875t0.20703125-0.1484375q-0.2578125,0.1484375-1.0703125,0.671875z M157.63146875,27.25q-0.015625,0.0078125-0.07421875,0.03515625t-0.1015625,0.0546875t-0.04296875,0.05078125q0.15625-0.09375,0.21875-0.140625z M157.07678125,29.0078125q-0.03125,0.03125-0.03125,0.046875l0.046875-0.046875l0-0.015625l-0.015625,0.015625q-0.2109375,0.2109375-0.390625,0.2109375q-0.09375,0-0.15625-0.0625q-0.109375,0.21875-0.109375,0.3984375l0,0.09375q0.265625-0.0859375,0.56640625-0.25t0.49609375-0.30078125t0.5234375-0.3828125t0.4765625-0.34765625q0.15625-0.1015625,0.4609375-0.296875t0.453125-0.3046875q0.0078125-0.0390625,0.01171875-0.140625t0.01171875-0.17578125t0.0390625-0.13671875q-0.453125,0.265625-0.9140625,0.5625q-0.09375,0.0625-0.2890625,0.19140625t-0.2890625,0.19140625q-0.015625,0.0078125-0.140625,0.10546875t-0.2421875,0.171875t-0.171875,0.07421875q-0.015625,0-0.046875-0.03125q-0.03125,0.03125-0.0390625,0.1328125t-0.046875,0.140625q-0.046875,0.078125-0.203125,0.15625z M156.51428125,30.046875q0.0703125-0.046875,0.19921875-0.21875t0.16796875-0.2109375q-0.2890625,0.1484375-0.3671875,0.1640625q-0.0703125,0.0234375-0.07421875,0.03125t-0.01953125,0.09375q0,0.0234375,0.00390625,0.0546875t0.0078125,0.0390625t0.0234375,0.0234375t0.05859375,0.0234375z M157.56896875,29.984375l0.03125,0l0.046875,0q0.0546875,0,0.0859375-0.03125q0.09375-0.09375,0.15625-0.125q0.15625-0.15625,0.515625-0.4375q-0.03125,0.0234375-0.39453125,0.24609375t-0.55078125,0.33203125q0.078125,0,0.109375,0.015625z M159.09240625,30.03125l-0.015625,0l0.015625,0q0.0234375-0.0078125,0.078125,0.015625q0.03125,0,0.046875-0.03125q0.0234375-0.03125,0.0625-0.09375t0.0625-0.09375q0.0703125-0.09375,0.2109375-0.265625t0.2109375-0.265625q-0.1953125,0.1171875-0.6015625,0.34375t-0.6015625,0.34375q0.0234375,0,0.109375,0.0078125t0.1015625,0.0078125l0.078125,0q0.1796875,0,0.2421875,0.03125z M171.2544375,27.0546875l0.015625,0l-0.015625,0q0.09375,0.0234375,0.09375,0.1015625q0,0.0703125-0.078125,0.125q-0.0234375,0.0234375-0.0546875,0.046875t-0.04296875,0.0390625t-0.0234375,0.04296875t-0.01171875,0.06640625q0.0625-0.03125,0.078125-0.03125q0.0390625,0,0.0703125,0.03125t0.03125,0.0625t-0.03125,0.09375t-0.2265625,0.2578125q0,0.0625-0.03125,0.125q-0.1015625,0.1796875-0.1640625,0.421875q-0.0078125,0.0390625-0.03125,0.07421875t-0.05859375,0.07421875t-0.05078125,0.0546875q-0.0859375,0.2109375-0.125,0.2421875q-0.015625,0.0625-0.1640625,0.203125q-0.015625,0.0390625-0.04296875,0.05859375t-0.06640625,0.03125t-0.0625,0.02734375q-0.03125,0.078125-0.1796875,0.140625q-0.046875,0.046875-0.046875,0.1171875l0,0.046875q-0.0234375,0.046875-0.2109375,0.171875q-0.1015625,0.0625-0.21875,0.24609375t-0.203125,0.3359375t-0.23828125,0.25390625t-0.34765625,0.046875q-0.0390625-0.0078125-0.1484375-0.09375t-0.171875-0.0703125q-0.03125,0.0078125-0.09765625,0.04296875t-0.10546875,0.04296875q-0.0859375,0.109375-0.3359375,0.109375q-0.1015625,0-0.2265625-0.03125q-0.0625-0.0625-0.140625-0.0625q-0.0078125,0-0.02734375,0.0078125t-0.02734375,0.0078125l-0.09375,0.046875q-0.0390625,0-0.0625-0.046875t-0.140625-0.046875l-0.1796875,0l-0.078125,0q-0.046875,0.03125-0.1796875,0.03125q-0.1015625,0-0.28515625-0.0390625t-0.23828125-0.046875q-0.21875,0-0.3515625-0.078125q-0.1796875,0.1328125-0.2578125,0.1171875q-0.078125,0-0.078125-0.0703125q0-0.046875,0.0625-0.109375q-0.109375,0-0.3671875-0.15625q-0.34375-0.1484375-0.3828125-0.1796875q-0.0078125-0.0078125-0.078125-0.03515625t-0.0859375-0.05859375q-0.0078125,0-0.0234375-0.0078125t-0.0234375-0.0078125q-0.015625,0-0.07421875,0.0234375t-0.10546875,0.0234375q-0.0703125,0-0.109375-0.0625l-0.09375,0.046875q-0.0546875,0-0.078125-0.078125l0-0.015625q0-0.0390625,0.0390625-0.1015625t0.0390625-0.09375q0-0.015625-0.015625-0.03125q-0.1171875-0.078125-0.1640625-0.1484375l-0.09375-0.1875q-0.0625-0.078125-0.125-0.2421875q-0.0078125-0.015625-0.02734375-0.046875t-0.02734375-0.046875q-0.0703125-0.1171875-0.09375-0.1171875q-0.0078125,0-0.01953125,0.01171875t-0.04296875,0.0234375t-0.0625,0.01953125q-0.0625,0.03125-0.1484375,0.03125q-0.09375,0-0.140625-0.0859375q0-0.0078125-0.0078125-0.015625t-0.0078125-0.015625q0-0.0390625,0.0546875-0.08984375t0.140625-0.1015625t0.09375-0.05859375q-0.234375-0.4140625-0.3046875-0.609375q-0.0703125,0.046875-0.1328125,0.046875t-0.0625-0.078125q0-0.15625,0.1171875-0.2734375q-0.0859375-0.1171875-0.0859375-0.3046875l0-0.046875q-0.03125-0.09375-0.03125-0.2421875q0-0.09375,0.015625-0.125q-0.0625-0.1484375-0.0625-0.453125q-0.03125-0.125-0.03125-0.3203125q0-0.171875,0.046875-0.21875l0-0.078125q0-0.1953125,0.03125-0.2578125q-0.015625-0.046875-0.015625-0.1484375q0-0.1953125,0.0625-0.40625t0.1484375-0.28125q0-0.0546875,0.05078125-0.203125t0.08984375-0.1953125l0-0.046875q0-0.1640625,0.046875-0.2578125q0.125-0.3515625,0.40625-0.4765625q0.125-0.046875,0.3515625-0.2421875l0-0.03125q0-0.0859375,0.09375-0.1796875q0.0234375-0.015625,0.04296875-0.02734375t0.03515625-0.01953125t0.02734375-0.01953125t0.01953125-0.03125t0.015625-0.04296875q0-0.046875,0.03125-0.109375q0.0625-0.1484375,0.2578125-0.2578125q0.078125-0.046875,0.25-0.234375t0.3125-0.234375q0.046875-0.015625,0.15625-0.015625q0.0703125-0.046875,0.1328125-0.078125q0.125-0.0625,0.203125-0.0625q0.0390625,0,0.1328125,0.03125q0.0546875,0.0234375,0.171875,0.140625q0.1015625-0.0703125,0.1328125-0.078125q0.046875-0.015625,0.125-0.015625q0.0703125,0.0234375,0.109375,0.0625q0.0546875-0.046875,0.1328125-0.078125q0.03125-0.015625,0.078125-0.015625q0.0625,0,0.09375,0.015625q0.0234375,0,0.1328125-0.03125t0.171875-0.03125l0.03125,0l0.1484375,0q0.3203125,0,0.4296875,0.078125l0.046875,0q0.0859375,0,0.2109375,0.03125q0.0390625,0,0.11328125-0.0078125t0.10546875-0.0078125q0.0859375,0,0.1171875,0.015625q0.03125,0.0078125,0.2109375,0.046875t0.25,0.0859375q0.3515625,0.1171875,0.4296875,0.15625q0.0234375,0.015625,0.08203125,0.0390625t0.08203125,0.0390625l0.109375,0.0546875q0.078125-0.0390625,0.1171875-0.0390625l0.03125,0q0.0546875,0.0078125,0.05859375,0.07421875t0.01953125,0.07421875q0.015625,0,0.140625,0.0625q0.046875,0.0078125,0.1171875,0.0703125t0.09375,0.109375q0.0234375,0.0546875,0.11328125,0.1328125t0.11328125,0.1015625q0.0390625,0.03125,0.078125,0.09765625t0.08203125,0.15234375l0.05859375,0.1171875q0.015625,0.0234375,0.07421875,0.0625t0.05859375,0.0859375t-0.015625,0.078125q0.0078125,0.0078125,0.015625,0.03515625t0.015625,0.04296875q0.015625,0.015625,0.109375,0.2109375q0.078125,0.140625,0.078125,0.3515625q0.015625,0.0625,0.015625,0.2890625q0,0.2109375-0.046875,0.2734375q0,0.1640625-0.0625,0.3828125q-0.015625,0.046875-0.04296875,0.09375t-0.0546875,0.078125t-0.078125,0.0703125t-0.07421875,0.05859375t-0.0859375,0.0625t-0.078125,0.05078125q0.03125,0.0625,0.03125,0.078125q0,0.0859375-0.140625,0.1953125q-0.03125,0.0234375-0.05078125,0.02734375t-0.02734375,0.00390625t-0.02734375,0.01171875t-0.04296875,0.05078125l-0.09375,0.09375q-0.078125,0.0390625-0.09375,0.0390625q-0.0234375,0-0.078125-0.01953125t-0.0859375-0.01953125l-0.03125,0q-0.03125,0.015625-0.1015625,0.03125t-0.125,0.0390625q-0.125,0.0625-0.15625,0.0625q-0.0078125,0-0.0234375-0.0078125t-0.0234375-0.0078125q-0.21875,0.109375-0.3046875,0.109375q-0.1171875,0-0.1171875-0.046875q0-0.0546875,0.0859375-0.140625t0.125-0.1015625q-0.0625-0.0234375-0.203125-0.0625t-0.2109375-0.0625q-0.0234375,0.0078125-0.0859375,0.0546875t-0.109375,0.0390625q-0.0625-0.0234375-0.0625-0.0625q0-0.015625,0.0078125-0.05859375t0.0078125-0.06640625l0-0.015625q-0.0859375-0.0625-0.16015625-0.25390625t-0.09765625-0.23046875q-0.171875-0.296875-0.171875-0.5625q0-0.09375,0.03125-0.125q0-0.0234375,0.04296875-0.15234375t0.06640625-0.15234375q0.0390625-0.3828125,0.1953125-0.5078125q-0.28125-0.09375-0.3515625-0.1796875q-0.0078125,0-0.0234375,0.0078125t-0.0234375,0.0078125q-0.015625,0-0.0390625-0.0078125t-0.03125-0.0078125q-0.078125,0.078125-0.125,0.109375q-0.171875,0.0859375-0.2109375,0.0859375q-0.0078125,0-0.03125-0.0078125t-0.03125-0.0078125q-0.03125-0.015625-0.078125-0.015625q-0.15625,0-0.36328125,0.1171875t-0.32421875,0.234375q-0.03125,0.03125-0.109375,0.078125t-0.1015625,0.078125q-0.078125,0.109375-0.09375,0.125q-0.03125,0.046875-0.125,0.2734375q-0.1484375,0.296875-0.1484375,0.53125l0,0.0625q0.0546875-0.0078125,0.07421875,0.0234375t0.01953125,0.1015625l0,0.0859375q-0.03125,0.0625-0.125,0.1875l0,0.1171875q-0.0234375,0.0625-0.046875,0.1875t-0.03125,0.1640625l0,0.03125q0,0.0234375-0.0078125,0.07421875t-0.0078125,0.06640625q0.046875-0.0078125,0.0703125,0.01953125t0.0234375,0.07421875q0,0.0546875-0.015625,0.0703125q-0.0625,0.1875-0.0625,0.3046875q0,0.65625,0.21875,1.0546875q0.25,0.421875,0.7890625,0.765625q0.015625,0.0078125,0.0703125,0.0390625t0.08203125,0.04296875t0.07421875,0.0234375t0.09375,0.00390625q0.0625,0,0.1484375,0.03515625t0.125,0.03515625q0.046875,0,0.140625-0.0703125q0.1015625-0.078125,0.2109375-0.078125q0.03125,0,0.09375,0.03125q0.015625,0.015625,0.0625,0.015625q0.0390625,0,0.08984375-0.02734375t0.10546875-0.0703125t0.078125-0.05859375q0.1796875-0.3515625,0.3203125-0.3515625q0.03125,0,0.09375,0.03125q0.0078125-0.046875,0.06640625-0.140625t0.06640625-0.1015625q0.015625-0.03125,0.0390625-0.10546875t0.0390625-0.09765625q0.03125-0.0390625,0.109375-0.2734375l-0.015625-0.1640625l0.0625-0.109375q0-0.0625,0.015625-0.09375q0-0.1171875,0.0859375-0.1796875q0.0703125-0.046875,0.203125-0.046875q0.0859375,0,0.1484375,0.03125q0.0625-0.0078125,0.19921875-0.05078125t0.21484375-0.04296875q0.1875-0.046875,0.3359375-0.046875q0.078125,0,0.109375,0.015625q0.1953125,0.046875,0.2109375,0.0625q0.03125-0.015625,0.125-0.015625q0.1015625,0,0.1328125,0.03125q0.09375,0,0.15625,0.09375q0.046875,0.046875,0.1640625,0.078125z M169.4888125,27.4453125l0,0.015625l0-0.015625l0,0.0625l0,0.03125q0.0625-0.1171875,0.1171875-0.1953125q-0.109375,0.0703125-0.1171875,0.1015625z M169.777875,27.328125q-0.0625,0.1328125-0.203125,0.37109375t-0.1640625,0.28515625q0.4453125-0.203125,1.1328125-0.734375q-0.015625-0.015625-0.0625-0.015625t-0.15625,0.04296875t-0.1640625,0.03515625q-0.03125,0.03125-0.109375,0.03125t-0.109375-0.015625q-0.03125,0.015625-0.0859375,0.015625q-0.046875,0-0.078125-0.015625z M168.7231875,25.5078125l0.078125-0.0625l-0.078125,0.0625q0.7578125-0.6328125,1.6484375-1.265625q-0.3515625,0.171875-1.15625,0.703125q-0.125,0.078125-0.328125,0.234375t-0.2578125,0.1953125q-0.03125,0.015625-0.03125,0.046875q0,0.046875,0.125,0.0859375z M169.731,25.4921875q0.3046875-0.265625,0.5-0.515625q-0.9140625,0.5234375-1.09375,0.640625q0.03125,0.0078125,0.10546875,0.03515625t0.12109375,0.02734375q0.0859375,0.0078125,0.15234375-0.01953125t0.09765625-0.0546875t0.1171875-0.11328125z M170.26225,25.1875l-0.1484375,0.140625l-0.03125,0.03125q0.0234375-0.015625,0.0546875-0.0390625l0.046875-0.03515625t0.0390625-0.0390625t0.0390625-0.05859375z M170.481,24.3515625l-0.2734375,0.1953125l0.2734375-0.1953125q-0.8671875,0.609375-1.6015625,1.21875q0.0234375,0.015625,0.10546875-0.01953125t0.19140625-0.1015625t0.2109375-0.1328125t0.19140625-0.125t0.10546875-0.06640625q0.125-0.1015625,0.37109375-0.25390625t0.36328125-0.15234375q0.03125,0,0.046875,0.015625q0.03125-0.0625,0.03125-0.1875q0-0.1484375-0.015625-0.1953125z M170.371625,23.90625l-0.078125,0.0625l0.078125-0.0625q-0.265625,0.2421875-1.0078125,0.75q0.734375-0.4921875,1.0859375-0.609375q-0.03125-0.09375-0.078125-0.140625z M169.07475,22.671875l-0.015625,0l0.015625,0q-0.015625,0-0.0546875,0.02734375t-0.0390625,0.03515625q0.0078125-0.0078125,0.0546875-0.03125z M169.2700625,22.734375q-0.0859375,0.046875-0.0859375,0.0703125q0.0078125,0,0.015625-0.0078125t0.03125-0.01953125t0.03515625-0.0234375t0.00390625-0.01953125q-0.171875,0.1015625-0.5078125,0.30859375t-0.5,0.31640625q0.0859375,0.0546875,0.30859375,0.11328125t0.30859375,0.12890625q0.0546875-0.03125,0.17578125-0.125t0.19921875-0.1484375t0.1953125-0.11328125t0.21875-0.07421875q0.03125-0.015625,0.109375-0.015625t0.09375,0.03125l0,0.0390625t-0.02734375,0.04296875t-0.046875,0.04296875t-0.0546875,0.03515625t-0.05859375,0.03125l-0.0546875,0.02734375t-0.0390625,0.015625q-0.453125,0.2734375-0.5,0.3046875q-0.015625,0.0078125-0.0625,0.02734375t-0.0625,0.01953125q0.015625,0.015625,0.015625,0.0859375q0,0.125-0.1171875,0.171875q-0.171875,0.109375-0.21875,0.1640625q-0.0234375,0.03125-0.0546875,0.05859375t-0.0390625,0.0390625t-0.0234375,0.0390625t-0.03125,0.08203125q-0.0078125,0.0078125-0.046875,0.1796875q-0.0078125,0.046875-0.04296875,0.13671875t-0.03515625,0.15234375q0,0.046875,0.015625,0.078125q0.0078125,0.0234375,0.0390625,0.11328125t0.0546875,0.12890625q0.0703125-0.078125,0.5390625-0.43359375t0.8828125-0.671875t0.390625-0.33984375l-1.4765625,0.8671875q-0.09375,0.046875-0.25,0.140625q-0.015625,0.015625-0.0546875,0.015625q-0.078125,0-0.078125-0.078125q0-0.0390625,0.046875-0.0625q0.1484375-0.078125,0.65625-0.3828125q0.1484375-0.09375,0.453125-0.26953125t0.4609375-0.26171875q0.03125-0.0234375,0.07421875-0.04296875t0.0546875-0.03125t0.01171875-0.03515625l-0.03125-0.09375q-0.109375-0.1953125-0.203125-0.3046875q-0.0390625-0.03125-0.125-0.1171875t-0.1328125-0.125q-0.328125-0.109375-0.4296875-0.2109375z M168.527875,22.46875l-0.046875,0.078125l0.046875-0.078125q-0.0546875,0.0859375-0.13671875,0.171875t-0.13671875,0.140625t-0.18359375,0.15234375t-0.16015625,0.12109375t-0.1953125,0.1328125l-0.1640625,0.109375q0.2421875-0.1484375,0.69921875-0.390625t0.61328125-0.328125q-0.2109375-0.0859375-0.3359375-0.109375z M167.715375,22.3984375l0.015625,0.0390625l-0.015625-0.0390625q0.0234375,0.046875-0.00390625,0.10546875t-0.09765625,0.1171875t-0.140625,0.109375t-0.14453125,0.1015625t-0.08984375,0.06640625q0.140625-0.078125,0.41015625-0.2421875t0.40234375-0.2421875l-0.0625,0q-0.1484375,0-0.2890625-0.046875q0.015625,0.015625,0.015625,0.03125z M167.2388125,22.3359375l-0.0234375,0l0.0234375,0z M164.2075625,23.796875l0,0.015625q0.0390625,0,0.0390625-0.03125q-0.0078125,0-0.0390625,0.015625q-0.0078125,0.015625-0.078125,0.125q0.0625-0.0546875,0.19140625-0.16796875t0.19140625-0.16796875l-0.03125,0q-0.046875,0-0.078125-0.015625q0.0234375,0.1640625-0.1953125,0.2265625z M163.9419375,24.0625l0.015625,0q0.015625,0,0.078125-0.0625q-0.0625,0.03125-0.09375,0.0625z M163.7935,24.453125q0-0.0078125,0.07421875-0.046875t0.15625-0.08203125t0.10546875-0.06640625q0.0859375-0.0546875,0.25390625-0.17578125t0.26171875-0.17578125q0.2265625-0.1640625,0.890625-0.625q0.9375-0.6328125,1.5078125-0.8671875q-0.046875-0.015625-0.1953125-0.015625l-0.0625,0q-0.0859375,0.0859375-0.171875,0.0859375q-0.0703125,0-0.1015625-0.03125q-0.0703125,0.046875-0.234375,0.046875q-0.1015625,0-0.1328125-0.015625q-0.03125,0.03125-0.09375,0.03125l-0.046875,0q0,0.0625-0.046875,0.109375q-0.0703125,0.1171875-0.27734375,0.2109375t-0.26953125,0.15625q-0.140625,0.2578125-0.2890625,0.3671875q-0.0234375,0.015625-0.1015625,0.02734375t-0.0859375,0.01953125q-0.40625,0.375-0.65625,0.59375q-0.03125,0.0234375-0.15625,0.11328125t-0.2109375,0.17578125t-0.1171875,0.1640625z M163.63725,24.9140625q0,0.0078125-0.0078125,0.0234375t-0.0078125,0.0234375q0.4140625-0.265625,1.26171875-0.77734375t1.26171875-0.77734375q0.09375-0.0546875,0.4453125-0.26171875t0.5703125-0.359375t0.390625-0.33203125q-0.015625-0.015625-0.0625-0.015625q-0.0625,0-0.125,0.03515625t-0.1328125,0.09375t-0.09375,0.07421875q-0.3046875,0.1796875-0.4609375,0.3046875q-0.1875,0.1171875-0.546875,0.33984375t-0.5390625,0.33203125q-0.203125,0.1328125-0.62890625,0.39453125t-0.63671875,0.40234375q-0.0390625,0.0234375-0.17578125,0.08984375t-0.22265625,0.11328125t-0.17578125,0.12890625t-0.11328125,0.16796875z M163.4888125,25.4765625l0,0.015625l0-0.015625q-0.015625,0.03125-0.015625,0.09375q0.4765625-0.2890625,1.4296875-0.8359375q0.6328125-0.3671875,0.796875-0.4609375q0.0703125-0.046875,0.20703125-0.13671875t0.20703125-0.13671875q0.0234375-0.015625,0.05859375-0.03125t0.05078125-0.0234375t0.03515625-0.0234375t0.03515625-0.0390625t0.03125-0.0546875q0.03125-0.1171875,0.2578125-0.2265625q0.1171875-0.1484375,0.171875-0.1953125q0.125-0.09375,0.2109375-0.09375q0.0078125,0,0.03125,0.0078125t0.03125,0.0078125q0.0390625,0.0078125,0.07421875,0.01953125t0.05078125,0.01171875q0.0546875,0,0.1015625-0.03125q0.0625-0.046875,0.2734375-0.1875t0.3125-0.21484375t0.25-0.203125t0.25-0.25390625l-0.03125,0q-0.078125,0-0.2265625,0.109375q-0.53125,0.296875-0.578125,0.3203125q-0.84375,0.5078125-1.7109375,1.0078125q-1.2890625,0.734375-1.6953125,0.9765625q-0.125,0.0625-0.4765625,0.2734375q-0.0703125,0.0390625-0.0859375,0.078125t-0.01953125,0.109375t-0.02734375,0.1328125z M163.4731875,25.765625l0.078125-0.0546875q-0.015625,0.0234375-0.078125,0.0546875q0.59375-0.359375,0.6875-0.421875q-0.046875,0.0234375-0.6875,0.421875z M163.4419375,26.3984375q0.1875-0.15625,0.40625-0.33203125t0.4765625-0.3828125t0.3984375-0.32421875t0.4296875-0.3515625t0.4375-0.3515625q0.2734375-0.2109375,0.3671875-0.3515625q-0.3671875,0.21875-1.015625,0.6796875t-0.890625,0.6171875q-0.421875,0.2734375-0.609375,0.3671875l0,0.046875q0,0.0390625-0.0078125,0.12890625t-0.0078125,0.12890625q0,0.078125,0.015625,0.125z M163.4731875,26.59375l0.1328125-0.046875l-0.1328125,0.046875q0.28125-0.1015625,0.5625-0.28515625t0.65625-0.48828125t0.5078125-0.3984375q0.0234375-0.015625,0.1328125-0.09375t0.19140625-0.125t0.16015625-0.078125q0.0625-0.0078125,0.1015625-0.1796875t0.0390625-0.2890625q-0.4765625,0.3984375-1.2109375,0.9921875q-0.1328125,0.1171875-0.40625,0.33984375t-0.4140625,0.33203125q-0.3203125,0.2109375-0.3203125,0.2578125l0,0.015625z M165.621625,25.328125l-0.0703125,0.046875q0.0390625-0.015625,0.0703125-0.046875q-0.03125,0.015625-0.53125,0.3671875q0.421875-0.2578125,0.53125-0.3671875z M163.4888125,26.8828125l0.0625-0.015625l-0.0625,0.015625q0.21875-0.0625,0.8046875-0.3984375q0.6796875-0.4375,0.875-0.578125q0.0078125-0.0078125,0.10546875-0.05859375t0.15625-0.0859375t0.13671875-0.08984375t0.1171875-0.10546875t0.03125-0.10546875q-0.1171875,0.109375-0.27734375,0.21484375t-0.28515625,0.17578125t-0.328125,0.1796875t-0.296875,0.1640625q-0.1171875,0.0703125-0.34765625,0.20703125t-0.33984375,0.20703125q-0.015625,0.0078125-0.12109375,0.06640625t-0.1640625,0.109375t-0.06640625,0.09765625z M163.5200625,27.296875l0.1171875-0.09375q-0.1171875,0.078125-0.1171875,0.09375q0.15625-0.125,1.15625-0.796875q0.34375-0.1875,0.71875-0.484375q0.0234375-0.015625,0.08203125-0.046875t0.09765625-0.0546875t0.0703125-0.0625t0.0234375-0.0859375q-1.0234375,0.71875-1.6796875,1.0703125q-0.328125,0.1640625-0.3984375,0.1875q-0.0859375,0.0234375-0.0859375,0.1171875q0,0.0234375,0.0078125,0.07421875t0.0078125,0.08203125z M163.57475,27.4921875l0.078125-0.046875l-0.078125,0.046875q0.03125-0.0234375,0.1796875-0.12890625t0.1953125-0.140625t0.18359375-0.12890625t0.203125-0.1328125t0.1875-0.1171875t0.2109375-0.125t0.19921875-0.1015625t0.21875-0.1015625q0.125-0.0625,0.3046875-0.0625q0.1328125,0,0.1328125,0.0625q0,0.03125-0.0546875,0.109375q0.0859375-0.0625,0.0859375-0.140625q0-0.015625-0.0078125-0.0625t-0.0078125-0.0859375l0-0.046875q0-0.0390625,0.015625-0.12109375t0.015625-0.12109375q-0.0078125,0.0078125-0.60546875,0.3828125t-1.04296875,0.6875t-0.4140625,0.375z M164.44975,27.140625l0.09375-0.0546875l-0.15625,0.0859375q0.015625-0.015625,0.0625-0.03125q0.6640625-0.34375,0.9140625-0.546875q-0.1875,0.046875-0.40234375,0.15625t-0.34765625,0.19921875t-0.3828125,0.2734375t-0.3203125,0.23828125q0.4765625-0.2890625,0.5390625-0.3203125z M164.8013125,27.125l-0.203125,0.125q0.046875-0.03125,0.203125-0.125q-0.0625,0.03125-0.4140625,0.21875t-0.53125,0.3046875q0.3046875-0.1171875,0.9453125-0.5234375z M163.621625,27.6484375l0.015625-0.015625z M163.652875,28.640625l0.015625-0.015625l-0.015625,0.015625q0.0078125-0.0078125,0.0234375-0.015625t0.0234375-0.015625l0-0.015625z M163.8950625,28.2421875l0.09375-0.078125l-0.09375,0.078125q0.5390625-0.421875,1.0859375-0.8984375q0.0703125-0.0625,0.21484375-0.19140625t0.21484375-0.19140625q0.0078125-0.0078125,0.06640625-0.0546875t0.1015625-0.08984375t0.04296875-0.06640625q-0.6328125,0.4375-1.078125,0.7109375q-0.0390625,0.0234375-0.1796875,0.11328125t-0.23046875,0.14453125t-0.21875,0.09765625t-0.21484375,0.02734375q0.015625,0.0625,0.046875,0.12890625t0.078125,0.1484375t0.0703125,0.12109375z M164.0200625,28.453125l0.0625-0.0546875l-0.0625,0.0546875q0.6640625-0.3828125,1.390625-0.9296875q0.046875-0.03125,0.14453125-0.10546875t0.14453125-0.10546875q0-0.0625-0.0234375-0.18359375t-0.0234375-0.18359375q-0.328125,0.3125-0.9296875,0.8203125q-0.1015625,0.09375-0.30859375,0.25390625t-0.31640625,0.25390625q-0.109375,0.0859375-0.109375,0.109375q0,0.0078125,0.03125,0.0703125z M164.1450625,28.65625l0.0859375-0.0625q-0.0859375,0.046875-0.0859375,0.0625q0.1015625-0.078125,0.30078125-0.23828125t0.29296875-0.23828125q-0.484375,0.3203125-0.640625,0.3984375q0.0078125,0.015625,0.0234375,0.0390625t0.0234375,0.0390625z M164.434125,29.0078125l0.046875-0.0625l-0.046875,0.0625q0.2578125-0.328125,0.8046875-0.8125q-0.109375,0.0546875-0.3046875,0.17578125t-0.3046875,0.17578125q-0.3828125,0.2265625-0.3828125,0.2890625l0,0.015625q0.015625,0.0234375,0.0546875,0.11328125t0.0703125,0.12109375q0.03125-0.0625,0.0625-0.078125z M164.6138125,29.328125l0.015625-0.015625q-0.015625,0-0.015625,0.015625q0.0625-0.0625,0.09375-0.078125q-0.109375,0.03125-0.109375,0.0625z M164.465375,29.21875l0.078125-0.046875l-0.078125,0.046875q0.2734375-0.15625,0.80859375-0.46875t0.80859375-0.4765625q-0.09375-0.1171875-0.171875-0.2734375q-0.0625-0.078125-0.09765625-0.25390625t-0.06640625-0.23828125q-0.0625,0.078125-0.15625,0.16796875t-0.13671875,0.125t-0.19140625,0.15234375t-0.15625,0.125q0.0625-0.03125,0.171875-0.09765625t0.20703125-0.1171875t0.18359375-0.08203125l0.0625,0q0.0625,0.0234375,0.0625,0.0625q0,0.03125-0.0546875,0.08984375t-0.125,0.12109375l-0.078125,0.0625q-0.1328125,0.109375-0.62109375,0.5859375t-0.44921875,0.515625z M164.7544375,29.421875l0.0625-0.03125l-0.0625,0.03125q0.7265625-0.453125,1.28125-0.734375q0.0546875-0.03125,0.17578125-0.05078125t0.16015625-0.04296875q-0.03125-0.0234375-0.06640625-0.0625t-0.0546875-0.05859375t-0.04296875-0.01953125q-0.03125,0-0.0625,0.03125q-0.25,0.171875-0.4921875,0.3203125q-0.0078125,0.0078125-0.078125,0.0546875t-0.14453125,0.09375t-0.171875,0.11328125t-0.18359375,0.125t-0.1640625,0.109375t-0.1171875,0.08984375z M165.5044375,29.796875l0.046875-0.0546875q-0.046875,0-0.046875,0.0546875q0.0625-0.0625,0.25390625-0.24609375t0.28515625-0.28125t0.2265625-0.2578125t0.2265625-0.30859375q-0.03125-0.03125-0.33984375,0.16796875t-0.66796875,0.453125t-0.3984375,0.27734375q0.0390625,0.015625,0.1875,0.09375t0.2265625,0.1015625z M166.0825625,29.4453125l-0.03125,0.03125l0.140625-0.1484375q-0.03125,0.0390625-0.109375,0.1171875l-0.3515625,0.3515625q0.9921875-0.6796875,1.203125-0.8046875q-0.0234375-0.03125-0.10546875-0.06640625t-0.10546875-0.05859375q-0.046875-0.046875-0.078125-0.046875q-0.0390625,0-0.078125,0.0625q-0.203125,0.28125-0.484375,0.5625z M166.309125,29.7265625l0.0625-0.0625l-0.078125,0.078125l0.015625-0.015625q0.5234375-0.421875,0.6875-0.5859375q-0.234375,0.1328125-0.66796875,0.42578125t-0.50390625,0.33984375q0.046875,0.03125,0.1484375,0.03125q0.09375,0,0.3359375-0.2109375z M166.5981875,30.046875l0.03125-0.03125q-0.03125,0.015625-0.03125,0.03125q0.140625-0.09375,0.25-0.203125l-0.28125,0.1875q0.015625,0.015625,0.03125,0.015625z M166.8481875,29.4765625l0.1640625-0.1171875q-0.015625,0-0.1640625,0.1171875q0.453125-0.28125,0.578125-0.3046875q-0.0703125-0.046875-0.125-0.046875q-0.078125,0-0.16015625,0.05859375t-0.171875,0.16015625t-0.12109375,0.1328125z M167.2700625,29.390625q-0.015625,0.0078125-0.05078125,0.02734375t-0.05078125,0.02734375q0.09375-0.046875,0.1015625-0.0546875z M168.7700625,29.8125q0.0078125,0,0.0234375,0.0078125t0.0234375,0.0078125q0.015625,0,0.03125-0.015625t0.0390625-0.04296875t0.046875-0.04296875q-0.0546875,0.015625-0.1640625,0.0859375z M168.934125,30.3359375l0.015625,0l-0.03125,0l0.015625,0q0.1015625-0.0234375,0.15625-0.078125l-0.046875,0q-0.03125,0-0.07421875-0.0078125t-0.06640625-0.0078125q-0.0703125,0-0.1015625,0.03125q0.0390625,0.0625,0.1328125,0.0625z M169.3169375,29.5234375q0.0234375-0.015625,0.0703125-0.05859375t0.0703125-0.05859375q-0.03125,0.015625-0.09375,0.05859375t-0.09375,0.05859375l0.046875,0z M170.356,28.5q-0.0078125,0-0.2890625,0.1875q-0.078125,0.0546875-0.23046875,0.16796875t-0.23046875,0.16796875q-0.15625,0.109375-0.46875,0.33203125t-0.4765625,0.33984375q0.078125-0.046875,0.4140625-0.234375t0.515625-0.3046875q0.3515625-0.1953125,0.4453125-0.2578125q0.046875-0.03125,0.109375-0.125q0.0078125-0.015625,0.046875-0.0859375t0.0859375-0.109375q0.0078125-0.015625,0.0390625-0.03515625t0.0390625-0.04296875z M170.6294375,27.96875q0,0.0234375-0.125,0.08984375t-0.2734375,0.14453125t-0.1796875,0.1015625q-0.3515625,0.1953125-0.59375,0.3515625q-0.1796875,0.109375-0.5234375,0.30859375t-0.515625,0.30078125q-0.7109375,0.4296875-1.3125,0.765625q0.140625,0.046875,0.3046875,0.046875q0.015625-0.015625,0.0625-0.015625q0.03125,0,0.09375,0.03515625t0.1015625,0.03515625q0.15625-0.0390625,0.32421875-0.140625t0.3828125-0.265625t0.30078125-0.21875q0.765625-0.546875,1.1484375-0.8359375q0.046875-0.03125,0.2109375-0.1484375t0.23828125-0.17578125t0.18359375-0.1640625t0.171875-0.21484375z M170.7544375,27.5859375q-0.0078125,0.0390625-0.13671875,0.12109375t-0.28125,0.16015625t-0.17578125,0.1015625q-0.4453125,0.2734375-0.5390625,0.3203125q-0.03125,0.015625-0.125,0.0703125t-0.16796875,0.0859375t-0.14453125,0.0390625q-0.0078125,0-0.0234375-0.0078125t-0.0234375-0.0078125q-0.015625,0-0.03125,0.015625q-0.03125,0.078125-0.1171875,0.140625t-0.203125,0.11328125t-0.15625,0.08203125q-0.0546875,0.03125-0.21484375,0.16796875t-0.23828125,0.13671875q-0.109375,0-0.203125-0.1796875q-0.0234375,0.0234375-0.1328125,0.078125q0.0859375,0,0.0859375,0.046875q0,0.0234375-0.0390625,0.0703125t-0.08203125,0.0859375t-0.08984375,0.078125l-0.046875,0.0390625q-0.125,0.0703125-0.33203125,0.27734375t-0.29296875,0.26953125q0.328125-0.1875,1.96875-1.140625q0.234375-0.15625,0.9765625-0.5859375q0.078125-0.046875,0.23046875-0.14453125t0.23046875-0.14453125q0.046875-0.0234375,0.13671875-0.07421875t0.13671875-0.07421875q0-0.078125,0.03125-0.140625z M176.38521875,29.0703125l0.015625,0.015625l-0.015625-0.03125l0,0.015625l0.015625,0.0390625q0,0.0390625-0.1484375,0.140625q-0.015625,0.0078125-0.046875,0.109375q0,0.0234375,0.0234375,0.05859375t0.0234375,0.05859375l0,0.015625q-0.0078125,0.03125-0.04296875,0.04296875t-0.05078125,0.03515625q-0.09375,0.1953125-0.171875,0.1953125q-0.109375,0.109375-0.1640625,0.125q-0.015625,0.015625-0.015625,0.03125t0.015625,0.0625t0.015625,0.0625q-0.015625,0.078125-0.0859375,0.1796875t-0.140625,0.125q-0.0703125,0.1015625-0.140625,0.1015625l-0.03125,0q-0.0234375,0-0.0546875,0.01171875t-0.0546875,0.01953125l-0.0703125,0q-0.0390625,0-0.07421875-0.03515625t-0.06640625-0.03515625q-0.0546875,0-0.109375,0.0390625q-0.1796875,0.140625-0.2890625,0.140625q-0.0625,0-0.08203125-0.07421875t-0.03515625-0.08203125l-0.125,0l-0.2578125,0q-0.0390625,0-0.09765625-0.05859375t-0.08984375-0.05859375q-0.0078125,0-0.015625,0.0078125t-0.015625,0.0078125q-0.171875,0.1171875-0.1953125,0.1171875l-0.03125,0q-0.0546875,0-0.15234375-0.04296875t-0.10546875-0.07421875q0-0.0078125-0.0078125-0.015625t-0.0078125-0.015625q0-0.0390625,0.0390625-0.08203125t0.1171875-0.09765625l0.0859375-0.046875q-0.015625-0.015625-0.03125-0.015625q-0.0390625,0-0.13671875,0.07421875t-0.13671875,0.07421875t-0.0625-0.046875q-0.015625-0.015625-0.015625-0.0625q0-0.1015625,0.1875-0.2421875q-0.0625-0.0625-0.078125-0.1171875q-0.1875-0.28125-0.1953125-0.296875q-0.015625-0.0234375-0.078125-0.05078125t-0.0625-0.06640625q0-0.046875,0.015625-0.078125q0.015625-0.046875,0.015625-0.09375q0-0.0078125-0.03125-0.1328125q-0.015625-0.03125-0.015625-0.109375q0-0.125,0.0625-0.2109375q0-0.015625,0.0078125-0.03515625t0.0078125-0.02734375l0-0.015625q-0.0625-0.03125-0.0625-0.078125q0-0.0390625,0.046875-0.0625q0.0078125,0,0.03125-0.078125t0.078125-0.0859375q0.046875-0.046875,0.1171875-0.1875q0.015625-0.0703125,0.140625-0.1640625l0-0.046875q0-0.09375,0.046875-0.140625q0.015625-0.0078125,0.0859375-0.046875t0.109375-0.0859375q0.015625-0.015625,0.046875-0.0546875t0.046875-0.0546875q0.1484375-0.1484375,0.2890625-0.1484375q0.1484375,0,0.2578125,0.1796875q0.171875-0.1484375,0.3984375-0.1484375q0.09375,0,0.3046875,0.0703125q0.140625,0,0.36328125,0.13671875t0.29296875,0.26171875q0.3359375,0.2890625,0.3828125,0.4140625q0.109375,0.21875,0.109375,0.609375q0,0.09375-0.015625,0.109375l0.0390625,0q0.0546875,0,0.078125,0.046875z M174.18990625,29.984375l0.0625-0.03125q-0.015625,0-0.0625,0.03125q0.0390625,0.0234375,0.203125-0.08203125t0.34765625-0.2421875t0.21484375-0.15234375q-0.1328125,0.078125-0.38671875,0.23828125t-0.37890625,0.23828125z M175.59615625,28.1796875q-0.015625,0-0.078125-0.0625q-0.015625-0.0078125-0.06640625,0.03515625t-0.109375,0.09375t-0.06640625,0.05859375q-0.2421875,0.2421875-0.5390625,0.5q-0.390625,0.3671875-0.75,0.75q0.6640625-0.3984375,1.7265625-0.9140625q0.140625-0.0703125,0.140625-0.109375q0-0.0625-0.03125-0.09375q-0.1796875-0.1328125-0.2265625-0.2578125z M175.15084375,27.890625l-0.015625,0l0.015625,0q-0.1171875,0-0.2734375-0.0625q-0.140625,0.15625-0.4296875,0.3828125q-0.1015625,0.09375-0.31640625,0.27734375t-0.32421875,0.28515625q-0.0234375,0.015625-0.08203125,0.05859375t-0.09375,0.0703125t-0.06640625,0.0703125t-0.03125,0.08203125l0,0.0546875q0.109375-0.0703125,0.73828125-0.5390625t1.00390625-0.6171875q-0.046875-0.0625-0.125-0.0625z M173.58053125,28.734375q-0.03125,0.03125-0.03125,0.0546875q0.140625-0.1328125,0.53515625-0.45703125t0.58984375-0.51953125q-0.0390625,0-0.2734375,0.078125q-0.046875,0.046875-0.1796875,0.125t-0.1875,0.1484375q-0.09375,0.125-0.2109375,0.125q-0.03125,0-0.03125,0.078125q-0.078125,0.09375-0.140625,0.2421875q-0.0078125,0.015625-0.03515625,0.0625t-0.03515625,0.0625z M174.18990625,28.8359375l-0.078125,0.0625q0.15625-0.109375,0.15625-0.125q-0.015625,0.015625-0.078125,0.0625q-0.34375,0.2578125-0.4140625,0.3046875q-0.0234375,0.015625-0.07421875,0.046875t-0.07421875,0.046875q-0.046875,0.0234375-0.046875,0.046875q0,0.015625,0.03125,0.078125q0.0234375,0.03125,0.08203125,0.10546875t0.08203125,0.10546875q0.1015625-0.125,0.23046875-0.265625t0.21484375-0.23046875t0.265625-0.2578125t0.234375-0.21484375t0.27734375-0.24609375t0.24609375-0.22265625q-0.1640625,0.0859375-0.33203125,0.1953125t-0.40234375,0.28125t-0.3203125,0.2265625z" />
</svg>